<svg width="561" height="700" viewBox="0 0 561 700" fill="none" xmlns="http://www.w3.org/2000/svg">
<rect x="41" y="1" width="484" height="698" rx="19" fill="#F7F7F8" stroke="#D2D2DC" stroke-width="2"/>
<path d="M116 72.5H560.5V136C560.5 146.77 551.77 155.5 541 155.5H116C105.23 155.5 96.5 146.77 96.5 136V92C96.5 81.2304 105.23 72.5 116 72.5Z" fill="#9F9EB0"/>
<path d="M118.002 110V91.67H124.814C127.882 91.67 130.248 92.4587 131.912 94.036C133.593 95.6133 134.434 97.8753 134.434 100.822C134.434 103.751 133.593 106.013 131.912 107.608C130.248 109.203 127.882 110 124.814 110H118.002ZM121.33 107.244H124.606C128.835 107.244 130.95 105.103 130.95 100.822C130.95 96.558 128.835 94.426 124.606 94.426H121.33V107.244ZM137.287 94.556V91.384H140.927V94.556H137.287ZM137.495 110V97.286H140.745V110H137.495ZM149.01 110.26C147.9 110.26 146.921 109.991 146.072 109.454C145.24 108.917 144.59 108.154 144.122 107.166C143.654 106.161 143.42 104.982 143.42 103.63C143.42 102.261 143.654 101.091 144.122 100.12C144.59 99.132 145.24 98.3693 146.072 97.832C146.921 97.2947 147.9 97.026 149.01 97.026C149.911 97.026 150.726 97.2253 151.454 97.624C152.182 98.0227 152.728 98.5513 153.092 99.21V91.67H156.342V110H153.17V107.894C152.823 108.622 152.277 109.203 151.532 109.636C150.786 110.052 149.946 110.26 149.01 110.26ZM149.92 107.79C150.89 107.79 151.67 107.443 152.26 106.75C152.849 106.039 153.144 104.999 153.144 103.63C153.144 102.243 152.849 101.212 152.26 100.536C151.67 99.8427 150.89 99.496 149.92 99.496C148.949 99.496 148.169 99.8427 147.58 100.536C146.99 101.212 146.696 102.243 146.696 103.63C146.696 104.999 146.99 106.039 147.58 106.75C148.169 107.443 148.949 107.79 149.92 107.79ZM167.031 110V91.67H169.527L179.381 104.462V91.67H182.475V110H180.005L170.125 97.156V110H167.031ZM192.435 110.26C190.996 110.26 189.757 109.991 188.717 109.454C187.677 108.917 186.871 108.154 186.299 107.166C185.744 106.178 185.467 105.008 185.467 103.656C185.467 102.339 185.735 101.186 186.273 100.198C186.827 99.21 187.581 98.4387 188.535 97.884C189.505 97.312 190.606 97.026 191.837 97.026C193.639 97.026 195.061 97.598 196.101 98.742C197.158 99.886 197.687 101.446 197.687 103.422V104.384H188.587C188.829 106.655 190.129 107.79 192.487 107.79C193.197 107.79 193.908 107.686 194.619 107.478C195.329 107.253 195.979 106.906 196.569 106.438L197.479 108.622C196.872 109.125 196.109 109.523 195.191 109.818C194.272 110.113 193.353 110.26 192.435 110.26ZM191.967 99.236C191.013 99.236 190.242 99.5307 189.653 100.12C189.063 100.709 188.708 101.507 188.587 102.512H194.983C194.913 101.455 194.619 100.649 194.099 100.094C193.596 99.522 192.885 99.236 191.967 99.236ZM206.034 110.26C202.671 110.26 200.99 108.596 200.99 105.268V99.73H198.546V97.286H200.99V93.49H204.24V97.286H208.088V99.73H204.24V105.086C204.24 105.918 204.422 106.542 204.786 106.958C205.15 107.374 205.739 107.582 206.554 107.582C206.796 107.582 207.048 107.556 207.308 107.504C207.568 107.435 207.836 107.365 208.114 107.296L208.608 109.688C208.296 109.861 207.897 110 207.412 110.104C206.944 110.208 206.484 110.26 206.034 110.26ZM210.995 110V99.73H208.551V97.286H210.995V97.26C210.995 95.4573 211.463 94.0967 212.399 93.178C213.353 92.2593 214.826 91.7393 216.819 91.618L218.093 91.54L218.301 93.932L217.105 94.01C216.065 94.0793 215.329 94.3393 214.895 94.79C214.462 95.2233 214.245 95.8733 214.245 96.74V97.286H217.703V99.73H214.245V110H210.995ZM224.021 110.26C222.513 110.26 221.395 109.853 220.667 109.038C219.957 108.206 219.601 106.993 219.601 105.398V91.67H222.851V105.242C222.851 106.802 223.51 107.582 224.827 107.582C225.018 107.582 225.209 107.573 225.399 107.556C225.59 107.539 225.772 107.504 225.945 107.452L225.893 110.026C225.269 110.182 224.645 110.26 224.021 110.26ZM227.677 94.556V91.384H231.317V94.556H227.677ZM227.885 110V97.286H231.135V110H227.885ZM232.744 110L238.074 103.422L233.082 97.286H236.878L239.946 101.212L243.014 97.286H246.81L241.792 103.448L247.148 110H243.326L239.92 105.71L236.54 110H232.744ZM261.511 110.26C260.194 110.26 259.05 109.991 258.079 109.454C257.109 108.917 256.355 108.154 255.817 107.166C255.28 106.161 255.011 104.982 255.011 103.63C255.011 102.278 255.28 101.108 255.817 100.12C256.355 99.132 257.109 98.3693 258.079 97.832C259.05 97.2947 260.194 97.026 261.511 97.026C262.829 97.026 263.973 97.2947 264.943 97.832C265.914 98.3693 266.668 99.132 267.205 100.12C267.743 101.108 268.011 102.278 268.011 103.63C268.011 104.982 267.743 106.161 267.205 107.166C266.668 108.154 265.914 108.917 264.943 109.454C263.973 109.991 262.829 110.26 261.511 110.26ZM261.511 107.79C262.482 107.79 263.262 107.443 263.851 106.75C264.441 106.039 264.735 104.999 264.735 103.63C264.735 102.243 264.441 101.212 263.851 100.536C263.262 99.8427 262.482 99.496 261.511 99.496C260.541 99.496 259.761 99.8427 259.171 100.536C258.582 101.212 258.287 102.243 258.287 103.63C258.287 104.999 258.582 106.039 259.171 106.75C259.761 107.443 260.541 107.79 261.511 107.79ZM270.694 110V97.286H273.866V99.522C274.49 98.014 275.825 97.182 277.87 97.026L278.858 96.948L279.066 99.704L277.194 99.886C275.062 100.094 273.996 101.186 273.996 103.162V110H270.694ZM297.009 110.26C294.981 110.26 293.265 109.879 291.861 109.116C290.475 108.353 289.417 107.27 288.689 105.866C287.961 104.462 287.597 102.798 287.597 100.874C287.597 98.9327 287.97 97.26 288.715 95.856C289.461 94.4347 290.535 93.3427 291.939 92.58C293.343 91.8 295.025 91.41 296.983 91.41C298.266 91.41 299.471 91.6007 300.597 91.982C301.724 92.346 302.66 92.8573 303.405 93.516L302.287 96.116C301.473 95.4747 300.641 95.0153 299.791 94.738C298.942 94.4607 298.006 94.322 296.983 94.322C295.042 94.322 293.569 94.8853 292.563 96.012C291.575 97.1387 291.081 98.7593 291.081 100.874C291.081 103.006 291.593 104.627 292.615 105.736C293.638 106.845 295.155 107.4 297.165 107.4C297.737 107.4 298.318 107.357 298.907 107.27C299.514 107.166 300.112 107.019 300.701 106.828V102.564H296.489V100.094H303.483V108.908C302.634 109.324 301.629 109.653 300.467 109.896C299.306 110.139 298.153 110.26 297.009 110.26ZM312.826 110.26C311.509 110.26 310.365 109.991 309.394 109.454C308.423 108.917 307.669 108.154 307.132 107.166C306.595 106.161 306.326 104.982 306.326 103.63C306.326 102.278 306.595 101.108 307.132 100.12C307.669 99.132 308.423 98.3693 309.394 97.832C310.365 97.2947 311.509 97.026 312.826 97.026C314.143 97.026 315.287 97.2947 316.258 97.832C317.229 98.3693 317.983 99.132 318.52 100.12C319.057 101.108 319.326 102.278 319.326 103.63C319.326 104.982 319.057 106.161 318.52 107.166C317.983 108.154 317.229 108.917 316.258 109.454C315.287 109.991 314.143 110.26 312.826 110.26ZM312.826 107.79C313.797 107.79 314.577 107.443 315.166 106.75C315.755 106.039 316.05 104.999 316.05 103.63C316.05 102.243 315.755 101.212 315.166 100.536C314.577 99.8427 313.797 99.496 312.826 99.496C311.855 99.496 311.075 99.8427 310.486 100.536C309.897 101.212 309.602 102.243 309.602 103.63C309.602 104.999 309.897 106.039 310.486 106.75C311.075 107.443 311.855 107.79 312.826 107.79ZM327.806 110.26C326.489 110.26 325.345 109.991 324.374 109.454C323.404 108.917 322.65 108.154 322.112 107.166C321.575 106.161 321.306 104.982 321.306 103.63C321.306 102.278 321.575 101.108 322.112 100.12C322.65 99.132 323.404 98.3693 324.374 97.832C325.345 97.2947 326.489 97.026 327.806 97.026C329.124 97.026 330.268 97.2947 331.238 97.832C332.209 98.3693 332.963 99.132 333.5 100.12C334.038 101.108 334.306 102.278 334.306 103.63C334.306 104.982 334.038 106.161 333.5 107.166C332.963 108.154 332.209 108.917 331.238 109.454C330.268 109.991 329.124 110.26 327.806 110.26ZM327.806 107.79C328.777 107.79 329.557 107.443 330.146 106.75C330.736 106.039 331.03 104.999 331.03 103.63C331.03 102.243 330.736 101.212 330.146 100.536C329.557 99.8427 328.777 99.496 327.806 99.496C326.836 99.496 326.056 99.8427 325.466 100.536C324.877 101.212 324.582 102.243 324.582 103.63C324.582 104.999 324.877 106.039 325.466 106.75C326.056 107.443 326.836 107.79 327.806 107.79ZM342.917 114.94C341.738 114.94 340.629 114.801 339.589 114.524C338.566 114.264 337.665 113.857 336.885 113.302L337.821 111.04C338.549 111.525 339.329 111.881 340.161 112.106C340.993 112.349 341.825 112.47 342.657 112.47C344.979 112.47 346.141 111.352 346.141 109.116V107.374C345.777 108.085 345.213 108.648 344.451 109.064C343.705 109.48 342.873 109.688 341.955 109.688C340.811 109.688 339.814 109.428 338.965 108.908C338.115 108.371 337.457 107.625 336.989 106.672C336.521 105.719 336.287 104.609 336.287 103.344C336.287 102.079 336.521 100.978 336.989 100.042C337.457 99.0887 338.115 98.352 338.965 97.832C339.814 97.2947 340.811 97.026 341.955 97.026C342.908 97.026 343.757 97.2427 344.503 97.676C345.248 98.092 345.794 98.6553 346.141 99.366V97.286H349.313V108.726C349.313 110.789 348.767 112.34 347.675 113.38C346.583 114.42 344.997 114.94 342.917 114.94ZM342.839 107.218C343.844 107.218 344.641 106.871 345.231 106.178C345.82 105.485 346.115 104.54 346.115 103.344C346.115 102.148 345.82 101.212 345.231 100.536C344.641 99.8427 343.844 99.496 342.839 99.496C341.833 99.496 341.036 99.8427 340.447 100.536C339.857 101.212 339.563 102.148 339.563 103.344C339.563 104.54 339.857 105.485 340.447 106.178C341.036 106.871 341.833 107.218 342.839 107.218ZM357.1 110.26C355.592 110.26 354.474 109.853 353.746 109.038C353.036 108.206 352.68 106.993 352.68 105.398V91.67H355.93V105.242C355.93 106.802 356.589 107.582 357.906 107.582C358.097 107.582 358.288 107.573 358.478 107.556C358.669 107.539 358.851 107.504 359.024 107.452L358.972 110.026C358.348 110.182 357.724 110.26 357.1 110.26ZM367.122 110.26C365.683 110.26 364.444 109.991 363.404 109.454C362.364 108.917 361.558 108.154 360.986 107.166C360.431 106.178 360.154 105.008 360.154 103.656C360.154 102.339 360.423 101.186 360.96 100.198C361.515 99.21 362.269 98.4387 363.222 97.884C364.193 97.312 365.293 97.026 366.524 97.026C368.327 97.026 369.748 97.598 370.788 98.742C371.845 99.886 372.374 101.446 372.374 103.422V104.384H363.274C363.517 106.655 364.817 107.79 367.174 107.79C367.885 107.79 368.595 107.686 369.306 107.478C370.017 107.253 370.667 106.906 371.256 106.438L372.166 108.622C371.559 109.125 370.797 109.523 369.878 109.818C368.959 110.113 368.041 110.26 367.122 110.26ZM366.654 99.236C365.701 99.236 364.929 99.5307 364.34 100.12C363.751 100.709 363.395 101.507 363.274 102.512H369.67C369.601 101.455 369.306 100.649 368.786 100.094C368.283 99.522 367.573 99.236 366.654 99.236ZM381.956 110V91.67H385.206V99.132C385.639 98.4387 386.22 97.9187 386.948 97.572C387.676 97.208 388.482 97.026 389.366 97.026C392.364 97.026 393.864 98.768 393.864 102.252V110H390.614V102.408C390.614 101.42 390.423 100.701 390.042 100.25C389.678 99.7993 389.106 99.574 388.326 99.574C387.372 99.574 386.61 99.8773 386.038 100.484C385.483 101.073 385.206 101.862 385.206 102.85V110H381.956ZM401.351 110.26C400.432 110.26 399.609 110.087 398.881 109.74C398.17 109.376 397.607 108.891 397.191 108.284C396.792 107.677 396.593 106.993 396.593 106.23C396.593 105.294 396.835 104.557 397.321 104.02C397.806 103.465 398.595 103.067 399.687 102.824C400.779 102.581 402.243 102.46 404.081 102.46H404.991V101.914C404.991 101.047 404.8 100.423 404.419 100.042C404.037 99.6607 403.396 99.47 402.495 99.47C401.784 99.47 401.056 99.5827 400.311 99.808C399.565 100.016 398.811 100.345 398.049 100.796L397.113 98.586C397.563 98.274 398.092 98.0053 398.699 97.78C399.323 97.5373 399.973 97.3553 400.649 97.234C401.342 97.0953 401.992 97.026 402.599 97.026C404.453 97.026 405.831 97.4593 406.733 98.326C407.634 99.1753 408.085 100.501 408.085 102.304V110H405.043V107.972C404.748 108.683 404.28 109.246 403.639 109.662C402.997 110.061 402.235 110.26 401.351 110.26ZM402.027 108.024C402.876 108.024 403.578 107.729 404.133 107.14C404.705 106.551 404.991 105.805 404.991 104.904V104.332H404.107C402.477 104.332 401.342 104.462 400.701 104.722C400.077 104.965 399.765 105.415 399.765 106.074C399.765 106.646 399.964 107.114 400.363 107.478C400.761 107.842 401.316 108.024 402.027 108.024ZM415 110L409.488 97.286H412.946L416.482 106.178L420.148 97.286H423.398L417.808 110H415ZM430.979 110.26C429.541 110.26 428.301 109.991 427.261 109.454C426.221 108.917 425.415 108.154 424.843 107.166C424.289 106.178 424.011 105.008 424.011 103.656C424.011 102.339 424.28 101.186 424.817 100.198C425.372 99.21 426.126 98.4387 427.079 97.884C428.05 97.312 429.151 97.026 430.381 97.026C432.184 97.026 433.605 97.598 434.645 98.742C435.703 99.886 436.231 101.446 436.231 103.422V104.384H427.131C427.374 106.655 428.674 107.79 431.031 107.79C431.742 107.79 432.453 107.686 433.163 107.478C433.874 107.253 434.524 106.906 435.113 106.438L436.023 108.622C435.417 109.125 434.654 109.523 433.735 109.818C432.817 110.113 431.898 110.26 430.979 110.26ZM430.511 99.236C429.558 99.236 428.787 99.5307 428.197 100.12C427.608 100.709 427.253 101.507 427.131 102.512H433.527C433.458 101.455 433.163 100.649 432.643 100.094C432.141 99.522 431.43 99.236 430.511 99.236ZM451.637 110.26C448.274 110.26 446.593 108.596 446.593 105.268V99.73H444.149V97.286H446.593V93.49H449.843V97.286H453.691V99.73H449.843V105.086C449.843 105.918 450.025 106.542 450.389 106.958C450.753 107.374 451.342 107.582 452.157 107.582C452.4 107.582 452.651 107.556 452.911 107.504C453.171 107.435 453.44 107.365 453.717 107.296L454.211 109.688C453.899 109.861 453.5 110 453.015 110.104C452.547 110.208 452.088 110.26 451.637 110.26ZM455.792 110V91.67H459.042V99.132C459.475 98.4387 460.056 97.9187 460.784 97.572C461.512 97.208 462.318 97.026 463.202 97.026C466.2 97.026 467.7 98.768 467.7 102.252V110H464.45V102.408C464.45 101.42 464.259 100.701 463.878 100.25C463.514 99.7993 462.942 99.574 462.162 99.574C461.208 99.574 460.446 99.8773 459.874 100.484C459.319 101.073 459.042 101.862 459.042 102.85V110H455.792ZM477.267 110.26C475.828 110.26 474.589 109.991 473.549 109.454C472.509 108.917 471.703 108.154 471.131 107.166C470.576 106.178 470.299 105.008 470.299 103.656C470.299 102.339 470.567 101.186 471.105 100.198C471.659 99.21 472.413 98.4387 473.367 97.884C474.337 97.312 475.438 97.026 476.669 97.026C478.471 97.026 479.893 97.598 480.933 98.742C481.99 99.886 482.519 101.446 482.519 103.422V104.384H473.419C473.661 106.655 474.961 107.79 477.319 107.79C478.029 107.79 478.74 107.686 479.451 107.478C480.161 107.253 480.811 106.906 481.401 106.438L482.311 108.622C481.704 109.125 480.941 109.523 480.023 109.818C479.104 110.113 478.185 110.26 477.267 110.26ZM476.799 99.236C475.845 99.236 475.074 99.5307 474.485 100.12C473.895 100.709 473.54 101.507 473.419 102.512H479.815C479.745 101.455 479.451 100.649 478.931 100.094C478.428 99.522 477.717 99.236 476.799 99.236ZM117.69 136V117.67H120.94V125.132C121.373 124.439 121.954 123.919 122.682 123.572C123.41 123.208 124.216 123.026 125.1 123.026C128.099 123.026 129.598 124.768 129.598 128.252V136H126.348V128.408C126.348 127.42 126.157 126.701 125.776 126.25C125.412 125.799 124.84 125.574 124.06 125.574C123.107 125.574 122.344 125.877 121.772 126.484C121.217 127.073 120.94 127.862 120.94 128.85V136H117.69ZM132.691 120.556V117.384H136.331V120.556H132.691ZM132.899 136V123.286H136.149V136H132.899ZM145.454 140.94C144.275 140.94 143.166 140.801 142.126 140.524C141.103 140.264 140.202 139.857 139.422 139.302L140.358 137.04C141.086 137.525 141.866 137.881 142.698 138.106C143.53 138.349 144.362 138.47 145.194 138.47C147.517 138.47 148.678 137.352 148.678 135.116V133.374C148.314 134.085 147.751 134.648 146.988 135.064C146.243 135.48 145.411 135.688 144.492 135.688C143.348 135.688 142.351 135.428 141.502 134.908C140.653 134.371 139.994 133.625 139.526 132.672C139.058 131.719 138.824 130.609 138.824 129.344C138.824 128.079 139.058 126.978 139.526 126.042C139.994 125.089 140.653 124.352 141.502 123.832C142.351 123.295 143.348 123.026 144.492 123.026C145.445 123.026 146.295 123.243 147.04 123.676C147.785 124.092 148.331 124.655 148.678 125.366V123.286H151.85V134.726C151.85 136.789 151.304 138.34 150.212 139.38C149.12 140.42 147.534 140.94 145.454 140.94ZM145.376 133.218C146.381 133.218 147.179 132.871 147.768 132.178C148.357 131.485 148.652 130.54 148.652 129.344C148.652 128.148 148.357 127.212 147.768 126.536C147.179 125.843 146.381 125.496 145.376 125.496C144.371 125.496 143.573 125.843 142.984 126.536C142.395 127.212 142.1 128.148 142.1 129.344C142.1 130.54 142.395 131.485 142.984 132.178C143.573 132.871 144.371 133.218 145.376 133.218ZM155.217 136V117.67H158.467V125.132C158.901 124.439 159.481 123.919 160.209 123.572C160.937 123.208 161.743 123.026 162.627 123.026C165.626 123.026 167.125 124.768 167.125 128.252V136H163.875V128.408C163.875 127.42 163.685 126.701 163.303 126.25C162.939 125.799 162.367 125.574 161.587 125.574C160.634 125.574 159.871 125.877 159.299 126.484C158.745 127.073 158.467 127.862 158.467 128.85V136H155.217ZM176.692 136.26C175.254 136.26 174.014 135.991 172.974 135.454C171.934 134.917 171.128 134.154 170.556 133.166C170.002 132.178 169.724 131.008 169.724 129.656C169.724 128.339 169.993 127.186 170.53 126.198C171.085 125.21 171.839 124.439 172.792 123.884C173.763 123.312 174.864 123.026 176.094 123.026C177.897 123.026 179.318 123.598 180.358 124.742C181.416 125.886 181.944 127.446 181.944 129.422V130.384H172.844C173.087 132.655 174.387 133.79 176.744 133.79C177.455 133.79 178.166 133.686 178.876 133.478C179.587 133.253 180.237 132.906 180.826 132.438L181.736 134.622C181.13 135.125 180.367 135.523 179.448 135.818C178.53 136.113 177.611 136.26 176.692 136.26ZM176.224 125.236C175.271 125.236 174.5 125.531 173.91 126.12C173.321 126.709 172.966 127.507 172.844 128.512H179.24C179.171 127.455 178.876 126.649 178.356 126.094C177.854 125.522 177.143 125.236 176.224 125.236ZM184.518 136V123.286H187.69V125.522C188.314 124.014 189.649 123.182 191.694 123.026L192.682 122.948L192.89 125.704L191.018 125.886C188.886 126.094 187.82 127.186 187.82 129.162V136H184.518ZM201.708 136V123.286H204.88V125.522C205.504 124.014 206.838 123.182 208.884 123.026L209.872 122.948L210.08 125.704L208.208 125.886C206.076 126.094 205.01 127.186 205.01 129.162V136H201.708ZM217.952 136.26C216.513 136.26 215.274 135.991 214.234 135.454C213.194 134.917 212.388 134.154 211.816 133.166C211.261 132.178 210.984 131.008 210.984 129.656C210.984 128.339 211.253 127.186 211.79 126.198C212.345 125.21 213.099 124.439 214.052 123.884C215.023 123.312 216.123 123.026 217.354 123.026C219.157 123.026 220.578 123.598 221.618 124.742C222.675 125.886 223.204 127.446 223.204 129.422V130.384H214.104C214.347 132.655 215.647 133.79 218.004 133.79C218.715 133.79 219.425 133.686 220.136 133.478C220.847 133.253 221.497 132.906 222.086 132.438L222.996 134.622C222.389 135.125 221.627 135.523 220.708 135.818C219.789 136.113 218.871 136.26 217.952 136.26ZM217.484 125.236C216.531 125.236 215.759 125.531 215.17 126.12C214.581 126.709 214.225 127.507 214.104 128.512H220.5C220.431 127.455 220.136 126.649 219.616 126.094C219.113 125.522 218.403 125.236 217.484 125.236ZM229.319 136L223.807 123.286H227.265L230.801 132.178L234.467 123.286H237.717L232.127 136H229.319ZM245.298 136.26C243.859 136.26 242.62 135.991 241.58 135.454C240.54 134.917 239.734 134.154 239.162 133.166C238.607 132.178 238.33 131.008 238.33 129.656C238.33 128.339 238.598 127.186 239.136 126.198C239.69 125.21 240.444 124.439 241.398 123.884C242.368 123.312 243.469 123.026 244.7 123.026C246.502 123.026 247.924 123.598 248.964 124.742C250.021 125.886 250.55 127.446 250.55 129.422V130.384H241.45C241.692 132.655 242.992 133.79 245.35 133.79C246.06 133.79 246.771 133.686 247.482 133.478C248.192 133.253 248.842 132.906 249.432 132.438L250.342 134.622C249.735 135.125 248.972 135.523 248.054 135.818C247.135 136.113 246.216 136.26 245.298 136.26ZM244.83 125.236C243.876 125.236 243.105 125.531 242.516 126.12C241.926 126.709 241.571 127.507 241.45 128.512H247.846C247.776 127.455 247.482 126.649 246.962 126.094C246.459 125.522 245.748 125.236 244.83 125.236ZM253.124 136V123.286H256.296V125.262C256.729 124.534 257.31 123.979 258.038 123.598C258.783 123.217 259.615 123.026 260.534 123.026C263.532 123.026 265.032 124.768 265.032 128.252V136H261.782V128.408C261.782 127.42 261.591 126.701 261.21 126.25C260.846 125.799 260.274 125.574 259.494 125.574C258.54 125.574 257.778 125.877 257.206 126.484C256.651 127.073 256.374 127.862 256.374 128.85V136H253.124ZM272.935 136.26C269.815 136.26 268.255 134.509 268.255 131.008V123.286H271.505V131.06C271.505 131.961 271.687 132.629 272.051 133.062C272.415 133.495 272.995 133.712 273.793 133.712C274.659 133.712 275.37 133.417 275.925 132.828C276.479 132.221 276.757 131.424 276.757 130.436V123.286H280.007V136H276.835V134.102C275.985 135.541 274.685 136.26 272.935 136.26ZM289.655 136.26C288.217 136.26 286.977 135.991 285.937 135.454C284.897 134.917 284.091 134.154 283.519 133.166C282.965 132.178 282.687 131.008 282.687 129.656C282.687 128.339 282.956 127.186 283.493 126.198C284.048 125.21 284.802 124.439 285.755 123.884C286.726 123.312 287.827 123.026 289.057 123.026C290.86 123.026 292.281 123.598 293.321 124.742C294.379 125.886 294.907 127.446 294.907 129.422V130.384H285.807C286.05 132.655 287.35 133.79 289.707 133.79C290.418 133.79 291.129 133.686 291.839 133.478C292.55 133.253 293.2 132.906 293.789 132.438L294.699 134.622C294.093 135.125 293.33 135.523 292.411 135.818C291.493 136.113 290.574 136.26 289.655 136.26ZM289.187 125.236C288.234 125.236 287.463 125.531 286.873 126.12C286.284 126.709 285.929 127.507 285.807 128.512H292.203C292.134 127.455 291.839 126.649 291.319 126.094C290.817 125.522 290.106 125.236 289.187 125.236ZM304.281 120.556V117.384H307.921V120.556H304.281ZM304.489 136V123.286H307.739V136H304.489ZM311.116 136V123.286H314.288V125.262C314.721 124.534 315.302 123.979 316.03 123.598C316.775 123.217 317.607 123.026 318.526 123.026C321.524 123.026 323.024 124.768 323.024 128.252V136H319.774V128.408C319.774 127.42 319.583 126.701 319.202 126.25C318.838 125.799 318.266 125.574 317.486 125.574C316.532 125.574 315.77 125.877 315.198 126.484C314.643 127.073 314.366 127.862 314.366 128.85V136H311.116ZM333.723 136V133.53L339.651 127.212C340.448 126.345 341.02 125.583 341.367 124.924C341.713 124.248 341.887 123.563 341.887 122.87C341.887 121.102 340.821 120.218 338.689 120.218C337.025 120.218 335.491 120.842 334.087 122.09L332.969 119.594C333.697 118.935 334.607 118.407 335.699 118.008C336.791 117.609 337.926 117.41 339.105 117.41C341.063 117.41 342.563 117.852 343.603 118.736C344.66 119.62 345.189 120.885 345.189 122.532C345.189 123.641 344.92 124.707 344.383 125.73C343.863 126.753 343.039 127.853 341.913 129.032L337.883 133.244H345.891V136H333.723ZM355.032 136.26C352.866 136.26 351.21 135.445 350.066 133.816C348.922 132.169 348.35 129.829 348.35 126.796C348.35 123.728 348.922 121.397 350.066 119.802C351.21 118.207 352.866 117.41 355.032 117.41C357.216 117.41 358.872 118.207 359.998 119.802C361.142 121.397 361.714 123.719 361.714 126.77C361.714 129.821 361.142 132.169 359.998 133.816C358.854 135.445 357.199 136.26 355.032 136.26ZM355.032 133.53C356.211 133.53 357.078 132.993 357.632 131.918C358.204 130.826 358.49 129.11 358.49 126.77C358.49 124.447 358.204 122.766 357.632 121.726C357.078 120.669 356.211 120.14 355.032 120.14C353.871 120.14 353.004 120.669 352.432 121.726C351.86 122.766 351.574 124.447 351.574 126.77C351.574 129.11 351.86 130.826 352.432 131.918C353.004 132.993 353.871 133.53 355.032 133.53ZM364.902 136V133.53L370.83 127.212C371.628 126.345 372.2 125.583 372.546 124.924C372.893 124.248 373.066 123.563 373.066 122.87C373.066 121.102 372 120.218 369.868 120.218C368.204 120.218 366.67 120.842 365.266 122.09L364.148 119.594C364.876 118.935 365.786 118.407 366.878 118.008C367.97 117.609 369.106 117.41 370.284 117.41C372.243 117.41 373.742 117.852 374.782 118.736C375.84 119.62 376.368 120.885 376.368 122.532C376.368 123.641 376.1 124.707 375.562 125.73C375.042 126.753 374.219 127.853 373.092 129.032L369.062 133.244H377.07V136H364.902ZM380.492 136V133.53L386.42 127.212C387.217 126.345 387.789 125.583 388.136 124.924C388.483 124.248 388.656 123.563 388.656 122.87C388.656 121.102 387.59 120.218 385.458 120.218C383.794 120.218 382.26 120.842 380.856 122.09L379.738 119.594C380.466 118.935 381.376 118.407 382.468 118.008C383.56 117.609 384.695 117.41 385.874 117.41C387.833 117.41 389.332 117.852 390.372 118.736C391.429 119.62 391.958 120.885 391.958 122.532C391.958 123.641 391.689 124.707 391.152 125.73C390.632 126.753 389.809 127.853 388.682 129.032L384.652 133.244H392.66V136H380.492ZM398.76 130.566V129.526C398.76 128.711 398.907 127.957 399.202 127.264C399.514 126.571 400.034 125.817 400.762 125.002C401.317 124.395 401.698 123.875 401.906 123.442C402.131 123.009 402.244 122.549 402.244 122.064C402.244 121.492 402.036 121.041 401.62 120.712C401.204 120.383 400.615 120.218 399.852 120.218C398.153 120.218 396.585 120.842 395.146 122.09L394.054 119.594C394.782 118.935 395.683 118.407 396.758 118.008C397.85 117.609 398.951 117.41 400.06 117.41C401.152 117.41 402.105 117.592 402.92 117.956C403.752 118.32 404.393 118.823 404.844 119.464C405.312 120.105 405.546 120.859 405.546 121.726C405.546 122.523 405.364 123.269 405 123.962C404.653 124.655 404.029 125.409 403.128 126.224C402.313 126.969 401.75 127.619 401.438 128.174C401.126 128.729 400.927 129.283 400.84 129.838L400.736 130.566H398.76ZM397.928 136V132.386H401.568V136H397.928Z" fill="white"/>
<path d="M116 72.5H560.5V136C560.5 146.77 551.77 155.5 541 155.5H116C105.23 155.5 96.5 146.77 96.5 136V92C96.5 81.2304 105.23 72.5 116 72.5Z" stroke="#9F9EB0"/>
</svg>
