<svg width="561" height="700" viewBox="0 0 561 700" fill="none" xmlns="http://www.w3.org/2000/svg">
<rect x="41" y="1" width="484" height="698" rx="19" fill="#F7F7F8" stroke="#D2D2DC" stroke-width="2"/>
<path d="M116 72.5H560.5V136C560.5 146.77 551.77 155.5 541 155.5H116C105.23 155.5 96.5 146.77 96.5 136V92C96.5 81.2304 105.23 72.5 116 72.5Z" fill="#9F9EB0"/>
<path d="M118.002 110V91.67H124.814C127.882 91.67 130.248 92.4587 131.912 94.036C133.593 95.6133 134.434 97.8753 134.434 100.822C134.434 103.751 133.593 106.013 131.912 107.608C130.248 109.203 127.882 110 124.814 110H118.002ZM121.33 107.244H124.606C128.835 107.244 130.95 105.103 130.95 100.822C130.95 96.558 128.835 94.426 124.606 94.426H121.33V107.244ZM137.287 94.556V91.384H140.927V94.556H137.287ZM137.495 110V97.286H140.745V110H137.495ZM149.01 110.26C147.9 110.26 146.921 109.991 146.072 109.454C145.24 108.917 144.59 108.154 144.122 107.166C143.654 106.161 143.42 104.982 143.42 103.63C143.42 102.261 143.654 101.091 144.122 100.12C144.59 99.132 145.24 98.3693 146.072 97.832C146.921 97.2947 147.9 97.026 149.01 97.026C149.911 97.026 150.726 97.2253 151.454 97.624C152.182 98.0227 152.728 98.5513 153.092 99.21V91.67H156.342V110H153.17V107.894C152.823 108.622 152.277 109.203 151.532 109.636C150.786 110.052 149.946 110.26 149.01 110.26ZM149.92 107.79C150.89 107.79 151.67 107.443 152.26 106.75C152.849 106.039 153.144 104.999 153.144 103.63C153.144 102.243 152.849 101.212 152.26 100.536C151.67 99.8427 150.89 99.496 149.92 99.496C148.949 99.496 148.169 99.8427 147.58 100.536C146.99 101.212 146.696 102.243 146.696 103.63C146.696 104.999 146.99 106.039 147.58 106.75C148.169 107.443 148.949 107.79 149.92 107.79ZM167.031 110V91.67H169.527L179.381 104.462V91.67H182.475V110H180.005L170.125 97.156V110H167.031ZM192.435 110.26C190.996 110.26 189.757 109.991 188.717 109.454C187.677 108.917 186.871 108.154 186.299 107.166C185.744 106.178 185.467 105.008 185.467 103.656C185.467 102.339 185.735 101.186 186.273 100.198C186.827 99.21 187.581 98.4387 188.535 97.884C189.505 97.312 190.606 97.026 191.837 97.026C193.639 97.026 195.061 97.598 196.101 98.742C197.158 99.886 197.687 101.446 197.687 103.422V104.384H188.587C188.829 106.655 190.129 107.79 192.487 107.79C193.197 107.79 193.908 107.686 194.619 107.478C195.329 107.253 195.979 106.906 196.569 106.438L197.479 108.622C196.872 109.125 196.109 109.523 195.191 109.818C194.272 110.113 193.353 110.26 192.435 110.26ZM191.967 99.236C191.013 99.236 190.242 99.5307 189.653 100.12C189.063 100.709 188.708 101.507 188.587 102.512H194.983C194.913 101.455 194.619 100.649 194.099 100.094C193.596 99.522 192.885 99.236 191.967 99.236ZM206.034 110.26C202.671 110.26 200.99 108.596 200.99 105.268V99.73H198.546V97.286H200.99V93.49H204.24V97.286H208.088V99.73H204.24V105.086C204.24 105.918 204.422 106.542 204.786 106.958C205.15 107.374 205.739 107.582 206.554 107.582C206.796 107.582 207.048 107.556 207.308 107.504C207.568 107.435 207.836 107.365 208.114 107.296L208.608 109.688C208.296 109.861 207.897 110 207.412 110.104C206.944 110.208 206.484 110.26 206.034 110.26ZM210.995 110V99.73H208.551V97.286H210.995V97.26C210.995 95.4573 211.463 94.0967 212.399 93.178C213.353 92.2593 214.826 91.7393 216.819 91.618L218.093 91.54L218.301 93.932L217.105 94.01C216.065 94.0793 215.329 94.3393 214.895 94.79C214.462 95.2233 214.245 95.8733 214.245 96.74V97.286H217.703V99.73H214.245V110H210.995ZM224.021 110.26C222.513 110.26 221.395 109.853 220.667 109.038C219.957 108.206 219.601 106.993 219.601 105.398V91.67H222.851V105.242C222.851 106.802 223.51 107.582 224.827 107.582C225.018 107.582 225.209 107.573 225.399 107.556C225.59 107.539 225.772 107.504 225.945 107.452L225.893 110.026C225.269 110.182 224.645 110.26 224.021 110.26ZM227.677 94.556V91.384H231.317V94.556H227.677ZM227.885 110V97.286H231.135V110H227.885ZM232.744 110L238.074 103.422L233.082 97.286H236.878L239.946 101.212L243.014 97.286H246.81L241.792 103.448L247.148 110H243.326L239.92 105.71L236.54 110H232.744ZM261.511 110.26C260.194 110.26 259.05 109.991 258.079 109.454C257.109 108.917 256.355 108.154 255.817 107.166C255.28 106.161 255.011 104.982 255.011 103.63C255.011 102.278 255.28 101.108 255.817 100.12C256.355 99.132 257.109 98.3693 258.079 97.832C259.05 97.2947 260.194 97.026 261.511 97.026C262.829 97.026 263.973 97.2947 264.943 97.832C265.914 98.3693 266.668 99.132 267.205 100.12C267.743 101.108 268.011 102.278 268.011 103.63C268.011 104.982 267.743 106.161 267.205 107.166C266.668 108.154 265.914 108.917 264.943 109.454C263.973 109.991 262.829 110.26 261.511 110.26ZM261.511 107.79C262.482 107.79 263.262 107.443 263.851 106.75C264.441 106.039 264.735 104.999 264.735 103.63C264.735 102.243 264.441 101.212 263.851 100.536C263.262 99.8427 262.482 99.496 261.511 99.496C260.541 99.496 259.761 99.8427 259.171 100.536C258.582 101.212 258.287 102.243 258.287 103.63C258.287 104.999 258.582 106.039 259.171 106.75C259.761 107.443 260.541 107.79 261.511 107.79ZM270.694 110V97.286H273.866V99.522C274.49 98.014 275.825 97.182 277.87 97.026L278.858 96.948L279.066 99.704L277.194 99.886C275.062 100.094 273.996 101.186 273.996 103.162V110H270.694ZM297.009 110.26C294.981 110.26 293.265 109.879 291.861 109.116C290.475 108.353 289.417 107.27 288.689 105.866C287.961 104.462 287.597 102.798 287.597 100.874C287.597 98.9327 287.97 97.26 288.715 95.856C289.461 94.4347 290.535 93.3427 291.939 92.58C293.343 91.8 295.025 91.41 296.983 91.41C298.266 91.41 299.471 91.6007 300.597 91.982C301.724 92.346 302.66 92.8573 303.405 93.516L302.287 96.116C301.473 95.4747 300.641 95.0153 299.791 94.738C298.942 94.4607 298.006 94.322 296.983 94.322C295.042 94.322 293.569 94.8853 292.563 96.012C291.575 97.1387 291.081 98.7593 291.081 100.874C291.081 103.006 291.593 104.627 292.615 105.736C293.638 106.845 295.155 107.4 297.165 107.4C297.737 107.4 298.318 107.357 298.907 107.27C299.514 107.166 300.112 107.019 300.701 106.828V102.564H296.489V100.094H303.483V108.908C302.634 109.324 301.629 109.653 300.467 109.896C299.306 110.139 298.153 110.26 297.009 110.26ZM312.826 110.26C311.509 110.26 310.365 109.991 309.394 109.454C308.423 108.917 307.669 108.154 307.132 107.166C306.595 106.161 306.326 104.982 306.326 103.63C306.326 102.278 306.595 101.108 307.132 100.12C307.669 99.132 308.423 98.3693 309.394 97.832C310.365 97.2947 311.509 97.026 312.826 97.026C314.143 97.026 315.287 97.2947 316.258 97.832C317.229 98.3693 317.983 99.132 318.52 100.12C319.057 101.108 319.326 102.278 319.326 103.63C319.326 104.982 319.057 106.161 318.52 107.166C317.983 108.154 317.229 108.917 316.258 109.454C315.287 109.991 314.143 110.26 312.826 110.26ZM312.826 107.79C313.797 107.79 314.577 107.443 315.166 106.75C315.755 106.039 316.05 104.999 316.05 103.63C316.05 102.243 315.755 101.212 315.166 100.536C314.577 99.8427 313.797 99.496 312.826 99.496C311.855 99.496 311.075 99.8427 310.486 100.536C309.897 101.212 309.602 102.243 309.602 103.63C309.602 104.999 309.897 106.039 310.486 106.75C311.075 107.443 311.855 107.79 312.826 107.79ZM327.806 110.26C326.489 110.26 325.345 109.991 324.374 109.454C323.404 108.917 322.65 108.154 322.112 107.166C321.575 106.161 321.306 104.982 321.306 103.63C321.306 102.278 321.575 101.108 322.112 100.12C322.65 99.132 323.404 98.3693 324.374 97.832C325.345 97.2947 326.489 97.026 327.806 97.026C329.124 97.026 330.268 97.2947 331.238 97.832C332.209 98.3693 332.963 99.132 333.5 100.12C334.038 101.108 334.306 102.278 334.306 103.63C334.306 104.982 334.038 106.161 333.5 107.166C332.963 108.154 332.209 108.917 331.238 109.454C330.268 109.991 329.124 110.26 327.806 110.26ZM327.806 107.79C328.777 107.79 329.557 107.443 330.146 106.75C330.736 106.039 331.03 104.999 331.03 103.63C331.03 102.243 330.736 101.212 330.146 100.536C329.557 99.8427 328.777 99.496 327.806 99.496C326.836 99.496 326.056 99.8427 325.466 100.536C324.877 101.212 324.582 102.243 324.582 103.63C324.582 104.999 324.877 106.039 325.466 106.75C326.056 107.443 326.836 107.79 327.806 107.79ZM342.917 114.94C341.738 114.94 340.629 114.801 339.589 114.524C338.566 114.264 337.665 113.857 336.885 113.302L337.821 111.04C338.549 111.525 339.329 111.881 340.161 112.106C340.993 112.349 341.825 112.47 342.657 112.47C344.979 112.47 346.141 111.352 346.141 109.116V107.374C345.777 108.085 345.213 108.648 344.451 109.064C343.705 109.48 342.873 109.688 341.955 109.688C340.811 109.688 339.814 109.428 338.965 108.908C338.115 108.371 337.457 107.625 336.989 106.672C336.521 105.719 336.287 104.609 336.287 103.344C336.287 102.079 336.521 100.978 336.989 100.042C337.457 99.0887 338.115 98.352 338.965 97.832C339.814 97.2947 340.811 97.026 341.955 97.026C342.908 97.026 343.757 97.2427 344.503 97.676C345.248 98.092 345.794 98.6553 346.141 99.366V97.286H349.313V108.726C349.313 110.789 348.767 112.34 347.675 113.38C346.583 114.42 344.997 114.94 342.917 114.94ZM342.839 107.218C343.844 107.218 344.641 106.871 345.231 106.178C345.82 105.485 346.115 104.54 346.115 103.344C346.115 102.148 345.82 101.212 345.231 100.536C344.641 99.8427 343.844 99.496 342.839 99.496C341.833 99.496 341.036 99.8427 340.447 100.536C339.857 101.212 339.563 102.148 339.563 103.344C339.563 104.54 339.857 105.485 340.447 106.178C341.036 106.871 341.833 107.218 342.839 107.218ZM357.1 110.26C355.592 110.26 354.474 109.853 353.746 109.038C353.036 108.206 352.68 106.993 352.68 105.398V91.67H355.93V105.242C355.93 106.802 356.589 107.582 357.906 107.582C358.097 107.582 358.288 107.573 358.478 107.556C358.669 107.539 358.851 107.504 359.024 107.452L358.972 110.026C358.348 110.182 357.724 110.26 357.1 110.26ZM367.122 110.26C365.683 110.26 364.444 109.991 363.404 109.454C362.364 108.917 361.558 108.154 360.986 107.166C360.431 106.178 360.154 105.008 360.154 103.656C360.154 102.339 360.423 101.186 360.96 100.198C361.515 99.21 362.269 98.4387 363.222 97.884C364.193 97.312 365.293 97.026 366.524 97.026C368.327 97.026 369.748 97.598 370.788 98.742C371.845 99.886 372.374 101.446 372.374 103.422V104.384H363.274C363.517 106.655 364.817 107.79 367.174 107.79C367.885 107.79 368.595 107.686 369.306 107.478C370.017 107.253 370.667 106.906 371.256 106.438L372.166 108.622C371.559 109.125 370.797 109.523 369.878 109.818C368.959 110.113 368.041 110.26 367.122 110.26ZM366.654 99.236C365.701 99.236 364.929 99.5307 364.34 100.12C363.751 100.709 363.395 101.507 363.274 102.512H369.67C369.601 101.455 369.306 100.649 368.786 100.094C368.283 99.522 367.573 99.236 366.654 99.236ZM381.956 110V91.67H385.206V99.132C385.639 98.4387 386.22 97.9187 386.948 97.572C387.676 97.208 388.482 97.026 389.366 97.026C392.364 97.026 393.864 98.768 393.864 102.252V110H390.614V102.408C390.614 101.42 390.423 100.701 390.042 100.25C389.678 99.7993 389.106 99.574 388.326 99.574C387.372 99.574 386.61 99.8773 386.038 100.484C385.483 101.073 385.206 101.862 385.206 102.85V110H381.956ZM401.351 110.26C400.432 110.26 399.609 110.087 398.881 109.74C398.17 109.376 397.607 108.891 397.191 108.284C396.792 107.677 396.593 106.993 396.593 106.23C396.593 105.294 396.835 104.557 397.321 104.02C397.806 103.465 398.595 103.067 399.687 102.824C400.779 102.581 402.243 102.46 404.081 102.46H404.991V101.914C404.991 101.047 404.8 100.423 404.419 100.042C404.037 99.6607 403.396 99.47 402.495 99.47C401.784 99.47 401.056 99.5827 400.311 99.808C399.565 100.016 398.811 100.345 398.049 100.796L397.113 98.586C397.563 98.274 398.092 98.0053 398.699 97.78C399.323 97.5373 399.973 97.3553 400.649 97.234C401.342 97.0953 401.992 97.026 402.599 97.026C404.453 97.026 405.831 97.4593 406.733 98.326C407.634 99.1753 408.085 100.501 408.085 102.304V110H405.043V107.972C404.748 108.683 404.28 109.246 403.639 109.662C402.997 110.061 402.235 110.26 401.351 110.26ZM402.027 108.024C402.876 108.024 403.578 107.729 404.133 107.14C404.705 106.551 404.991 105.805 404.991 104.904V104.332H404.107C402.477 104.332 401.342 104.462 400.701 104.722C400.077 104.965 399.765 105.415 399.765 106.074C399.765 106.646 399.964 107.114 400.363 107.478C400.761 107.842 401.316 108.024 402.027 108.024ZM415 110L409.488 97.286H412.946L416.482 106.178L420.148 97.286H423.398L417.808 110H415ZM430.979 110.26C429.541 110.26 428.301 109.991 427.261 109.454C426.221 108.917 425.415 108.154 424.843 107.166C424.289 106.178 424.011 105.008 424.011 103.656C424.011 102.339 424.28 101.186 424.817 100.198C425.372 99.21 426.126 98.4387 427.079 97.884C428.05 97.312 429.151 97.026 430.381 97.026C432.184 97.026 433.605 97.598 434.645 98.742C435.703 99.886 436.231 101.446 436.231 103.422V104.384H427.131C427.374 106.655 428.674 107.79 431.031 107.79C431.742 107.79 432.453 107.686 433.163 107.478C433.874 107.253 434.524 106.906 435.113 106.438L436.023 108.622C435.417 109.125 434.654 109.523 433.735 109.818C432.817 110.113 431.898 110.26 430.979 110.26ZM430.511 99.236C429.558 99.236 428.787 99.5307 428.197 100.12C427.608 100.709 427.253 101.507 427.131 102.512H433.527C433.458 101.455 433.163 100.649 432.643 100.094C432.141 99.522 431.43 99.236 430.511 99.236ZM451.637 110.26C448.274 110.26 446.593 108.596 446.593 105.268V99.73H444.149V97.286H446.593V93.49H449.843V97.286H453.691V99.73H449.843V105.086C449.843 105.918 450.025 106.542 450.389 106.958C450.753 107.374 451.342 107.582 452.157 107.582C452.4 107.582 452.651 107.556 452.911 107.504C453.171 107.435 453.44 107.365 453.717 107.296L454.211 109.688C453.899 109.861 453.5 110 453.015 110.104C452.547 110.208 452.088 110.26 451.637 110.26ZM455.792 110V91.67H459.042V99.132C459.475 98.4387 460.056 97.9187 460.784 97.572C461.512 97.208 462.318 97.026 463.202 97.026C466.2 97.026 467.7 98.768 467.7 102.252V110H464.45V102.408C464.45 101.42 464.259 100.701 463.878 100.25C463.514 99.7993 462.942 99.574 462.162 99.574C461.208 99.574 460.446 99.8773 459.874 100.484C459.319 101.073 459.042 101.862 459.042 102.85V110H455.792ZM477.267 110.26C475.828 110.26 474.589 109.991 473.549 109.454C472.509 108.917 471.703 108.154 471.131 107.166C470.576 106.178 470.299 105.008 470.299 103.656C470.299 102.339 470.567 101.186 471.105 100.198C471.659 99.21 472.413 98.4387 473.367 97.884C474.337 97.312 475.438 97.026 476.669 97.026C478.471 97.026 479.893 97.598 480.933 98.742C481.99 99.886 482.519 101.446 482.519 103.422V104.384H473.419C473.661 106.655 474.961 107.79 477.319 107.79C478.029 107.79 478.74 107.686 479.451 107.478C480.161 107.253 480.811 106.906 481.401 106.438L482.311 108.622C481.704 109.125 480.941 109.523 480.023 109.818C479.104 110.113 478.185 110.26 477.267 110.26ZM476.799 99.236C475.845 99.236 475.074 99.5307 474.485 100.12C473.895 100.709 473.54 101.507 473.419 102.512H479.815C479.745 101.455 479.451 100.649 478.931 100.094C478.428 99.522 477.717 99.236 476.799 99.236ZM117.69 136V117.67H120.94V125.132C121.373 124.439 121.954 123.919 122.682 123.572C123.41 123.208 124.216 123.026 125.1 123.026C128.099 123.026 129.598 124.768 129.598 128.252V136H126.348V128.408C126.348 127.42 126.157 126.701 125.776 126.25C125.412 125.799 124.84 125.574 124.06 125.574C123.107 125.574 122.344 125.877 121.772 126.484C121.217 127.073 120.94 127.862 120.94 128.85V136H117.69ZM132.691 120.556V117.384H136.331V120.556H132.691ZM132.899 136V123.286H136.149V136H132.899ZM145.454 140.94C144.275 140.94 143.166 140.801 142.126 140.524C141.103 140.264 140.202 139.857 139.422 139.302L140.358 137.04C141.086 137.525 141.866 137.881 142.698 138.106C143.53 138.349 144.362 138.47 145.194 138.47C147.517 138.47 148.678 137.352 148.678 135.116V133.374C148.314 134.085 147.751 134.648 146.988 135.064C146.243 135.48 145.411 135.688 144.492 135.688C143.348 135.688 142.351 135.428 141.502 134.908C140.653 134.371 139.994 133.625 139.526 132.672C139.058 131.719 138.824 130.609 138.824 129.344C138.824 128.079 139.058 126.978 139.526 126.042C139.994 125.089 140.653 124.352 141.502 123.832C142.351 123.295 143.348 123.026 144.492 123.026C145.445 123.026 146.295 123.243 147.04 123.676C147.785 124.092 148.331 124.655 148.678 125.366V123.286H151.85V134.726C151.85 136.789 151.304 138.34 150.212 139.38C149.12 140.42 147.534 140.94 145.454 140.94ZM145.376 133.218C146.381 133.218 147.179 132.871 147.768 132.178C148.357 131.485 148.652 130.54 148.652 129.344C148.652 128.148 148.357 127.212 147.768 126.536C147.179 125.843 146.381 125.496 145.376 125.496C144.371 125.496 143.573 125.843 142.984 126.536C142.395 127.212 142.1 128.148 142.1 129.344C142.1 130.54 142.395 131.485 142.984 132.178C143.573 132.871 144.371 133.218 145.376 133.218ZM155.217 136V117.67H158.467V125.132C158.901 124.439 159.481 123.919 160.209 123.572C160.937 123.208 161.743 123.026 162.627 123.026C165.626 123.026 167.125 124.768 167.125 128.252V136H163.875V128.408C163.875 127.42 163.685 126.701 163.303 126.25C162.939 125.799 162.367 125.574 161.587 125.574C160.634 125.574 159.871 125.877 159.299 126.484C158.745 127.073 158.467 127.862 158.467 128.85V136H155.217ZM176.692 136.26C175.254 136.26 174.014 135.991 172.974 135.454C171.934 134.917 171.128 134.154 170.556 133.166C170.002 132.178 169.724 131.008 169.724 129.656C169.724 128.339 169.993 127.186 170.53 126.198C171.085 125.21 171.839 124.439 172.792 123.884C173.763 123.312 174.864 123.026 176.094 123.026C177.897 123.026 179.318 123.598 180.358 124.742C181.416 125.886 181.944 127.446 181.944 129.422V130.384H172.844C173.087 132.655 174.387 133.79 176.744 133.79C177.455 133.79 178.166 133.686 178.876 133.478C179.587 133.253 180.237 132.906 180.826 132.438L181.736 134.622C181.13 135.125 180.367 135.523 179.448 135.818C178.53 136.113 177.611 136.26 176.692 136.26ZM176.224 125.236C175.271 125.236 174.5 125.531 173.91 126.12C173.321 126.709 172.966 127.507 172.844 128.512H179.24C179.171 127.455 178.876 126.649 178.356 126.094C177.854 125.522 177.143 125.236 176.224 125.236ZM184.518 136V123.286H187.69V125.522C188.314 124.014 189.649 123.182 191.694 123.026L192.682 122.948L192.89 125.704L191.018 125.886C188.886 126.094 187.82 127.186 187.82 129.162V136H184.518ZM201.708 136V123.286H204.88V125.522C205.504 124.014 206.838 123.182 208.884 123.026L209.872 122.948L210.08 125.704L208.208 125.886C206.076 126.094 205.01 127.186 205.01 129.162V136H201.708ZM217.952 136.26C216.513 136.26 215.274 135.991 214.234 135.454C213.194 134.917 212.388 134.154 211.816 133.166C211.261 132.178 210.984 131.008 210.984 129.656C210.984 128.339 211.253 127.186 211.79 126.198C212.345 125.21 213.099 124.439 214.052 123.884C215.023 123.312 216.123 123.026 217.354 123.026C219.157 123.026 220.578 123.598 221.618 124.742C222.675 125.886 223.204 127.446 223.204 129.422V130.384H214.104C214.347 132.655 215.647 133.79 218.004 133.79C218.715 133.79 219.425 133.686 220.136 133.478C220.847 133.253 221.497 132.906 222.086 132.438L222.996 134.622C222.389 135.125 221.627 135.523 220.708 135.818C219.789 136.113 218.871 136.26 217.952 136.26ZM217.484 125.236C216.531 125.236 215.759 125.531 215.17 126.12C214.581 126.709 214.225 127.507 214.104 128.512H220.5C220.431 127.455 220.136 126.649 219.616 126.094C219.113 125.522 218.403 125.236 217.484 125.236ZM229.319 136L223.807 123.286H227.265L230.801 132.178L234.467 123.286H237.717L232.127 136H229.319ZM245.298 136.26C243.859 136.26 242.62 135.991 241.58 135.454C240.54 134.917 239.734 134.154 239.162 133.166C238.607 132.178 238.33 131.008 238.33 129.656C238.33 128.339 238.598 127.186 239.136 126.198C239.69 125.21 240.444 124.439 241.398 123.884C242.368 123.312 243.469 123.026 244.7 123.026C246.502 123.026 247.924 123.598 248.964 124.742C250.021 125.886 250.55 127.446 250.55 129.422V130.384H241.45C241.692 132.655 242.992 133.79 245.35 133.79C246.06 133.79 246.771 133.686 247.482 133.478C248.192 133.253 248.842 132.906 249.432 132.438L250.342 134.622C249.735 135.125 248.972 135.523 248.054 135.818C247.135 136.113 246.216 136.26 245.298 136.26ZM244.83 125.236C243.876 125.236 243.105 125.531 242.516 126.12C241.926 126.709 241.571 127.507 241.45 128.512H247.846C247.776 127.455 247.482 126.649 246.962 126.094C246.459 125.522 245.748 125.236 244.83 125.236ZM253.124 136V123.286H256.296V125.262C256.729 124.534 257.31 123.979 258.038 123.598C258.783 123.217 259.615 123.026 260.534 123.026C263.532 123.026 265.032 124.768 265.032 128.252V136H261.782V128.408C261.782 127.42 261.591 126.701 261.21 126.25C260.846 125.799 260.274 125.574 259.494 125.574C258.54 125.574 257.778 125.877 257.206 126.484C256.651 127.073 256.374 127.862 256.374 128.85V136H253.124ZM272.935 136.26C269.815 136.26 268.255 134.509 268.255 131.008V123.286H271.505V131.06C271.505 131.961 271.687 132.629 272.051 133.062C272.415 133.495 272.995 133.712 273.793 133.712C274.659 133.712 275.37 133.417 275.925 132.828C276.479 132.221 276.757 131.424 276.757 130.436V123.286H280.007V136H276.835V134.102C275.985 135.541 274.685 136.26 272.935 136.26ZM289.655 136.26C288.217 136.26 286.977 135.991 285.937 135.454C284.897 134.917 284.091 134.154 283.519 133.166C282.965 132.178 282.687 131.008 282.687 129.656C282.687 128.339 282.956 127.186 283.493 126.198C284.048 125.21 284.802 124.439 285.755 123.884C286.726 123.312 287.827 123.026 289.057 123.026C290.86 123.026 292.281 123.598 293.321 124.742C294.379 125.886 294.907 127.446 294.907 129.422V130.384H285.807C286.05 132.655 287.35 133.79 289.707 133.79C290.418 133.79 291.129 133.686 291.839 133.478C292.55 133.253 293.2 132.906 293.789 132.438L294.699 134.622C294.093 135.125 293.33 135.523 292.411 135.818C291.493 136.113 290.574 136.26 289.655 136.26ZM289.187 125.236C288.234 125.236 287.463 125.531 286.873 126.12C286.284 126.709 285.929 127.507 285.807 128.512H292.203C292.134 127.455 291.839 126.649 291.319 126.094C290.817 125.522 290.106 125.236 289.187 125.236ZM304.281 120.556V117.384H307.921V120.556H304.281ZM304.489 136V123.286H307.739V136H304.489ZM311.116 136V123.286H314.288V125.262C314.721 124.534 315.302 123.979 316.03 123.598C316.775 123.217 317.607 123.026 318.526 123.026C321.524 123.026 323.024 124.768 323.024 128.252V136H319.774V128.408C319.774 127.42 319.583 126.701 319.202 126.25C318.838 125.799 318.266 125.574 317.486 125.574C316.532 125.574 315.77 125.877 315.198 126.484C314.643 127.073 314.366 127.862 314.366 128.85V136H311.116ZM333.723 136V133.53L339.651 127.212C340.448 126.345 341.02 125.583 341.367 124.924C341.713 124.248 341.887 123.563 341.887 122.87C341.887 121.102 340.821 120.218 338.689 120.218C337.025 120.218 335.491 120.842 334.087 122.09L332.969 119.594C333.697 118.935 334.607 118.407 335.699 118.008C336.791 117.609 337.926 117.41 339.105 117.41C341.063 117.41 342.563 117.852 343.603 118.736C344.66 119.62 345.189 120.885 345.189 122.532C345.189 123.641 344.92 124.707 344.383 125.73C343.863 126.753 343.039 127.853 341.913 129.032L337.883 133.244H345.891V136H333.723ZM355.032 136.26C352.866 136.26 351.21 135.445 350.066 133.816C348.922 132.169 348.35 129.829 348.35 126.796C348.35 123.728 348.922 121.397 350.066 119.802C351.21 118.207 352.866 117.41 355.032 117.41C357.216 117.41 358.872 118.207 359.998 119.802C361.142 121.397 361.714 123.719 361.714 126.77C361.714 129.821 361.142 132.169 359.998 133.816C358.854 135.445 357.199 136.26 355.032 136.26ZM355.032 133.53C356.211 133.53 357.078 132.993 357.632 131.918C358.204 130.826 358.49 129.11 358.49 126.77C358.49 124.447 358.204 122.766 357.632 121.726C357.078 120.669 356.211 120.14 355.032 120.14C353.871 120.14 353.004 120.669 352.432 121.726C351.86 122.766 351.574 124.447 351.574 126.77C351.574 129.11 351.86 130.826 352.432 131.918C353.004 132.993 353.871 133.53 355.032 133.53ZM364.902 136V133.53L370.83 127.212C371.628 126.345 372.2 125.583 372.546 124.924C372.893 124.248 373.066 123.563 373.066 122.87C373.066 121.102 372 120.218 369.868 120.218C368.204 120.218 366.67 120.842 365.266 122.09L364.148 119.594C364.876 118.935 365.786 118.407 366.878 118.008C367.97 117.609 369.106 117.41 370.284 117.41C372.243 117.41 373.742 117.852 374.782 118.736C375.84 119.62 376.368 120.885 376.368 122.532C376.368 123.641 376.1 124.707 375.562 125.73C375.042 126.753 374.219 127.853 373.092 129.032L369.062 133.244H377.07V136H364.902ZM380.492 136V133.53L386.42 127.212C387.217 126.345 387.789 125.583 388.136 124.924C388.483 124.248 388.656 123.563 388.656 122.87C388.656 121.102 387.59 120.218 385.458 120.218C383.794 120.218 382.26 120.842 380.856 122.09L379.738 119.594C380.466 118.935 381.376 118.407 382.468 118.008C383.56 117.609 384.695 117.41 385.874 117.41C387.833 117.41 389.332 117.852 390.372 118.736C391.429 119.62 391.958 120.885 391.958 122.532C391.958 123.641 391.689 124.707 391.152 125.73C390.632 126.753 389.809 127.853 388.682 129.032L384.652 133.244H392.66V136H380.492ZM398.76 130.566V129.526C398.76 128.711 398.907 127.957 399.202 127.264C399.514 126.571 400.034 125.817 400.762 125.002C401.317 124.395 401.698 123.875 401.906 123.442C402.131 123.009 402.244 122.549 402.244 122.064C402.244 121.492 402.036 121.041 401.62 120.712C401.204 120.383 400.615 120.218 399.852 120.218C398.153 120.218 396.585 120.842 395.146 122.09L394.054 119.594C394.782 118.935 395.683 118.407 396.758 118.008C397.85 117.609 398.951 117.41 400.06 117.41C401.152 117.41 402.105 117.592 402.92 117.956C403.752 118.32 404.393 118.823 404.844 119.464C405.312 120.105 405.546 120.859 405.546 121.726C405.546 122.523 405.364 123.269 405 123.962C404.653 124.655 404.029 125.409 403.128 126.224C402.313 126.969 401.75 127.619 401.438 128.174C401.126 128.729 400.927 129.283 400.84 129.838L400.736 130.566H398.76ZM397.928 136V132.386H401.568V136H397.928Z" fill="white"/>
<path d="M116 72.5H560.5V136C560.5 146.77 551.77 155.5 541 155.5H116C105.23 155.5 96.5 146.77 96.5 136V92C96.5 81.2304 105.23 72.5 116 72.5Z" stroke="#9F9EB0"/>
<path d="M275 200H1V237C1 247.493 9.50659 256 20 256H275C285.493 256 294 247.493 294 237V219C294 208.507 285.493 200 275 200Z" fill="white"/>
<path d="M35.184 242.538L32.662 238.456C32.1593 237.659 31.336 237.26 30.192 237.26C28.424 237.26 26.8813 236.87 25.564 236.09C24.2467 235.31 23.224 234.218 22.496 232.814C21.768 231.393 21.404 229.729 21.404 227.822C21.404 225.898 21.768 224.234 22.496 222.83C23.224 221.426 24.2467 220.343 25.564 219.58C26.8813 218.8 28.4327 218.41 30.218 218.41C32.0033 218.41 33.5547 218.8 34.872 219.58C36.1893 220.343 37.212 221.426 37.94 222.83C38.668 224.234 39.032 225.889 39.032 227.796C39.032 229.876 38.5987 231.661 37.732 233.152C36.8827 234.643 35.704 235.735 34.196 236.428C34.9413 236.671 35.5827 237.251 36.12 238.17L38.018 241.186L35.184 242.538ZM30.218 234.4C31.8993 234.4 33.208 233.819 34.144 232.658C35.08 231.497 35.548 229.885 35.548 227.822C35.548 225.742 35.08 224.13 34.144 222.986C33.2253 221.842 31.9167 221.27 30.218 221.27C28.5367 221.27 27.228 221.842 26.292 222.986C25.356 224.13 24.888 225.742 24.888 227.822C24.888 229.885 25.356 231.497 26.292 232.658C27.228 233.819 28.5367 234.4 30.218 234.4ZM46.7061 237.26C43.5861 237.26 42.0261 235.509 42.0261 232.008V224.286H45.2761V232.06C45.2761 232.961 45.4581 233.629 45.8221 234.062C46.1861 234.495 46.7667 234.712 47.5641 234.712C48.4307 234.712 49.1414 234.417 49.6961 233.828C50.2507 233.221 50.5281 232.424 50.5281 231.436V224.286H53.7781V237H50.6061V235.102C49.7567 236.541 48.4567 237.26 46.7061 237.26ZM63.4267 237.26C61.988 237.26 60.7487 236.991 59.7087 236.454C58.6687 235.917 57.8627 235.154 57.2907 234.166C56.736 233.178 56.4587 232.008 56.4587 230.656C56.4587 229.339 56.7274 228.186 57.2647 227.198C57.8194 226.21 58.5734 225.439 59.5267 224.884C60.4974 224.312 61.598 224.026 62.8287 224.026C64.6314 224.026 66.0527 224.598 67.0927 225.742C68.15 226.886 68.6787 228.446 68.6787 230.422V231.384H59.5787C59.8214 233.655 61.1214 234.79 63.4787 234.79C64.1894 234.79 64.9 234.686 65.6107 234.478C66.3214 234.253 66.9714 233.906 67.5607 233.438L68.4707 235.622C67.864 236.125 67.1014 236.523 66.1827 236.818C65.264 237.113 64.3454 237.26 63.4267 237.26ZM62.9587 226.236C62.0054 226.236 61.234 226.531 60.6447 227.12C60.0554 227.709 59.7 228.507 59.5787 229.512H65.9747C65.9054 228.455 65.6107 227.649 65.0907 227.094C64.588 226.522 63.8774 226.236 62.9587 226.236ZM75.9065 237.26C74.8318 237.26 73.8265 237.13 72.8905 236.87C71.9545 236.61 71.1745 236.237 70.5505 235.752L71.3825 233.62C72.0238 234.053 72.7432 234.391 73.5405 234.634C74.3378 234.859 75.1352 234.972 75.9325 234.972C76.7645 234.972 77.3798 234.833 77.7785 234.556C78.1945 234.261 78.4025 233.88 78.4025 233.412C78.4025 232.684 77.8652 232.216 76.7905 232.008L74.1905 231.514C71.9892 231.098 70.8885 229.954 70.8885 228.082C70.8885 227.25 71.1138 226.531 71.5645 225.924C72.0325 225.317 72.6738 224.849 73.4885 224.52C74.3032 224.191 75.2392 224.026 76.2965 224.026C77.1978 224.026 78.0645 224.156 78.8965 224.416C79.7285 224.659 80.4392 225.031 81.0285 225.534L80.1445 227.666C79.6418 227.25 79.0352 226.921 78.3245 226.678C77.6312 226.435 76.9638 226.314 76.3225 226.314C75.4732 226.314 74.8405 226.461 74.4245 226.756C74.0258 227.051 73.8265 227.441 73.8265 227.926C73.8265 228.689 74.3205 229.157 75.3085 229.33L77.9085 229.824C79.0352 230.032 79.8845 230.413 80.4565 230.968C81.0458 231.523 81.3405 232.268 81.3405 233.204C81.3405 234.469 80.8465 235.466 79.8585 236.194C78.8705 236.905 77.5532 237.26 75.9065 237.26ZM89.6449 237.26C86.2822 237.26 84.6009 235.596 84.6009 232.268V226.73H82.1569V224.286H84.6009V220.49H87.8509V224.286H91.6989V226.73H87.8509V232.086C87.8509 232.918 88.0329 233.542 88.3969 233.958C88.7609 234.374 89.3502 234.582 90.1649 234.582C90.4075 234.582 90.6589 234.556 90.9189 234.504C91.1789 234.435 91.4475 234.365 91.7249 234.296L92.2189 236.688C91.9069 236.861 91.5082 237 91.0229 237.104C90.5549 237.208 90.0955 237.26 89.6449 237.26ZM93.5914 221.556V218.384H97.2314V221.556H93.5914ZM93.7994 237V224.286H97.0494V237H93.7994ZM106.224 237.26C104.907 237.26 103.763 236.991 102.792 236.454C101.822 235.917 101.068 235.154 100.53 234.166C99.993 233.161 99.7243 231.982 99.7243 230.63C99.7243 229.278 99.993 228.108 100.53 227.12C101.068 226.132 101.822 225.369 102.792 224.832C103.763 224.295 104.907 224.026 106.224 224.026C107.542 224.026 108.686 224.295 109.656 224.832C110.627 225.369 111.381 226.132 111.918 227.12C112.456 228.108 112.724 229.278 112.724 230.63C112.724 231.982 112.456 233.161 111.918 234.166C111.381 235.154 110.627 235.917 109.656 236.454C108.686 236.991 107.542 237.26 106.224 237.26ZM106.224 234.79C107.195 234.79 107.975 234.443 108.564 233.75C109.154 233.039 109.448 231.999 109.448 230.63C109.448 229.243 109.154 228.212 108.564 227.536C107.975 226.843 107.195 226.496 106.224 226.496C105.254 226.496 104.474 226.843 103.884 227.536C103.295 228.212 103 229.243 103 230.63C103 231.999 103.295 233.039 103.884 233.75C104.474 234.443 105.254 234.79 106.224 234.79ZM115.407 237V224.286H118.579V226.262C119.012 225.534 119.593 224.979 120.321 224.598C121.066 224.217 121.898 224.026 122.817 224.026C125.815 224.026 127.315 225.768 127.315 229.252V237H124.065V229.408C124.065 228.42 123.874 227.701 123.493 227.25C123.129 226.799 122.557 226.574 121.777 226.574C120.823 226.574 120.061 226.877 119.489 227.484C118.934 228.073 118.657 228.862 118.657 229.85V237H115.407ZM137.624 237V224.286H140.796V226.522C141.42 225.014 142.754 224.182 144.8 224.026L145.788 223.948L145.996 226.704L144.124 226.886C141.992 227.094 140.926 228.186 140.926 230.162V237H137.624ZM153.868 237.26C152.429 237.26 151.19 236.991 150.15 236.454C149.11 235.917 148.304 235.154 147.732 234.166C147.177 233.178 146.9 232.008 146.9 230.656C146.9 229.339 147.169 228.186 147.706 227.198C148.261 226.21 149.015 225.439 149.968 224.884C150.939 224.312 152.039 224.026 153.27 224.026C155.073 224.026 156.494 224.598 157.534 225.742C158.591 226.886 159.12 228.446 159.12 230.422V231.384H150.02C150.263 233.655 151.563 234.79 153.92 234.79C154.631 234.79 155.341 234.686 156.052 234.478C156.763 234.253 157.413 233.906 158.002 233.438L158.912 235.622C158.305 236.125 157.543 236.523 156.624 236.818C155.705 237.113 154.787 237.26 153.868 237.26ZM153.4 226.236C152.447 226.236 151.675 226.531 151.086 227.12C150.497 227.709 150.141 228.507 150.02 229.512H156.416C156.347 228.455 156.052 227.649 155.532 227.094C155.029 226.522 154.319 226.236 153.4 226.236ZM167.57 237.26C166.235 237.26 165.074 236.991 164.086 236.454C163.098 235.899 162.335 235.119 161.798 234.114C161.261 233.109 160.992 231.93 160.992 230.578C160.992 229.226 161.261 228.065 161.798 227.094C162.335 226.106 163.098 225.352 164.086 224.832C165.074 224.295 166.235 224.026 167.57 224.026C168.385 224.026 169.191 224.156 169.988 224.416C170.785 224.676 171.444 225.04 171.964 225.508L171.002 227.77C170.551 227.371 170.04 227.068 169.468 226.86C168.913 226.652 168.376 226.548 167.856 226.548C166.729 226.548 165.854 226.903 165.23 227.614C164.623 228.307 164.32 229.304 164.32 230.604C164.32 231.887 164.623 232.901 165.23 233.646C165.854 234.374 166.729 234.738 167.856 234.738C168.359 234.738 168.896 234.634 169.468 234.426C170.04 234.218 170.551 233.906 171.002 233.49L171.964 235.778C171.444 236.229 170.777 236.593 169.962 236.87C169.165 237.13 168.367 237.26 167.57 237.26ZM179.97 237.26C178.531 237.26 177.292 236.991 176.252 236.454C175.212 235.917 174.406 235.154 173.834 234.166C173.279 233.178 173.002 232.008 173.002 230.656C173.002 229.339 173.27 228.186 173.808 227.198C174.362 226.21 175.116 225.439 176.07 224.884C177.04 224.312 178.141 224.026 179.372 224.026C181.174 224.026 182.596 224.598 183.636 225.742C184.693 226.886 185.222 228.446 185.222 230.422V231.384H176.122C176.364 233.655 177.664 234.79 180.022 234.79C180.732 234.79 181.443 234.686 182.154 234.478C182.864 234.253 183.514 233.906 184.104 233.438L185.014 235.622C184.407 236.125 183.644 236.523 182.726 236.818C181.807 237.113 180.888 237.26 179.97 237.26ZM179.502 226.236C178.548 226.236 177.777 226.531 177.188 227.12C176.598 227.709 176.243 228.507 176.122 229.512H182.518C182.448 228.455 182.154 227.649 181.634 227.094C181.131 226.522 180.42 226.236 179.502 226.236ZM187.587 221.556V218.384H191.227V221.556H187.587ZM187.795 237V224.286H191.045V237H187.795ZM198.166 237L192.654 224.286H196.112L199.648 233.178L203.314 224.286H206.564L200.974 237H198.166ZM214.145 237.26C212.707 237.26 211.467 236.991 210.427 236.454C209.387 235.917 208.581 235.154 208.009 234.166C207.455 233.178 207.177 232.008 207.177 230.656C207.177 229.339 207.446 228.186 207.983 227.198C208.538 226.21 209.292 225.439 210.245 224.884C211.216 224.312 212.317 224.026 213.547 224.026C215.35 224.026 216.771 224.598 217.811 225.742C218.869 226.886 219.397 228.446 219.397 230.422V231.384H210.297C210.54 233.655 211.84 234.79 214.197 234.79C214.908 234.79 215.619 234.686 216.329 234.478C217.04 234.253 217.69 233.906 218.279 233.438L219.189 235.622C218.583 236.125 217.82 236.523 216.901 236.818C215.983 237.113 215.064 237.26 214.145 237.26ZM213.677 226.236C212.724 226.236 211.953 226.531 211.363 227.12C210.774 227.709 210.419 228.507 210.297 229.512H216.693C216.624 228.455 216.329 227.649 215.809 227.094C215.307 226.522 214.596 226.236 213.677 226.236ZM226.859 237.26C225.75 237.26 224.771 236.991 223.921 236.454C223.089 235.917 222.439 235.154 221.971 234.166C221.503 233.161 221.269 231.982 221.269 230.63C221.269 229.261 221.503 228.091 221.971 227.12C222.439 226.132 223.089 225.369 223.921 224.832C224.771 224.295 225.75 224.026 226.859 224.026C227.761 224.026 228.575 224.225 229.303 224.624C230.031 225.023 230.577 225.551 230.941 226.21V218.67H234.191V237H231.019V234.894C230.673 235.622 230.127 236.203 229.381 236.636C228.636 237.052 227.795 237.26 226.859 237.26ZM227.769 234.79C228.74 234.79 229.52 234.443 230.109 233.75C230.699 233.039 230.993 231.999 230.993 230.63C230.993 229.243 230.699 228.212 230.109 227.536C229.52 226.843 228.74 226.496 227.769 226.496C226.799 226.496 226.019 226.843 225.429 227.536C224.84 228.212 224.545 229.243 224.545 230.63C224.545 231.999 224.84 233.039 225.429 233.75C226.019 234.443 226.799 234.79 227.769 234.79Z" fill="#9F9EB0"/>
<path d="M275 200H1V237C1 247.493 9.50659 256 20 256H275C285.493 256 294 247.493 294 237V219C294 208.507 285.493 200 275 200Z" stroke="#E9E9ED" stroke-width="2"/>
<path d="M406 272H1V363C1 373.493 9.50659 382 20 382H406C416.493 382 425 373.493 425 363V291C425 280.507 416.493 272 406 272Z" fill="white"/>
<path d="M28.19 309.234C26.7513 309.234 25.4513 309.052 24.29 308.688C23.1287 308.307 22.1233 307.761 21.274 307.05L22.028 305.334C22.912 306.01 23.8393 306.513 24.81 306.842C25.7807 307.171 26.9073 307.336 28.19 307.336C29.75 307.336 30.9027 307.05 31.648 306.478C32.4107 305.889 32.792 305.117 32.792 304.164C32.792 303.401 32.5147 302.795 31.96 302.344C31.4227 301.893 30.5127 301.538 29.23 301.278L26.526 300.732C24.8967 300.385 23.6747 299.822 22.86 299.042C22.0627 298.245 21.664 297.187 21.664 295.87C21.664 294.778 21.9413 293.825 22.496 293.01C23.068 292.195 23.8567 291.563 24.862 291.112C25.8673 290.661 27.0287 290.436 28.346 290.436C29.5767 290.436 30.7207 290.635 31.778 291.034C32.8353 291.415 33.728 291.97 34.456 292.698L33.702 294.362C32.922 293.651 32.0987 293.14 31.232 292.828C30.3653 292.499 29.3947 292.334 28.32 292.334C26.9507 292.334 25.8587 292.655 25.044 293.296C24.2293 293.92 23.822 294.752 23.822 295.792C23.822 296.624 24.0733 297.283 24.576 297.768C25.096 298.253 25.9367 298.609 27.098 298.834L29.802 299.406C31.5527 299.77 32.844 300.325 33.676 301.07C34.5253 301.798 34.95 302.795 34.95 304.06C34.95 305.083 34.6727 305.984 34.118 306.764C33.5807 307.544 32.8007 308.151 31.778 308.584C30.7727 309.017 29.5767 309.234 28.19 309.234ZM42.4441 309.234C39.4108 309.234 37.8941 307.561 37.8941 304.216V296.364H40.0001V304.19C40.0001 305.317 40.2254 306.149 40.6761 306.686C41.1441 307.223 41.8721 307.492 42.8601 307.492C43.9348 307.492 44.8101 307.137 45.4861 306.426C46.1621 305.698 46.5001 304.736 46.5001 303.54V296.364H48.6061V309H46.5521V306.868C46.1534 307.631 45.5901 308.22 44.8621 308.636C44.1514 309.035 43.3454 309.234 42.4441 309.234ZM58.9423 309.234C57.937 309.234 57.053 309.009 56.2903 308.558C55.545 308.107 54.9816 307.492 54.6003 306.712V309H52.5463V290.67H54.6523V298.548C55.0163 297.803 55.5796 297.213 56.3423 296.78C57.105 296.347 57.9716 296.13 58.9423 296.13C60.069 296.13 61.0483 296.399 61.8803 296.936C62.7296 297.456 63.3796 298.21 63.8303 299.198C64.2983 300.169 64.5323 301.33 64.5323 302.682C64.5323 304.017 64.2983 305.178 63.8303 306.166C63.3796 307.137 62.7296 307.891 61.8803 308.428C61.0483 308.965 60.069 309.234 58.9423 309.234ZM58.5003 307.544C59.679 307.544 60.6236 307.128 61.3343 306.296C62.045 305.447 62.4003 304.242 62.4003 302.682C62.4003 301.105 62.045 299.9 61.3343 299.068C60.6236 298.236 59.679 297.82 58.5003 297.82C57.3216 297.82 56.377 298.236 55.6663 299.068C54.9556 299.9 54.6003 301.105 54.6003 302.682C54.6003 304.242 54.9556 305.447 55.6663 306.296C56.377 307.128 57.3216 307.544 58.5003 307.544ZM67.9814 302.942V301.2H75.2614V302.942H67.9814ZM92.1569 314.226L89.9729 310.716C89.3836 309.728 88.4216 309.234 87.0869 309.234C85.3882 309.234 83.9062 308.853 82.6409 308.09C81.3929 307.31 80.4222 306.218 79.7289 304.814C79.0529 303.41 78.7149 301.746 78.7149 299.822C78.7149 297.898 79.0529 296.234 79.7289 294.83C80.4049 293.426 81.3669 292.343 82.6149 291.58C83.8802 290.817 85.3709 290.436 87.0869 290.436C88.8202 290.436 90.3109 290.817 91.5589 291.58C92.8242 292.343 93.7949 293.426 94.4709 294.83C95.1642 296.217 95.5109 297.872 95.5109 299.796C95.5109 302.032 95.0516 303.921 94.1329 305.464C93.2142 306.989 91.9402 308.064 90.3109 308.688C91.0042 308.913 91.6369 309.511 92.2089 310.482L93.9509 313.29L92.1569 314.226ZM87.0869 307.336C89.0456 307.336 90.5622 306.677 91.6369 305.36C92.7116 304.043 93.2489 302.197 93.2489 299.822C93.2489 297.447 92.7116 295.61 91.6369 294.31C90.5622 292.993 89.0456 292.334 87.0869 292.334C85.1629 292.334 83.6636 292.993 82.5889 294.31C81.5142 295.61 80.9769 297.447 80.9769 299.822C80.9769 302.179 81.5142 304.025 82.5889 305.36C83.6636 306.677 85.1629 307.336 87.0869 307.336ZM103.509 309.234C100.475 309.234 98.9585 307.561 98.9585 304.216V296.364H101.065V304.19C101.065 305.317 101.29 306.149 101.741 306.686C102.209 307.223 102.937 307.492 103.925 307.492C104.999 307.492 105.875 307.137 106.551 306.426C107.227 305.698 107.565 304.736 107.565 303.54V296.364H109.671V309H107.617V306.868C107.218 307.631 106.655 308.22 105.927 308.636C105.216 309.035 104.41 309.234 103.509 309.234ZM119.305 309.234C117.311 309.234 115.734 308.653 114.573 307.492C113.411 306.313 112.831 304.719 112.831 302.708C112.831 301.408 113.091 300.264 113.611 299.276C114.131 298.271 114.841 297.499 115.743 296.962C116.661 296.407 117.719 296.13 118.915 296.13C120.631 296.13 121.974 296.685 122.945 297.794C123.915 298.886 124.401 300.394 124.401 302.318V303.124H114.885C114.954 304.563 115.37 305.663 116.133 306.426C116.895 307.171 117.953 307.544 119.305 307.544C120.067 307.544 120.795 307.431 121.489 307.206C122.182 306.963 122.841 306.573 123.465 306.036L124.193 307.518C123.621 308.055 122.893 308.48 122.009 308.792C121.125 309.087 120.223 309.234 119.305 309.234ZM118.967 297.69C117.771 297.69 116.826 298.063 116.133 298.808C115.439 299.553 115.032 300.533 114.911 301.746H122.581C122.529 300.463 122.191 299.467 121.567 298.756C120.96 298.045 120.093 297.69 118.967 297.69ZM127.449 309V296.364H129.503V298.626C130.179 297.101 131.565 296.26 133.663 296.104L134.417 296.026L134.573 297.846L133.247 298.002C132.051 298.106 131.141 298.487 130.517 299.146C129.893 299.787 129.581 300.671 129.581 301.798V309H127.449ZM139.01 313.68L141.168 308.792L135.838 296.364H138.126L142.312 306.608L146.524 296.364H148.734L141.22 313.68H139.01ZM157.899 309L158.835 304.268H156.521V302.734H159.121L160.291 296.728H157.041V295.194H160.551L161.461 290.67H163.099L162.215 295.194H166.349L167.233 290.67H168.897L168.013 295.194H170.301V296.728H167.701L166.531 302.734H169.781V304.268H166.271L165.335 309H163.671L164.581 304.268H160.473L159.563 309H157.899ZM160.759 302.734H164.867L166.063 296.728H161.929L160.759 302.734ZM174.425 309V307.18H178.611V293.244L175.309 295.324L174.399 293.738L179.209 290.67H180.743V307.18H184.669V309H174.425Z" fill="#9F9EB0"/>
<path d="M27.046 337L20.572 318.67H24.004L28.554 332.19L33.338 318.67H35.808L40.488 332.372L45.168 318.67H48.418L41.892 337H39.136L34.482 323.766L29.802 337H27.046ZM50.6353 337V318.67H53.8853V326.132C54.3186 325.439 54.8993 324.919 55.6273 324.572C56.3553 324.208 57.1613 324.026 58.0453 324.026C61.044 324.026 62.5433 325.768 62.5433 329.252V337H59.2933V329.408C59.2933 328.42 59.1026 327.701 58.7213 327.25C58.3573 326.799 57.7853 326.574 57.0053 326.574C56.052 326.574 55.2893 326.877 54.7173 327.484C54.1626 328.073 53.8853 328.862 53.8853 329.85V337H50.6353ZM70.0303 337.26C69.1116 337.26 68.2883 337.087 67.5603 336.74C66.8496 336.376 66.2863 335.891 65.8703 335.284C65.4716 334.677 65.2723 333.993 65.2723 333.23C65.2723 332.294 65.515 331.557 66.0003 331.02C66.4856 330.465 67.2743 330.067 68.3663 329.824C69.4583 329.581 70.923 329.46 72.7603 329.46H73.6703V328.914C73.6703 328.047 73.4796 327.423 73.0983 327.042C72.717 326.661 72.0756 326.47 71.1743 326.47C70.4636 326.47 69.7356 326.583 68.9903 326.808C68.245 327.016 67.491 327.345 66.7283 327.796L65.7923 325.586C66.243 325.274 66.7716 325.005 67.3783 324.78C68.0023 324.537 68.6523 324.355 69.3283 324.234C70.0216 324.095 70.6716 324.026 71.2783 324.026C73.133 324.026 74.511 324.459 75.4123 325.326C76.3136 326.175 76.7643 327.501 76.7643 329.304V337H73.7223V334.972C73.4276 335.683 72.9596 336.246 72.3183 336.662C71.677 337.061 70.9143 337.26 70.0303 337.26ZM70.7063 335.024C71.5556 335.024 72.2576 334.729 72.8123 334.14C73.3843 333.551 73.6703 332.805 73.6703 331.904V331.332H72.7863C71.157 331.332 70.0216 331.462 69.3803 331.722C68.7563 331.965 68.4443 332.415 68.4443 333.074C68.4443 333.646 68.6436 334.114 69.0423 334.478C69.441 334.842 69.9956 335.024 70.7063 335.024ZM85.887 337.26C82.5244 337.26 80.843 335.596 80.843 332.268V326.73H78.399V324.286H80.843V320.49H84.093V324.286H87.941V326.73H84.093V332.086C84.093 332.918 84.275 333.542 84.639 333.958C85.003 334.374 85.5924 334.582 86.407 334.582C86.6497 334.582 86.901 334.556 87.161 334.504C87.421 334.435 87.6897 334.365 87.967 334.296L88.461 336.688C88.149 336.861 87.7504 337 87.265 337.104C86.797 337.208 86.3377 337.26 85.887 337.26ZM100.559 337L95.5414 324.286H98.8694L102.119 333.23L105.395 324.286H107.683L110.959 333.282L114.209 324.286H117.355L112.363 337H109.529L106.435 328.81L103.393 337H100.559ZM123.147 337.26C122.229 337.26 121.405 337.087 120.677 336.74C119.967 336.376 119.403 335.891 118.987 335.284C118.589 334.677 118.389 333.993 118.389 333.23C118.389 332.294 118.632 331.557 119.117 331.02C119.603 330.465 120.391 330.067 121.483 329.824C122.575 329.581 124.04 329.46 125.877 329.46H126.787V328.914C126.787 328.047 126.597 327.423 126.215 327.042C125.834 326.661 125.193 326.47 124.291 326.47C123.581 326.47 122.853 326.583 122.107 326.808C121.362 327.016 120.608 327.345 119.845 327.796L118.909 325.586C119.36 325.274 119.889 325.005 120.495 324.78C121.119 324.537 121.769 324.355 122.445 324.234C123.139 324.095 123.789 324.026 124.395 324.026C126.25 324.026 127.628 324.459 128.529 325.326C129.431 326.175 129.881 327.501 129.881 329.304V337H126.839V334.972C126.545 335.683 126.077 336.246 125.435 336.662C124.794 337.061 124.031 337.26 123.147 337.26ZM123.823 335.024C124.673 335.024 125.375 334.729 125.929 334.14C126.501 333.551 126.787 332.805 126.787 331.904V331.332H125.903C124.274 331.332 123.139 331.462 122.497 331.722C121.873 331.965 121.561 332.415 121.561 333.074C121.561 333.646 121.761 334.114 122.159 334.478C122.558 334.842 123.113 335.024 123.823 335.024ZM137.834 337.26C136.76 337.26 135.754 337.13 134.818 336.87C133.882 336.61 133.102 336.237 132.478 335.752L133.31 333.62C133.952 334.053 134.671 334.391 135.468 334.634C136.266 334.859 137.063 334.972 137.86 334.972C138.692 334.972 139.308 334.833 139.706 334.556C140.122 334.261 140.33 333.88 140.33 333.412C140.33 332.684 139.793 332.216 138.718 332.008L136.118 331.514C133.917 331.098 132.816 329.954 132.816 328.082C132.816 327.25 133.042 326.531 133.492 325.924C133.96 325.317 134.602 324.849 135.416 324.52C136.231 324.191 137.167 324.026 138.224 324.026C139.126 324.026 139.992 324.156 140.824 324.416C141.656 324.659 142.367 325.031 142.956 325.534L142.072 327.666C141.57 327.25 140.963 326.921 140.252 326.678C139.559 326.435 138.892 326.314 138.25 326.314C137.401 326.314 136.768 326.461 136.352 326.756C135.954 327.051 135.754 327.441 135.754 327.926C135.754 328.689 136.248 329.157 137.236 329.33L139.836 329.824C140.963 330.032 141.812 330.413 142.384 330.968C142.974 331.523 143.268 332.268 143.268 333.204C143.268 334.469 142.774 335.466 141.786 336.194C140.798 336.905 139.481 337.26 137.834 337.26ZM153.195 337V318.67H155.691L165.545 331.462V318.67H168.639V337H166.169L156.289 324.156V337H153.195ZM172.645 337V318.67H184.631V321.322H175.973V326.496H184.085V329.148H175.973V337H172.645ZM187.244 337V318.67H190.572V334.166H199.36V337H187.244ZM199.178 337L206.172 327.666L199.438 318.67H203.312L208.07 325.248L212.828 318.67H216.728L209.994 327.666L216.962 337H213.062L208.07 330.136L203.104 337H199.178ZM225.501 337V324.286H228.673V326.522C229.297 325.014 230.631 324.182 232.677 324.026L233.665 323.948L233.873 326.704L232.001 326.886C229.869 327.094 228.803 328.186 228.803 330.162V337H225.501ZM241.745 337.26C240.306 337.26 239.067 336.991 238.027 336.454C236.987 335.917 236.181 335.154 235.609 334.166C235.054 333.178 234.777 332.008 234.777 330.656C234.777 329.339 235.046 328.186 235.583 327.198C236.138 326.21 236.892 325.439 237.845 324.884C238.816 324.312 239.916 324.026 241.147 324.026C242.95 324.026 244.371 324.598 245.411 325.742C246.468 326.886 246.997 328.446 246.997 330.422V331.384H237.897C238.14 333.655 239.44 334.79 241.797 334.79C242.508 334.79 243.218 334.686 243.929 334.478C244.64 334.253 245.29 333.906 245.879 333.438L246.789 335.622C246.182 336.125 245.42 336.523 244.501 336.818C243.582 337.113 242.664 337.26 241.745 337.26ZM241.277 326.236C240.324 326.236 239.552 326.531 238.963 327.12C238.374 327.709 238.018 328.507 237.897 329.512H244.293C244.224 328.455 243.929 327.649 243.409 327.094C242.906 326.522 242.196 326.236 241.277 326.236ZM253.112 337L247.6 324.286H251.058L254.594 333.178L258.26 324.286H261.51L255.92 337H253.112ZM269.091 337.26C267.652 337.26 266.413 336.991 265.373 336.454C264.333 335.917 263.527 335.154 262.955 334.166C262.4 333.178 262.123 332.008 262.123 330.656C262.123 329.339 262.391 328.186 262.929 327.198C263.483 326.21 264.237 325.439 265.191 324.884C266.161 324.312 267.262 324.026 268.493 324.026C270.295 324.026 271.717 324.598 272.757 325.742C273.814 326.886 274.343 328.446 274.343 330.422V331.384H265.243C265.485 333.655 266.785 334.79 269.143 334.79C269.853 334.79 270.564 334.686 271.275 334.478C271.985 334.253 272.635 333.906 273.225 333.438L274.135 335.622C273.528 336.125 272.765 336.523 271.847 336.818C270.928 337.113 270.009 337.26 269.091 337.26ZM268.623 326.236C267.669 326.236 266.898 326.531 266.309 327.12C265.719 327.709 265.364 328.507 265.243 329.512H271.639C271.569 328.455 271.275 327.649 270.755 327.094C270.252 326.522 269.541 326.236 268.623 326.236ZM276.917 337V324.286H280.089V326.262C280.522 325.534 281.103 324.979 281.831 324.598C282.576 324.217 283.408 324.026 284.327 324.026C287.325 324.026 288.825 325.768 288.825 329.252V337H285.575V329.408C285.575 328.42 285.384 327.701 285.003 327.25C284.639 326.799 284.067 326.574 283.287 326.574C282.333 326.574 281.571 326.877 280.999 327.484C280.444 328.073 280.167 328.862 280.167 329.85V337H276.917ZM296.728 337.26C293.608 337.26 292.048 335.509 292.048 332.008V324.286H295.298V332.06C295.298 332.961 295.48 333.629 295.844 334.062C296.208 334.495 296.788 334.712 297.586 334.712C298.452 334.712 299.163 334.417 299.718 333.828C300.272 333.221 300.55 332.424 300.55 331.436V324.286H303.8V337H300.628V335.102C299.778 336.541 298.478 337.26 296.728 337.26ZM313.448 337.26C312.01 337.26 310.77 336.991 309.73 336.454C308.69 335.917 307.884 335.154 307.312 334.166C306.758 333.178 306.48 332.008 306.48 330.656C306.48 329.339 306.749 328.186 307.286 327.198C307.841 326.21 308.595 325.439 309.548 324.884C310.519 324.312 311.62 324.026 312.85 324.026C314.653 324.026 316.074 324.598 317.114 325.742C318.172 326.886 318.7 328.446 318.7 330.422V331.384H309.6C309.843 333.655 311.143 334.79 313.5 334.79C314.211 334.79 314.922 334.686 315.632 334.478C316.343 334.253 316.993 333.906 317.582 333.438L318.492 335.622C317.886 336.125 317.123 336.523 316.204 336.818C315.286 337.113 314.367 337.26 313.448 337.26ZM312.98 326.236C312.027 326.236 311.256 326.531 310.666 327.12C310.077 327.709 309.722 328.507 309.6 329.512H315.996C315.927 328.455 315.632 327.649 315.112 327.094C314.61 326.522 313.899 326.236 312.98 326.236ZM328.074 321.556V318.384H331.714V321.556H328.074ZM328.282 337V324.286H331.532V337H328.282ZM334.909 337V324.286H338.081V326.262C338.514 325.534 339.095 324.979 339.823 324.598C340.568 324.217 341.4 324.026 342.319 324.026C345.317 324.026 346.817 325.768 346.817 329.252V337H343.567V329.408C343.567 328.42 343.376 327.701 342.995 327.25C342.631 326.799 342.059 326.574 341.279 326.574C340.325 326.574 339.563 326.877 338.991 327.484C338.436 328.073 338.159 328.862 338.159 329.85V337H334.909ZM22.08 363V360.53L28.008 354.212C28.8053 353.345 29.3773 352.583 29.724 351.924C30.0707 351.248 30.244 350.563 30.244 349.87C30.244 348.102 29.178 347.218 27.046 347.218C25.382 347.218 23.848 347.842 22.444 349.09L21.326 346.594C22.054 345.935 22.964 345.407 24.056 345.008C25.148 344.609 26.2833 344.41 27.462 344.41C29.4207 344.41 30.92 344.852 31.96 345.736C33.0173 346.62 33.546 347.885 33.546 349.532C33.546 350.641 33.2773 351.707 32.74 352.73C32.22 353.753 31.3967 354.853 30.27 356.032L26.24 360.244H34.248V363H22.08ZM43.3898 363.26C41.2232 363.26 39.5678 362.445 38.4238 360.816C37.2798 359.169 36.7078 356.829 36.7078 353.796C36.7078 350.728 37.2798 348.397 38.4238 346.802C39.5678 345.207 41.2232 344.41 43.3898 344.41C45.5738 344.41 47.2292 345.207 48.3558 346.802C49.4998 348.397 50.0718 350.719 50.0718 353.77C50.0718 356.821 49.4998 359.169 48.3558 360.816C47.2118 362.445 45.5565 363.26 43.3898 363.26ZM43.3898 360.53C44.5685 360.53 45.4352 359.993 45.9898 358.918C46.5618 357.826 46.8478 356.11 46.8478 353.77C46.8478 351.447 46.5618 349.766 45.9898 348.726C45.4352 347.669 44.5685 347.14 43.3898 347.14C42.2285 347.14 41.3618 347.669 40.7898 348.726C40.2178 349.766 39.9318 351.447 39.9318 353.77C39.9318 356.11 40.2178 357.826 40.7898 358.918C41.3618 359.993 42.2285 360.53 43.3898 360.53ZM53.2597 363V360.53L59.1877 354.212C59.985 353.345 60.557 352.583 60.9037 351.924C61.2504 351.248 61.4237 350.563 61.4237 349.87C61.4237 348.102 60.3577 347.218 58.2257 347.218C56.5617 347.218 55.0277 347.842 53.6237 349.09L52.5057 346.594C53.2337 345.935 54.1437 345.407 55.2357 345.008C56.3277 344.609 57.463 344.41 58.6417 344.41C60.6004 344.41 62.0997 344.852 63.1397 345.736C64.197 346.62 64.7257 347.885 64.7257 349.532C64.7257 350.641 64.457 351.707 63.9197 352.73C63.3997 353.753 62.5764 354.853 61.4497 356.032L57.4197 360.244H65.4277V363H53.2597ZM68.8495 363V360.53L74.7775 354.212C75.5749 353.345 76.1469 352.583 76.4935 351.924C76.8402 351.248 77.0135 350.563 77.0135 349.87C77.0135 348.102 75.9475 347.218 73.8155 347.218C72.1515 347.218 70.6175 347.842 69.2135 349.09L68.0955 346.594C68.8235 345.935 69.7335 345.407 70.8255 345.008C71.9175 344.609 73.0529 344.41 74.2315 344.41C76.1902 344.41 77.6895 344.852 78.7295 345.736C79.7869 346.62 80.3155 347.885 80.3155 349.532C80.3155 350.641 80.0469 351.707 79.5095 352.73C78.9895 353.753 78.1662 354.853 77.0395 356.032L73.0095 360.244H81.0175V363H68.8495ZM87.1174 357.566V356.526C87.1174 355.711 87.2647 354.957 87.5594 354.264C87.8714 353.571 88.3914 352.817 89.1194 352.002C89.674 351.395 90.0554 350.875 90.2634 350.442C90.4887 350.009 90.6014 349.549 90.6014 349.064C90.6014 348.492 90.3934 348.041 89.9774 347.712C89.5614 347.383 88.972 347.218 88.2094 347.218C86.5107 347.218 84.942 347.842 83.5034 349.09L82.4114 346.594C83.1394 345.935 84.0407 345.407 85.1154 345.008C86.2074 344.609 87.308 344.41 88.4174 344.41C89.5094 344.41 90.4627 344.592 91.2774 344.956C92.1094 345.32 92.7507 345.823 93.2014 346.464C93.6694 347.105 93.9034 347.859 93.9034 348.726C93.9034 349.523 93.7214 350.269 93.3574 350.962C93.0107 351.655 92.3867 352.409 91.4854 353.224C90.6707 353.969 90.1074 354.619 89.7954 355.174C89.4834 355.729 89.284 356.283 89.1974 356.838L89.0934 357.566H87.1174ZM86.2854 363V359.386H89.9254V363H86.2854Z" fill="#9F9EB0"/>
<path d="M406 272H1V363C1 373.493 9.50659 382 20 382H406C416.493 382 425 373.493 425 363V291C425 280.507 416.493 272 406 272Z" stroke="#E9E9ED" stroke-width="2"/>
</svg>
