<svg width="561" height="700" viewBox="0 0 561 700" fill="none" xmlns="http://www.w3.org/2000/svg">
<rect x="41" y="1" width="484" height="698" rx="19" fill="#F7F7F8" stroke="#D2D2DC" stroke-width="2"/>
<path d="M116 72.5H560.5V136C560.5 146.77 551.77 155.5 541 155.5H116C105.23 155.5 96.5 146.77 96.5 136V92C96.5 81.2304 105.23 72.5 116 72.5Z" fill="#9F9EB0"/>
<path d="M118.002 110V91.67H124.814C127.882 91.67 130.248 92.4587 131.912 94.036C133.593 95.6133 134.434 97.8753 134.434 100.822C134.434 103.751 133.593 106.013 131.912 107.608C130.248 109.203 127.882 110 124.814 110H118.002ZM121.33 107.244H124.606C128.835 107.244 130.95 105.103 130.95 100.822C130.95 96.558 128.835 94.426 124.606 94.426H121.33V107.244ZM137.287 94.556V91.384H140.927V94.556H137.287ZM137.495 110V97.286H140.745V110H137.495ZM149.01 110.26C147.9 110.26 146.921 109.991 146.072 109.454C145.24 108.917 144.59 108.154 144.122 107.166C143.654 106.161 143.42 104.982 143.42 103.63C143.42 102.261 143.654 101.091 144.122 100.12C144.59 99.132 145.24 98.3693 146.072 97.832C146.921 97.2947 147.9 97.026 149.01 97.026C149.911 97.026 150.726 97.2253 151.454 97.624C152.182 98.0227 152.728 98.5513 153.092 99.21V91.67H156.342V110H153.17V107.894C152.823 108.622 152.277 109.203 151.532 109.636C150.786 110.052 149.946 110.26 149.01 110.26ZM149.92 107.79C150.89 107.79 151.67 107.443 152.26 106.75C152.849 106.039 153.144 104.999 153.144 103.63C153.144 102.243 152.849 101.212 152.26 100.536C151.67 99.8427 150.89 99.496 149.92 99.496C148.949 99.496 148.169 99.8427 147.58 100.536C146.99 101.212 146.696 102.243 146.696 103.63C146.696 104.999 146.99 106.039 147.58 106.75C148.169 107.443 148.949 107.79 149.92 107.79ZM167.031 110V91.67H169.527L179.381 104.462V91.67H182.475V110H180.005L170.125 97.156V110H167.031ZM192.435 110.26C190.996 110.26 189.757 109.991 188.717 109.454C187.677 108.917 186.871 108.154 186.299 107.166C185.744 106.178 185.467 105.008 185.467 103.656C185.467 102.339 185.735 101.186 186.273 100.198C186.827 99.21 187.581 98.4387 188.535 97.884C189.505 97.312 190.606 97.026 191.837 97.026C193.639 97.026 195.061 97.598 196.101 98.742C197.158 99.886 197.687 101.446 197.687 103.422V104.384H188.587C188.829 106.655 190.129 107.79 192.487 107.79C193.197 107.79 193.908 107.686 194.619 107.478C195.329 107.253 195.979 106.906 196.569 106.438L197.479 108.622C196.872 109.125 196.109 109.523 195.191 109.818C194.272 110.113 193.353 110.26 192.435 110.26ZM191.967 99.236C191.013 99.236 190.242 99.5307 189.653 100.12C189.063 100.709 188.708 101.507 188.587 102.512H194.983C194.913 101.455 194.619 100.649 194.099 100.094C193.596 99.522 192.885 99.236 191.967 99.236ZM206.034 110.26C202.671 110.26 200.99 108.596 200.99 105.268V99.73H198.546V97.286H200.99V93.49H204.24V97.286H208.088V99.73H204.24V105.086C204.24 105.918 204.422 106.542 204.786 106.958C205.15 107.374 205.739 107.582 206.554 107.582C206.796 107.582 207.048 107.556 207.308 107.504C207.568 107.435 207.836 107.365 208.114 107.296L208.608 109.688C208.296 109.861 207.897 110 207.412 110.104C206.944 110.208 206.484 110.26 206.034 110.26ZM210.995 110V99.73H208.551V97.286H210.995V97.26C210.995 95.4573 211.463 94.0967 212.399 93.178C213.353 92.2593 214.826 91.7393 216.819 91.618L218.093 91.54L218.301 93.932L217.105 94.01C216.065 94.0793 215.329 94.3393 214.895 94.79C214.462 95.2233 214.245 95.8733 214.245 96.74V97.286H217.703V99.73H214.245V110H210.995ZM224.021 110.26C222.513 110.26 221.395 109.853 220.667 109.038C219.957 108.206 219.601 106.993 219.601 105.398V91.67H222.851V105.242C222.851 106.802 223.51 107.582 224.827 107.582C225.018 107.582 225.209 107.573 225.399 107.556C225.59 107.539 225.772 107.504 225.945 107.452L225.893 110.026C225.269 110.182 224.645 110.26 224.021 110.26ZM227.677 94.556V91.384H231.317V94.556H227.677ZM227.885 110V97.286H231.135V110H227.885ZM232.744 110L238.074 103.422L233.082 97.286H236.878L239.946 101.212L243.014 97.286H246.81L241.792 103.448L247.148 110H243.326L239.92 105.71L236.54 110H232.744ZM261.511 110.26C260.194 110.26 259.05 109.991 258.079 109.454C257.109 108.917 256.355 108.154 255.817 107.166C255.28 106.161 255.011 104.982 255.011 103.63C255.011 102.278 255.28 101.108 255.817 100.12C256.355 99.132 257.109 98.3693 258.079 97.832C259.05 97.2947 260.194 97.026 261.511 97.026C262.829 97.026 263.973 97.2947 264.943 97.832C265.914 98.3693 266.668 99.132 267.205 100.12C267.743 101.108 268.011 102.278 268.011 103.63C268.011 104.982 267.743 106.161 267.205 107.166C266.668 108.154 265.914 108.917 264.943 109.454C263.973 109.991 262.829 110.26 261.511 110.26ZM261.511 107.79C262.482 107.79 263.262 107.443 263.851 106.75C264.441 106.039 264.735 104.999 264.735 103.63C264.735 102.243 264.441 101.212 263.851 100.536C263.262 99.8427 262.482 99.496 261.511 99.496C260.541 99.496 259.761 99.8427 259.171 100.536C258.582 101.212 258.287 102.243 258.287 103.63C258.287 104.999 258.582 106.039 259.171 106.75C259.761 107.443 260.541 107.79 261.511 107.79ZM270.694 110V97.286H273.866V99.522C274.49 98.014 275.825 97.182 277.87 97.026L278.858 96.948L279.066 99.704L277.194 99.886C275.062 100.094 273.996 101.186 273.996 103.162V110H270.694ZM297.009 110.26C294.981 110.26 293.265 109.879 291.861 109.116C290.475 108.353 289.417 107.27 288.689 105.866C287.961 104.462 287.597 102.798 287.597 100.874C287.597 98.9327 287.97 97.26 288.715 95.856C289.461 94.4347 290.535 93.3427 291.939 92.58C293.343 91.8 295.025 91.41 296.983 91.41C298.266 91.41 299.471 91.6007 300.597 91.982C301.724 92.346 302.66 92.8573 303.405 93.516L302.287 96.116C301.473 95.4747 300.641 95.0153 299.791 94.738C298.942 94.4607 298.006 94.322 296.983 94.322C295.042 94.322 293.569 94.8853 292.563 96.012C291.575 97.1387 291.081 98.7593 291.081 100.874C291.081 103.006 291.593 104.627 292.615 105.736C293.638 106.845 295.155 107.4 297.165 107.4C297.737 107.4 298.318 107.357 298.907 107.27C299.514 107.166 300.112 107.019 300.701 106.828V102.564H296.489V100.094H303.483V108.908C302.634 109.324 301.629 109.653 300.467 109.896C299.306 110.139 298.153 110.26 297.009 110.26ZM312.826 110.26C311.509 110.26 310.365 109.991 309.394 109.454C308.423 108.917 307.669 108.154 307.132 107.166C306.595 106.161 306.326 104.982 306.326 103.63C306.326 102.278 306.595 101.108 307.132 100.12C307.669 99.132 308.423 98.3693 309.394 97.832C310.365 97.2947 311.509 97.026 312.826 97.026C314.143 97.026 315.287 97.2947 316.258 97.832C317.229 98.3693 317.983 99.132 318.52 100.12C319.057 101.108 319.326 102.278 319.326 103.63C319.326 104.982 319.057 106.161 318.52 107.166C317.983 108.154 317.229 108.917 316.258 109.454C315.287 109.991 314.143 110.26 312.826 110.26ZM312.826 107.79C313.797 107.79 314.577 107.443 315.166 106.75C315.755 106.039 316.05 104.999 316.05 103.63C316.05 102.243 315.755 101.212 315.166 100.536C314.577 99.8427 313.797 99.496 312.826 99.496C311.855 99.496 311.075 99.8427 310.486 100.536C309.897 101.212 309.602 102.243 309.602 103.63C309.602 104.999 309.897 106.039 310.486 106.75C311.075 107.443 311.855 107.79 312.826 107.79ZM327.806 110.26C326.489 110.26 325.345 109.991 324.374 109.454C323.404 108.917 322.65 108.154 322.112 107.166C321.575 106.161 321.306 104.982 321.306 103.63C321.306 102.278 321.575 101.108 322.112 100.12C322.65 99.132 323.404 98.3693 324.374 97.832C325.345 97.2947 326.489 97.026 327.806 97.026C329.124 97.026 330.268 97.2947 331.238 97.832C332.209 98.3693 332.963 99.132 333.5 100.12C334.038 101.108 334.306 102.278 334.306 103.63C334.306 104.982 334.038 106.161 333.5 107.166C332.963 108.154 332.209 108.917 331.238 109.454C330.268 109.991 329.124 110.26 327.806 110.26ZM327.806 107.79C328.777 107.79 329.557 107.443 330.146 106.75C330.736 106.039 331.03 104.999 331.03 103.63C331.03 102.243 330.736 101.212 330.146 100.536C329.557 99.8427 328.777 99.496 327.806 99.496C326.836 99.496 326.056 99.8427 325.466 100.536C324.877 101.212 324.582 102.243 324.582 103.63C324.582 104.999 324.877 106.039 325.466 106.75C326.056 107.443 326.836 107.79 327.806 107.79ZM342.917 114.94C341.738 114.94 340.629 114.801 339.589 114.524C338.566 114.264 337.665 113.857 336.885 113.302L337.821 111.04C338.549 111.525 339.329 111.881 340.161 112.106C340.993 112.349 341.825 112.47 342.657 112.47C344.979 112.47 346.141 111.352 346.141 109.116V107.374C345.777 108.085 345.213 108.648 344.451 109.064C343.705 109.48 342.873 109.688 341.955 109.688C340.811 109.688 339.814 109.428 338.965 108.908C338.115 108.371 337.457 107.625 336.989 106.672C336.521 105.719 336.287 104.609 336.287 103.344C336.287 102.079 336.521 100.978 336.989 100.042C337.457 99.0887 338.115 98.352 338.965 97.832C339.814 97.2947 340.811 97.026 341.955 97.026C342.908 97.026 343.757 97.2427 344.503 97.676C345.248 98.092 345.794 98.6553 346.141 99.366V97.286H349.313V108.726C349.313 110.789 348.767 112.34 347.675 113.38C346.583 114.42 344.997 114.94 342.917 114.94ZM342.839 107.218C343.844 107.218 344.641 106.871 345.231 106.178C345.82 105.485 346.115 104.54 346.115 103.344C346.115 102.148 345.82 101.212 345.231 100.536C344.641 99.8427 343.844 99.496 342.839 99.496C341.833 99.496 341.036 99.8427 340.447 100.536C339.857 101.212 339.563 102.148 339.563 103.344C339.563 104.54 339.857 105.485 340.447 106.178C341.036 106.871 341.833 107.218 342.839 107.218ZM357.1 110.26C355.592 110.26 354.474 109.853 353.746 109.038C353.036 108.206 352.68 106.993 352.68 105.398V91.67H355.93V105.242C355.93 106.802 356.589 107.582 357.906 107.582C358.097 107.582 358.288 107.573 358.478 107.556C358.669 107.539 358.851 107.504 359.024 107.452L358.972 110.026C358.348 110.182 357.724 110.26 357.1 110.26ZM367.122 110.26C365.683 110.26 364.444 109.991 363.404 109.454C362.364 108.917 361.558 108.154 360.986 107.166C360.431 106.178 360.154 105.008 360.154 103.656C360.154 102.339 360.423 101.186 360.96 100.198C361.515 99.21 362.269 98.4387 363.222 97.884C364.193 97.312 365.293 97.026 366.524 97.026C368.327 97.026 369.748 97.598 370.788 98.742C371.845 99.886 372.374 101.446 372.374 103.422V104.384H363.274C363.517 106.655 364.817 107.79 367.174 107.79C367.885 107.79 368.595 107.686 369.306 107.478C370.017 107.253 370.667 106.906 371.256 106.438L372.166 108.622C371.559 109.125 370.797 109.523 369.878 109.818C368.959 110.113 368.041 110.26 367.122 110.26ZM366.654 99.236C365.701 99.236 364.929 99.5307 364.34 100.12C363.751 100.709 363.395 101.507 363.274 102.512H369.67C369.601 101.455 369.306 100.649 368.786 100.094C368.283 99.522 367.573 99.236 366.654 99.236ZM381.956 110V91.67H385.206V99.132C385.639 98.4387 386.22 97.9187 386.948 97.572C387.676 97.208 388.482 97.026 389.366 97.026C392.364 97.026 393.864 98.768 393.864 102.252V110H390.614V102.408C390.614 101.42 390.423 100.701 390.042 100.25C389.678 99.7993 389.106 99.574 388.326 99.574C387.372 99.574 386.61 99.8773 386.038 100.484C385.483 101.073 385.206 101.862 385.206 102.85V110H381.956ZM401.351 110.26C400.432 110.26 399.609 110.087 398.881 109.74C398.17 109.376 397.607 108.891 397.191 108.284C396.792 107.677 396.593 106.993 396.593 106.23C396.593 105.294 396.835 104.557 397.321 104.02C397.806 103.465 398.595 103.067 399.687 102.824C400.779 102.581 402.243 102.46 404.081 102.46H404.991V101.914C404.991 101.047 404.8 100.423 404.419 100.042C404.037 99.6607 403.396 99.47 402.495 99.47C401.784 99.47 401.056 99.5827 400.311 99.808C399.565 100.016 398.811 100.345 398.049 100.796L397.113 98.586C397.563 98.274 398.092 98.0053 398.699 97.78C399.323 97.5373 399.973 97.3553 400.649 97.234C401.342 97.0953 401.992 97.026 402.599 97.026C404.453 97.026 405.831 97.4593 406.733 98.326C407.634 99.1753 408.085 100.501 408.085 102.304V110H405.043V107.972C404.748 108.683 404.28 109.246 403.639 109.662C402.997 110.061 402.235 110.26 401.351 110.26ZM402.027 108.024C402.876 108.024 403.578 107.729 404.133 107.14C404.705 106.551 404.991 105.805 404.991 104.904V104.332H404.107C402.477 104.332 401.342 104.462 400.701 104.722C400.077 104.965 399.765 105.415 399.765 106.074C399.765 106.646 399.964 107.114 400.363 107.478C400.761 107.842 401.316 108.024 402.027 108.024ZM415 110L409.488 97.286H412.946L416.482 106.178L420.148 97.286H423.398L417.808 110H415ZM430.979 110.26C429.541 110.26 428.301 109.991 427.261 109.454C426.221 108.917 425.415 108.154 424.843 107.166C424.289 106.178 424.011 105.008 424.011 103.656C424.011 102.339 424.28 101.186 424.817 100.198C425.372 99.21 426.126 98.4387 427.079 97.884C428.05 97.312 429.151 97.026 430.381 97.026C432.184 97.026 433.605 97.598 434.645 98.742C435.703 99.886 436.231 101.446 436.231 103.422V104.384H427.131C427.374 106.655 428.674 107.79 431.031 107.79C431.742 107.79 432.453 107.686 433.163 107.478C433.874 107.253 434.524 106.906 435.113 106.438L436.023 108.622C435.417 109.125 434.654 109.523 433.735 109.818C432.817 110.113 431.898 110.26 430.979 110.26ZM430.511 99.236C429.558 99.236 428.787 99.5307 428.197 100.12C427.608 100.709 427.253 101.507 427.131 102.512H433.527C433.458 101.455 433.163 100.649 432.643 100.094C432.141 99.522 431.43 99.236 430.511 99.236ZM451.637 110.26C448.274 110.26 446.593 108.596 446.593 105.268V99.73H444.149V97.286H446.593V93.49H449.843V97.286H453.691V99.73H449.843V105.086C449.843 105.918 450.025 106.542 450.389 106.958C450.753 107.374 451.342 107.582 452.157 107.582C452.4 107.582 452.651 107.556 452.911 107.504C453.171 107.435 453.44 107.365 453.717 107.296L454.211 109.688C453.899 109.861 453.5 110 453.015 110.104C452.547 110.208 452.088 110.26 451.637 110.26ZM455.792 110V91.67H459.042V99.132C459.475 98.4387 460.056 97.9187 460.784 97.572C461.512 97.208 462.318 97.026 463.202 97.026C466.2 97.026 467.7 98.768 467.7 102.252V110H464.45V102.408C464.45 101.42 464.259 100.701 463.878 100.25C463.514 99.7993 462.942 99.574 462.162 99.574C461.208 99.574 460.446 99.8773 459.874 100.484C459.319 101.073 459.042 101.862 459.042 102.85V110H455.792ZM477.267 110.26C475.828 110.26 474.589 109.991 473.549 109.454C472.509 108.917 471.703 108.154 471.131 107.166C470.576 106.178 470.299 105.008 470.299 103.656C470.299 102.339 470.567 101.186 471.105 100.198C471.659 99.21 472.413 98.4387 473.367 97.884C474.337 97.312 475.438 97.026 476.669 97.026C478.471 97.026 479.893 97.598 480.933 98.742C481.99 99.886 482.519 101.446 482.519 103.422V104.384H473.419C473.661 106.655 474.961 107.79 477.319 107.79C478.029 107.79 478.74 107.686 479.451 107.478C480.161 107.253 480.811 106.906 481.401 106.438L482.311 108.622C481.704 109.125 480.941 109.523 480.023 109.818C479.104 110.113 478.185 110.26 477.267 110.26ZM476.799 99.236C475.845 99.236 475.074 99.5307 474.485 100.12C473.895 100.709 473.54 101.507 473.419 102.512H479.815C479.745 101.455 479.451 100.649 478.931 100.094C478.428 99.522 477.717 99.236 476.799 99.236ZM117.69 136V117.67H120.94V125.132C121.373 124.439 121.954 123.919 122.682 123.572C123.41 123.208 124.216 123.026 125.1 123.026C128.099 123.026 129.598 124.768 129.598 128.252V136H126.348V128.408C126.348 127.42 126.157 126.701 125.776 126.25C125.412 125.799 124.84 125.574 124.06 125.574C123.107 125.574 122.344 125.877 121.772 126.484C121.217 127.073 120.94 127.862 120.94 128.85V136H117.69ZM132.691 120.556V117.384H136.331V120.556H132.691ZM132.899 136V123.286H136.149V136H132.899ZM145.454 140.94C144.275 140.94 143.166 140.801 142.126 140.524C141.103 140.264 140.202 139.857 139.422 139.302L140.358 137.04C141.086 137.525 141.866 137.881 142.698 138.106C143.53 138.349 144.362 138.47 145.194 138.47C147.517 138.47 148.678 137.352 148.678 135.116V133.374C148.314 134.085 147.751 134.648 146.988 135.064C146.243 135.48 145.411 135.688 144.492 135.688C143.348 135.688 142.351 135.428 141.502 134.908C140.653 134.371 139.994 133.625 139.526 132.672C139.058 131.719 138.824 130.609 138.824 129.344C138.824 128.079 139.058 126.978 139.526 126.042C139.994 125.089 140.653 124.352 141.502 123.832C142.351 123.295 143.348 123.026 144.492 123.026C145.445 123.026 146.295 123.243 147.04 123.676C147.785 124.092 148.331 124.655 148.678 125.366V123.286H151.85V134.726C151.85 136.789 151.304 138.34 150.212 139.38C149.12 140.42 147.534 140.94 145.454 140.94ZM145.376 133.218C146.381 133.218 147.179 132.871 147.768 132.178C148.357 131.485 148.652 130.54 148.652 129.344C148.652 128.148 148.357 127.212 147.768 126.536C147.179 125.843 146.381 125.496 145.376 125.496C144.371 125.496 143.573 125.843 142.984 126.536C142.395 127.212 142.1 128.148 142.1 129.344C142.1 130.54 142.395 131.485 142.984 132.178C143.573 132.871 144.371 133.218 145.376 133.218ZM155.217 136V117.67H158.467V125.132C158.901 124.439 159.481 123.919 160.209 123.572C160.937 123.208 161.743 123.026 162.627 123.026C165.626 123.026 167.125 124.768 167.125 128.252V136H163.875V128.408C163.875 127.42 163.685 126.701 163.303 126.25C162.939 125.799 162.367 125.574 161.587 125.574C160.634 125.574 159.871 125.877 159.299 126.484C158.745 127.073 158.467 127.862 158.467 128.85V136H155.217ZM176.692 136.26C175.254 136.26 174.014 135.991 172.974 135.454C171.934 134.917 171.128 134.154 170.556 133.166C170.002 132.178 169.724 131.008 169.724 129.656C169.724 128.339 169.993 127.186 170.53 126.198C171.085 125.21 171.839 124.439 172.792 123.884C173.763 123.312 174.864 123.026 176.094 123.026C177.897 123.026 179.318 123.598 180.358 124.742C181.416 125.886 181.944 127.446 181.944 129.422V130.384H172.844C173.087 132.655 174.387 133.79 176.744 133.79C177.455 133.79 178.166 133.686 178.876 133.478C179.587 133.253 180.237 132.906 180.826 132.438L181.736 134.622C181.13 135.125 180.367 135.523 179.448 135.818C178.53 136.113 177.611 136.26 176.692 136.26ZM176.224 125.236C175.271 125.236 174.5 125.531 173.91 126.12C173.321 126.709 172.966 127.507 172.844 128.512H179.24C179.171 127.455 178.876 126.649 178.356 126.094C177.854 125.522 177.143 125.236 176.224 125.236ZM184.518 136V123.286H187.69V125.522C188.314 124.014 189.649 123.182 191.694 123.026L192.682 122.948L192.89 125.704L191.018 125.886C188.886 126.094 187.82 127.186 187.82 129.162V136H184.518ZM201.708 136V123.286H204.88V125.522C205.504 124.014 206.838 123.182 208.884 123.026L209.872 122.948L210.08 125.704L208.208 125.886C206.076 126.094 205.01 127.186 205.01 129.162V136H201.708ZM217.952 136.26C216.513 136.26 215.274 135.991 214.234 135.454C213.194 134.917 212.388 134.154 211.816 133.166C211.261 132.178 210.984 131.008 210.984 129.656C210.984 128.339 211.253 127.186 211.79 126.198C212.345 125.21 213.099 124.439 214.052 123.884C215.023 123.312 216.123 123.026 217.354 123.026C219.157 123.026 220.578 123.598 221.618 124.742C222.675 125.886 223.204 127.446 223.204 129.422V130.384H214.104C214.347 132.655 215.647 133.79 218.004 133.79C218.715 133.79 219.425 133.686 220.136 133.478C220.847 133.253 221.497 132.906 222.086 132.438L222.996 134.622C222.389 135.125 221.627 135.523 220.708 135.818C219.789 136.113 218.871 136.26 217.952 136.26ZM217.484 125.236C216.531 125.236 215.759 125.531 215.17 126.12C214.581 126.709 214.225 127.507 214.104 128.512H220.5C220.431 127.455 220.136 126.649 219.616 126.094C219.113 125.522 218.403 125.236 217.484 125.236ZM229.319 136L223.807 123.286H227.265L230.801 132.178L234.467 123.286H237.717L232.127 136H229.319ZM245.298 136.26C243.859 136.26 242.62 135.991 241.58 135.454C240.54 134.917 239.734 134.154 239.162 133.166C238.607 132.178 238.33 131.008 238.33 129.656C238.33 128.339 238.598 127.186 239.136 126.198C239.69 125.21 240.444 124.439 241.398 123.884C242.368 123.312 243.469 123.026 244.7 123.026C246.502 123.026 247.924 123.598 248.964 124.742C250.021 125.886 250.55 127.446 250.55 129.422V130.384H241.45C241.692 132.655 242.992 133.79 245.35 133.79C246.06 133.79 246.771 133.686 247.482 133.478C248.192 133.253 248.842 132.906 249.432 132.438L250.342 134.622C249.735 135.125 248.972 135.523 248.054 135.818C247.135 136.113 246.216 136.26 245.298 136.26ZM244.83 125.236C243.876 125.236 243.105 125.531 242.516 126.12C241.926 126.709 241.571 127.507 241.45 128.512H247.846C247.776 127.455 247.482 126.649 246.962 126.094C246.459 125.522 245.748 125.236 244.83 125.236ZM253.124 136V123.286H256.296V125.262C256.729 124.534 257.31 123.979 258.038 123.598C258.783 123.217 259.615 123.026 260.534 123.026C263.532 123.026 265.032 124.768 265.032 128.252V136H261.782V128.408C261.782 127.42 261.591 126.701 261.21 126.25C260.846 125.799 260.274 125.574 259.494 125.574C258.54 125.574 257.778 125.877 257.206 126.484C256.651 127.073 256.374 127.862 256.374 128.85V136H253.124ZM272.935 136.26C269.815 136.26 268.255 134.509 268.255 131.008V123.286H271.505V131.06C271.505 131.961 271.687 132.629 272.051 133.062C272.415 133.495 272.995 133.712 273.793 133.712C274.659 133.712 275.37 133.417 275.925 132.828C276.479 132.221 276.757 131.424 276.757 130.436V123.286H280.007V136H276.835V134.102C275.985 135.541 274.685 136.26 272.935 136.26ZM289.655 136.26C288.217 136.26 286.977 135.991 285.937 135.454C284.897 134.917 284.091 134.154 283.519 133.166C282.965 132.178 282.687 131.008 282.687 129.656C282.687 128.339 282.956 127.186 283.493 126.198C284.048 125.21 284.802 124.439 285.755 123.884C286.726 123.312 287.827 123.026 289.057 123.026C290.86 123.026 292.281 123.598 293.321 124.742C294.379 125.886 294.907 127.446 294.907 129.422V130.384H285.807C286.05 132.655 287.35 133.79 289.707 133.79C290.418 133.79 291.129 133.686 291.839 133.478C292.55 133.253 293.2 132.906 293.789 132.438L294.699 134.622C294.093 135.125 293.33 135.523 292.411 135.818C291.493 136.113 290.574 136.26 289.655 136.26ZM289.187 125.236C288.234 125.236 287.463 125.531 286.873 126.12C286.284 126.709 285.929 127.507 285.807 128.512H292.203C292.134 127.455 291.839 126.649 291.319 126.094C290.817 125.522 290.106 125.236 289.187 125.236ZM304.281 120.556V117.384H307.921V120.556H304.281ZM304.489 136V123.286H307.739V136H304.489ZM311.116 136V123.286H314.288V125.262C314.721 124.534 315.302 123.979 316.03 123.598C316.775 123.217 317.607 123.026 318.526 123.026C321.524 123.026 323.024 124.768 323.024 128.252V136H319.774V128.408C319.774 127.42 319.583 126.701 319.202 126.25C318.838 125.799 318.266 125.574 317.486 125.574C316.532 125.574 315.77 125.877 315.198 126.484C314.643 127.073 314.366 127.862 314.366 128.85V136H311.116ZM333.723 136V133.53L339.651 127.212C340.448 126.345 341.02 125.583 341.367 124.924C341.713 124.248 341.887 123.563 341.887 122.87C341.887 121.102 340.821 120.218 338.689 120.218C337.025 120.218 335.491 120.842 334.087 122.09L332.969 119.594C333.697 118.935 334.607 118.407 335.699 118.008C336.791 117.609 337.926 117.41 339.105 117.41C341.063 117.41 342.563 117.852 343.603 118.736C344.66 119.62 345.189 120.885 345.189 122.532C345.189 123.641 344.92 124.707 344.383 125.73C343.863 126.753 343.039 127.853 341.913 129.032L337.883 133.244H345.891V136H333.723ZM355.032 136.26C352.866 136.26 351.21 135.445 350.066 133.816C348.922 132.169 348.35 129.829 348.35 126.796C348.35 123.728 348.922 121.397 350.066 119.802C351.21 118.207 352.866 117.41 355.032 117.41C357.216 117.41 358.872 118.207 359.998 119.802C361.142 121.397 361.714 123.719 361.714 126.77C361.714 129.821 361.142 132.169 359.998 133.816C358.854 135.445 357.199 136.26 355.032 136.26ZM355.032 133.53C356.211 133.53 357.078 132.993 357.632 131.918C358.204 130.826 358.49 129.11 358.49 126.77C358.49 124.447 358.204 122.766 357.632 121.726C357.078 120.669 356.211 120.14 355.032 120.14C353.871 120.14 353.004 120.669 352.432 121.726C351.86 122.766 351.574 124.447 351.574 126.77C351.574 129.11 351.86 130.826 352.432 131.918C353.004 132.993 353.871 133.53 355.032 133.53ZM364.902 136V133.53L370.83 127.212C371.628 126.345 372.2 125.583 372.546 124.924C372.893 124.248 373.066 123.563 373.066 122.87C373.066 121.102 372 120.218 369.868 120.218C368.204 120.218 366.67 120.842 365.266 122.09L364.148 119.594C364.876 118.935 365.786 118.407 366.878 118.008C367.97 117.609 369.106 117.41 370.284 117.41C372.243 117.41 373.742 117.852 374.782 118.736C375.84 119.62 376.368 120.885 376.368 122.532C376.368 123.641 376.1 124.707 375.562 125.73C375.042 126.753 374.219 127.853 373.092 129.032L369.062 133.244H377.07V136H364.902ZM380.492 136V133.53L386.42 127.212C387.217 126.345 387.789 125.583 388.136 124.924C388.483 124.248 388.656 123.563 388.656 122.87C388.656 121.102 387.59 120.218 385.458 120.218C383.794 120.218 382.26 120.842 380.856 122.09L379.738 119.594C380.466 118.935 381.376 118.407 382.468 118.008C383.56 117.609 384.695 117.41 385.874 117.41C387.833 117.41 389.332 117.852 390.372 118.736C391.429 119.62 391.958 120.885 391.958 122.532C391.958 123.641 391.689 124.707 391.152 125.73C390.632 126.753 389.809 127.853 388.682 129.032L384.652 133.244H392.66V136H380.492ZM398.76 130.566V129.526C398.76 128.711 398.907 127.957 399.202 127.264C399.514 126.571 400.034 125.817 400.762 125.002C401.317 124.395 401.698 123.875 401.906 123.442C402.131 123.009 402.244 122.549 402.244 122.064C402.244 121.492 402.036 121.041 401.62 120.712C401.204 120.383 400.615 120.218 399.852 120.218C398.153 120.218 396.585 120.842 395.146 122.09L394.054 119.594C394.782 118.935 395.683 118.407 396.758 118.008C397.85 117.609 398.951 117.41 400.06 117.41C401.152 117.41 402.105 117.592 402.92 117.956C403.752 118.32 404.393 118.823 404.844 119.464C405.312 120.105 405.546 120.859 405.546 121.726C405.546 122.523 405.364 123.269 405 123.962C404.653 124.655 404.029 125.409 403.128 126.224C402.313 126.969 401.75 127.619 401.438 128.174C401.126 128.729 400.927 129.283 400.84 129.838L400.736 130.566H398.76ZM397.928 136V132.386H401.568V136H397.928Z" fill="white"/>
<path d="M116 72.5H560.5V136C560.5 146.77 551.77 155.5 541 155.5H116C105.23 155.5 96.5 146.77 96.5 136V92C96.5 81.2304 105.23 72.5 116 72.5Z" stroke="#9F9EB0"/>
<path d="M275 200H1V237C1 247.493 9.50659 256 20 256H275C285.493 256 294 247.493 294 237V219C294 208.507 285.493 200 275 200Z" fill="white"/>
<path d="M35.184 242.538L32.662 238.456C32.1593 237.659 31.336 237.26 30.192 237.26C28.424 237.26 26.8813 236.87 25.564 236.09C24.2467 235.31 23.224 234.218 22.496 232.814C21.768 231.393 21.404 229.729 21.404 227.822C21.404 225.898 21.768 224.234 22.496 222.83C23.224 221.426 24.2467 220.343 25.564 219.58C26.8813 218.8 28.4327 218.41 30.218 218.41C32.0033 218.41 33.5547 218.8 34.872 219.58C36.1893 220.343 37.212 221.426 37.94 222.83C38.668 224.234 39.032 225.889 39.032 227.796C39.032 229.876 38.5987 231.661 37.732 233.152C36.8827 234.643 35.704 235.735 34.196 236.428C34.9413 236.671 35.5827 237.251 36.12 238.17L38.018 241.186L35.184 242.538ZM30.218 234.4C31.8993 234.4 33.208 233.819 34.144 232.658C35.08 231.497 35.548 229.885 35.548 227.822C35.548 225.742 35.08 224.13 34.144 222.986C33.2253 221.842 31.9167 221.27 30.218 221.27C28.5367 221.27 27.228 221.842 26.292 222.986C25.356 224.13 24.888 225.742 24.888 227.822C24.888 229.885 25.356 231.497 26.292 232.658C27.228 233.819 28.5367 234.4 30.218 234.4ZM46.7061 237.26C43.5861 237.26 42.0261 235.509 42.0261 232.008V224.286H45.2761V232.06C45.2761 232.961 45.4581 233.629 45.8221 234.062C46.1861 234.495 46.7667 234.712 47.5641 234.712C48.4307 234.712 49.1414 234.417 49.6961 233.828C50.2507 233.221 50.5281 232.424 50.5281 231.436V224.286H53.7781V237H50.6061V235.102C49.7567 236.541 48.4567 237.26 46.7061 237.26ZM63.4267 237.26C61.988 237.26 60.7487 236.991 59.7087 236.454C58.6687 235.917 57.8627 235.154 57.2907 234.166C56.736 233.178 56.4587 232.008 56.4587 230.656C56.4587 229.339 56.7274 228.186 57.2647 227.198C57.8194 226.21 58.5734 225.439 59.5267 224.884C60.4974 224.312 61.598 224.026 62.8287 224.026C64.6314 224.026 66.0527 224.598 67.0927 225.742C68.15 226.886 68.6787 228.446 68.6787 230.422V231.384H59.5787C59.8214 233.655 61.1214 234.79 63.4787 234.79C64.1894 234.79 64.9 234.686 65.6107 234.478C66.3214 234.253 66.9714 233.906 67.5607 233.438L68.4707 235.622C67.864 236.125 67.1014 236.523 66.1827 236.818C65.264 237.113 64.3454 237.26 63.4267 237.26ZM62.9587 226.236C62.0054 226.236 61.234 226.531 60.6447 227.12C60.0554 227.709 59.7 228.507 59.5787 229.512H65.9747C65.9054 228.455 65.6107 227.649 65.0907 227.094C64.588 226.522 63.8774 226.236 62.9587 226.236ZM75.9065 237.26C74.8318 237.26 73.8265 237.13 72.8905 236.87C71.9545 236.61 71.1745 236.237 70.5505 235.752L71.3825 233.62C72.0238 234.053 72.7432 234.391 73.5405 234.634C74.3378 234.859 75.1352 234.972 75.9325 234.972C76.7645 234.972 77.3798 234.833 77.7785 234.556C78.1945 234.261 78.4025 233.88 78.4025 233.412C78.4025 232.684 77.8652 232.216 76.7905 232.008L74.1905 231.514C71.9892 231.098 70.8885 229.954 70.8885 228.082C70.8885 227.25 71.1138 226.531 71.5645 225.924C72.0325 225.317 72.6738 224.849 73.4885 224.52C74.3032 224.191 75.2392 224.026 76.2965 224.026C77.1978 224.026 78.0645 224.156 78.8965 224.416C79.7285 224.659 80.4392 225.031 81.0285 225.534L80.1445 227.666C79.6418 227.25 79.0352 226.921 78.3245 226.678C77.6312 226.435 76.9638 226.314 76.3225 226.314C75.4732 226.314 74.8405 226.461 74.4245 226.756C74.0258 227.051 73.8265 227.441 73.8265 227.926C73.8265 228.689 74.3205 229.157 75.3085 229.33L77.9085 229.824C79.0352 230.032 79.8845 230.413 80.4565 230.968C81.0458 231.523 81.3405 232.268 81.3405 233.204C81.3405 234.469 80.8465 235.466 79.8585 236.194C78.8705 236.905 77.5532 237.26 75.9065 237.26ZM89.6449 237.26C86.2822 237.26 84.6009 235.596 84.6009 232.268V226.73H82.1569V224.286H84.6009V220.49H87.8509V224.286H91.6989V226.73H87.8509V232.086C87.8509 232.918 88.0329 233.542 88.3969 233.958C88.7609 234.374 89.3502 234.582 90.1649 234.582C90.4075 234.582 90.6589 234.556 90.9189 234.504C91.1789 234.435 91.4475 234.365 91.7249 234.296L92.2189 236.688C91.9069 236.861 91.5082 237 91.0229 237.104C90.5549 237.208 90.0955 237.26 89.6449 237.26ZM93.5914 221.556V218.384H97.2314V221.556H93.5914ZM93.7994 237V224.286H97.0494V237H93.7994ZM106.224 237.26C104.907 237.26 103.763 236.991 102.792 236.454C101.822 235.917 101.068 235.154 100.53 234.166C99.993 233.161 99.7243 231.982 99.7243 230.63C99.7243 229.278 99.993 228.108 100.53 227.12C101.068 226.132 101.822 225.369 102.792 224.832C103.763 224.295 104.907 224.026 106.224 224.026C107.542 224.026 108.686 224.295 109.656 224.832C110.627 225.369 111.381 226.132 111.918 227.12C112.456 228.108 112.724 229.278 112.724 230.63C112.724 231.982 112.456 233.161 111.918 234.166C111.381 235.154 110.627 235.917 109.656 236.454C108.686 236.991 107.542 237.26 106.224 237.26ZM106.224 234.79C107.195 234.79 107.975 234.443 108.564 233.75C109.154 233.039 109.448 231.999 109.448 230.63C109.448 229.243 109.154 228.212 108.564 227.536C107.975 226.843 107.195 226.496 106.224 226.496C105.254 226.496 104.474 226.843 103.884 227.536C103.295 228.212 103 229.243 103 230.63C103 231.999 103.295 233.039 103.884 233.75C104.474 234.443 105.254 234.79 106.224 234.79ZM115.407 237V224.286H118.579V226.262C119.012 225.534 119.593 224.979 120.321 224.598C121.066 224.217 121.898 224.026 122.817 224.026C125.815 224.026 127.315 225.768 127.315 229.252V237H124.065V229.408C124.065 228.42 123.874 227.701 123.493 227.25C123.129 226.799 122.557 226.574 121.777 226.574C120.823 226.574 120.061 226.877 119.489 227.484C118.934 228.073 118.657 228.862 118.657 229.85V237H115.407ZM137.624 237V224.286H140.796V226.522C141.42 225.014 142.754 224.182 144.8 224.026L145.788 223.948L145.996 226.704L144.124 226.886C141.992 227.094 140.926 228.186 140.926 230.162V237H137.624ZM153.868 237.26C152.429 237.26 151.19 236.991 150.15 236.454C149.11 235.917 148.304 235.154 147.732 234.166C147.177 233.178 146.9 232.008 146.9 230.656C146.9 229.339 147.169 228.186 147.706 227.198C148.261 226.21 149.015 225.439 149.968 224.884C150.939 224.312 152.039 224.026 153.27 224.026C155.073 224.026 156.494 224.598 157.534 225.742C158.591 226.886 159.12 228.446 159.12 230.422V231.384H150.02C150.263 233.655 151.563 234.79 153.92 234.79C154.631 234.79 155.341 234.686 156.052 234.478C156.763 234.253 157.413 233.906 158.002 233.438L158.912 235.622C158.305 236.125 157.543 236.523 156.624 236.818C155.705 237.113 154.787 237.26 153.868 237.26ZM153.4 226.236C152.447 226.236 151.675 226.531 151.086 227.12C150.497 227.709 150.141 228.507 150.02 229.512H156.416C156.347 228.455 156.052 227.649 155.532 227.094C155.029 226.522 154.319 226.236 153.4 226.236ZM167.57 237.26C166.235 237.26 165.074 236.991 164.086 236.454C163.098 235.899 162.335 235.119 161.798 234.114C161.261 233.109 160.992 231.93 160.992 230.578C160.992 229.226 161.261 228.065 161.798 227.094C162.335 226.106 163.098 225.352 164.086 224.832C165.074 224.295 166.235 224.026 167.57 224.026C168.385 224.026 169.191 224.156 169.988 224.416C170.785 224.676 171.444 225.04 171.964 225.508L171.002 227.77C170.551 227.371 170.04 227.068 169.468 226.86C168.913 226.652 168.376 226.548 167.856 226.548C166.729 226.548 165.854 226.903 165.23 227.614C164.623 228.307 164.32 229.304 164.32 230.604C164.32 231.887 164.623 232.901 165.23 233.646C165.854 234.374 166.729 234.738 167.856 234.738C168.359 234.738 168.896 234.634 169.468 234.426C170.04 234.218 170.551 233.906 171.002 233.49L171.964 235.778C171.444 236.229 170.777 236.593 169.962 236.87C169.165 237.13 168.367 237.26 167.57 237.26ZM179.97 237.26C178.531 237.26 177.292 236.991 176.252 236.454C175.212 235.917 174.406 235.154 173.834 234.166C173.279 233.178 173.002 232.008 173.002 230.656C173.002 229.339 173.27 228.186 173.808 227.198C174.362 226.21 175.116 225.439 176.07 224.884C177.04 224.312 178.141 224.026 179.372 224.026C181.174 224.026 182.596 224.598 183.636 225.742C184.693 226.886 185.222 228.446 185.222 230.422V231.384H176.122C176.364 233.655 177.664 234.79 180.022 234.79C180.732 234.79 181.443 234.686 182.154 234.478C182.864 234.253 183.514 233.906 184.104 233.438L185.014 235.622C184.407 236.125 183.644 236.523 182.726 236.818C181.807 237.113 180.888 237.26 179.97 237.26ZM179.502 226.236C178.548 226.236 177.777 226.531 177.188 227.12C176.598 227.709 176.243 228.507 176.122 229.512H182.518C182.448 228.455 182.154 227.649 181.634 227.094C181.131 226.522 180.42 226.236 179.502 226.236ZM187.587 221.556V218.384H191.227V221.556H187.587ZM187.795 237V224.286H191.045V237H187.795ZM198.166 237L192.654 224.286H196.112L199.648 233.178L203.314 224.286H206.564L200.974 237H198.166ZM214.145 237.26C212.707 237.26 211.467 236.991 210.427 236.454C209.387 235.917 208.581 235.154 208.009 234.166C207.455 233.178 207.177 232.008 207.177 230.656C207.177 229.339 207.446 228.186 207.983 227.198C208.538 226.21 209.292 225.439 210.245 224.884C211.216 224.312 212.317 224.026 213.547 224.026C215.35 224.026 216.771 224.598 217.811 225.742C218.869 226.886 219.397 228.446 219.397 230.422V231.384H210.297C210.54 233.655 211.84 234.79 214.197 234.79C214.908 234.79 215.619 234.686 216.329 234.478C217.04 234.253 217.69 233.906 218.279 233.438L219.189 235.622C218.583 236.125 217.82 236.523 216.901 236.818C215.983 237.113 215.064 237.26 214.145 237.26ZM213.677 226.236C212.724 226.236 211.953 226.531 211.363 227.12C210.774 227.709 210.419 228.507 210.297 229.512H216.693C216.624 228.455 216.329 227.649 215.809 227.094C215.307 226.522 214.596 226.236 213.677 226.236ZM226.859 237.26C225.75 237.26 224.771 236.991 223.921 236.454C223.089 235.917 222.439 235.154 221.971 234.166C221.503 233.161 221.269 231.982 221.269 230.63C221.269 229.261 221.503 228.091 221.971 227.12C222.439 226.132 223.089 225.369 223.921 224.832C224.771 224.295 225.75 224.026 226.859 224.026C227.761 224.026 228.575 224.225 229.303 224.624C230.031 225.023 230.577 225.551 230.941 226.21V218.67H234.191V237H231.019V234.894C230.673 235.622 230.127 236.203 229.381 236.636C228.636 237.052 227.795 237.26 226.859 237.26ZM227.769 234.79C228.74 234.79 229.52 234.443 230.109 233.75C230.699 233.039 230.993 231.999 230.993 230.63C230.993 229.243 230.699 228.212 230.109 227.536C229.52 226.843 228.74 226.496 227.769 226.496C226.799 226.496 226.019 226.843 225.429 227.536C224.84 228.212 224.545 229.243 224.545 230.63C224.545 231.999 224.84 233.039 225.429 233.75C226.019 234.443 226.799 234.79 227.769 234.79Z" fill="#9F9EB0"/>
<path d="M275 200H1V237C1 247.493 9.50659 256 20 256H275C285.493 256 294 247.493 294 237V219C294 208.507 285.493 200 275 200Z" stroke="#E9E9ED" stroke-width="2"/>
<path d="M406 272H1V363C1 373.493 9.50659 382 20 382H406C416.493 382 425 373.493 425 363V291C425 280.507 416.493 272 406 272Z" fill="white"/>
<path d="M28.19 309.234C26.7513 309.234 25.4513 309.052 24.29 308.688C23.1287 308.307 22.1233 307.761 21.274 307.05L22.028 305.334C22.912 306.01 23.8393 306.513 24.81 306.842C25.7807 307.171 26.9073 307.336 28.19 307.336C29.75 307.336 30.9027 307.05 31.648 306.478C32.4107 305.889 32.792 305.117 32.792 304.164C32.792 303.401 32.5147 302.795 31.96 302.344C31.4227 301.893 30.5127 301.538 29.23 301.278L26.526 300.732C24.8967 300.385 23.6747 299.822 22.86 299.042C22.0627 298.245 21.664 297.187 21.664 295.87C21.664 294.778 21.9413 293.825 22.496 293.01C23.068 292.195 23.8567 291.563 24.862 291.112C25.8673 290.661 27.0287 290.436 28.346 290.436C29.5767 290.436 30.7207 290.635 31.778 291.034C32.8353 291.415 33.728 291.97 34.456 292.698L33.702 294.362C32.922 293.651 32.0987 293.14 31.232 292.828C30.3653 292.499 29.3947 292.334 28.32 292.334C26.9507 292.334 25.8587 292.655 25.044 293.296C24.2293 293.92 23.822 294.752 23.822 295.792C23.822 296.624 24.0733 297.283 24.576 297.768C25.096 298.253 25.9367 298.609 27.098 298.834L29.802 299.406C31.5527 299.77 32.844 300.325 33.676 301.07C34.5253 301.798 34.95 302.795 34.95 304.06C34.95 305.083 34.6727 305.984 34.118 306.764C33.5807 307.544 32.8007 308.151 31.778 308.584C30.7727 309.017 29.5767 309.234 28.19 309.234ZM42.4441 309.234C39.4108 309.234 37.8941 307.561 37.8941 304.216V296.364H40.0001V304.19C40.0001 305.317 40.2254 306.149 40.6761 306.686C41.1441 307.223 41.8721 307.492 42.8601 307.492C43.9348 307.492 44.8101 307.137 45.4861 306.426C46.1621 305.698 46.5001 304.736 46.5001 303.54V296.364H48.6061V309H46.5521V306.868C46.1534 307.631 45.5901 308.22 44.8621 308.636C44.1514 309.035 43.3454 309.234 42.4441 309.234ZM58.9423 309.234C57.937 309.234 57.053 309.009 56.2903 308.558C55.545 308.107 54.9816 307.492 54.6003 306.712V309H52.5463V290.67H54.6523V298.548C55.0163 297.803 55.5796 297.213 56.3423 296.78C57.105 296.347 57.9716 296.13 58.9423 296.13C60.069 296.13 61.0483 296.399 61.8803 296.936C62.7296 297.456 63.3796 298.21 63.8303 299.198C64.2983 300.169 64.5323 301.33 64.5323 302.682C64.5323 304.017 64.2983 305.178 63.8303 306.166C63.3796 307.137 62.7296 307.891 61.8803 308.428C61.0483 308.965 60.069 309.234 58.9423 309.234ZM58.5003 307.544C59.679 307.544 60.6236 307.128 61.3343 306.296C62.045 305.447 62.4003 304.242 62.4003 302.682C62.4003 301.105 62.045 299.9 61.3343 299.068C60.6236 298.236 59.679 297.82 58.5003 297.82C57.3216 297.82 56.377 298.236 55.6663 299.068C54.9556 299.9 54.6003 301.105 54.6003 302.682C54.6003 304.242 54.9556 305.447 55.6663 306.296C56.377 307.128 57.3216 307.544 58.5003 307.544ZM67.9814 302.942V301.2H75.2614V302.942H67.9814ZM92.1569 314.226L89.9729 310.716C89.3836 309.728 88.4216 309.234 87.0869 309.234C85.3882 309.234 83.9062 308.853 82.6409 308.09C81.3929 307.31 80.4222 306.218 79.7289 304.814C79.0529 303.41 78.7149 301.746 78.7149 299.822C78.7149 297.898 79.0529 296.234 79.7289 294.83C80.4049 293.426 81.3669 292.343 82.6149 291.58C83.8802 290.817 85.3709 290.436 87.0869 290.436C88.8202 290.436 90.3109 290.817 91.5589 291.58C92.8242 292.343 93.7949 293.426 94.4709 294.83C95.1642 296.217 95.5109 297.872 95.5109 299.796C95.5109 302.032 95.0516 303.921 94.1329 305.464C93.2142 306.989 91.9402 308.064 90.3109 308.688C91.0042 308.913 91.6369 309.511 92.2089 310.482L93.9509 313.29L92.1569 314.226ZM87.0869 307.336C89.0456 307.336 90.5622 306.677 91.6369 305.36C92.7116 304.043 93.2489 302.197 93.2489 299.822C93.2489 297.447 92.7116 295.61 91.6369 294.31C90.5622 292.993 89.0456 292.334 87.0869 292.334C85.1629 292.334 83.6636 292.993 82.5889 294.31C81.5142 295.61 80.9769 297.447 80.9769 299.822C80.9769 302.179 81.5142 304.025 82.5889 305.36C83.6636 306.677 85.1629 307.336 87.0869 307.336ZM103.509 309.234C100.475 309.234 98.9585 307.561 98.9585 304.216V296.364H101.065V304.19C101.065 305.317 101.29 306.149 101.741 306.686C102.209 307.223 102.937 307.492 103.925 307.492C104.999 307.492 105.875 307.137 106.551 306.426C107.227 305.698 107.565 304.736 107.565 303.54V296.364H109.671V309H107.617V306.868C107.218 307.631 106.655 308.22 105.927 308.636C105.216 309.035 104.41 309.234 103.509 309.234ZM119.305 309.234C117.311 309.234 115.734 308.653 114.573 307.492C113.411 306.313 112.831 304.719 112.831 302.708C112.831 301.408 113.091 300.264 113.611 299.276C114.131 298.271 114.841 297.499 115.743 296.962C116.661 296.407 117.719 296.13 118.915 296.13C120.631 296.13 121.974 296.685 122.945 297.794C123.915 298.886 124.401 300.394 124.401 302.318V303.124H114.885C114.954 304.563 115.37 305.663 116.133 306.426C116.895 307.171 117.953 307.544 119.305 307.544C120.067 307.544 120.795 307.431 121.489 307.206C122.182 306.963 122.841 306.573 123.465 306.036L124.193 307.518C123.621 308.055 122.893 308.48 122.009 308.792C121.125 309.087 120.223 309.234 119.305 309.234ZM118.967 297.69C117.771 297.69 116.826 298.063 116.133 298.808C115.439 299.553 115.032 300.533 114.911 301.746H122.581C122.529 300.463 122.191 299.467 121.567 298.756C120.96 298.045 120.093 297.69 118.967 297.69ZM127.449 309V296.364H129.503V298.626C130.179 297.101 131.565 296.26 133.663 296.104L134.417 296.026L134.573 297.846L133.247 298.002C132.051 298.106 131.141 298.487 130.517 299.146C129.893 299.787 129.581 300.671 129.581 301.798V309H127.449ZM139.01 313.68L141.168 308.792L135.838 296.364H138.126L142.312 306.608L146.524 296.364H148.734L141.22 313.68H139.01ZM157.899 309L158.835 304.268H156.521V302.734H159.121L160.291 296.728H157.041V295.194H160.551L161.461 290.67H163.099L162.215 295.194H166.349L167.233 290.67H168.897L168.013 295.194H170.301V296.728H167.701L166.531 302.734H169.781V304.268H166.271L165.335 309H163.671L164.581 304.268H160.473L159.563 309H157.899ZM160.759 302.734H164.867L166.063 296.728H161.929L160.759 302.734ZM174.425 309V307.18H178.611V293.244L175.309 295.324L174.399 293.738L179.209 290.67H180.743V307.18H184.669V309H174.425Z" fill="#9F9EB0"/>
<path d="M27.046 337L20.572 318.67H24.004L28.554 332.19L33.338 318.67H35.808L40.488 332.372L45.168 318.67H48.418L41.892 337H39.136L34.482 323.766L29.802 337H27.046ZM50.6353 337V318.67H53.8853V326.132C54.3186 325.439 54.8993 324.919 55.6273 324.572C56.3553 324.208 57.1613 324.026 58.0453 324.026C61.044 324.026 62.5433 325.768 62.5433 329.252V337H59.2933V329.408C59.2933 328.42 59.1026 327.701 58.7213 327.25C58.3573 326.799 57.7853 326.574 57.0053 326.574C56.052 326.574 55.2893 326.877 54.7173 327.484C54.1626 328.073 53.8853 328.862 53.8853 329.85V337H50.6353ZM70.0303 337.26C69.1116 337.26 68.2883 337.087 67.5603 336.74C66.8496 336.376 66.2863 335.891 65.8703 335.284C65.4716 334.677 65.2723 333.993 65.2723 333.23C65.2723 332.294 65.515 331.557 66.0003 331.02C66.4856 330.465 67.2743 330.067 68.3663 329.824C69.4583 329.581 70.923 329.46 72.7603 329.46H73.6703V328.914C73.6703 328.047 73.4796 327.423 73.0983 327.042C72.717 326.661 72.0756 326.47 71.1743 326.47C70.4636 326.47 69.7356 326.583 68.9903 326.808C68.245 327.016 67.491 327.345 66.7283 327.796L65.7923 325.586C66.243 325.274 66.7716 325.005 67.3783 324.78C68.0023 324.537 68.6523 324.355 69.3283 324.234C70.0216 324.095 70.6716 324.026 71.2783 324.026C73.133 324.026 74.511 324.459 75.4123 325.326C76.3136 326.175 76.7643 327.501 76.7643 329.304V337H73.7223V334.972C73.4276 335.683 72.9596 336.246 72.3183 336.662C71.677 337.061 70.9143 337.26 70.0303 337.26ZM70.7063 335.024C71.5556 335.024 72.2576 334.729 72.8123 334.14C73.3843 333.551 73.6703 332.805 73.6703 331.904V331.332H72.7863C71.157 331.332 70.0216 331.462 69.3803 331.722C68.7563 331.965 68.4443 332.415 68.4443 333.074C68.4443 333.646 68.6436 334.114 69.0423 334.478C69.441 334.842 69.9956 335.024 70.7063 335.024ZM85.887 337.26C82.5244 337.26 80.843 335.596 80.843 332.268V326.73H78.399V324.286H80.843V320.49H84.093V324.286H87.941V326.73H84.093V332.086C84.093 332.918 84.275 333.542 84.639 333.958C85.003 334.374 85.5924 334.582 86.407 334.582C86.6497 334.582 86.901 334.556 87.161 334.504C87.421 334.435 87.6897 334.365 87.967 334.296L88.461 336.688C88.149 336.861 87.7504 337 87.265 337.104C86.797 337.208 86.3377 337.26 85.887 337.26ZM100.559 337L95.5414 324.286H98.8694L102.119 333.23L105.395 324.286H107.683L110.959 333.282L114.209 324.286H117.355L112.363 337H109.529L106.435 328.81L103.393 337H100.559ZM123.147 337.26C122.229 337.26 121.405 337.087 120.677 336.74C119.967 336.376 119.403 335.891 118.987 335.284C118.589 334.677 118.389 333.993 118.389 333.23C118.389 332.294 118.632 331.557 119.117 331.02C119.603 330.465 120.391 330.067 121.483 329.824C122.575 329.581 124.04 329.46 125.877 329.46H126.787V328.914C126.787 328.047 126.597 327.423 126.215 327.042C125.834 326.661 125.193 326.47 124.291 326.47C123.581 326.47 122.853 326.583 122.107 326.808C121.362 327.016 120.608 327.345 119.845 327.796L118.909 325.586C119.36 325.274 119.889 325.005 120.495 324.78C121.119 324.537 121.769 324.355 122.445 324.234C123.139 324.095 123.789 324.026 124.395 324.026C126.25 324.026 127.628 324.459 128.529 325.326C129.431 326.175 129.881 327.501 129.881 329.304V337H126.839V334.972C126.545 335.683 126.077 336.246 125.435 336.662C124.794 337.061 124.031 337.26 123.147 337.26ZM123.823 335.024C124.673 335.024 125.375 334.729 125.929 334.14C126.501 333.551 126.787 332.805 126.787 331.904V331.332H125.903C124.274 331.332 123.139 331.462 122.497 331.722C121.873 331.965 121.561 332.415 121.561 333.074C121.561 333.646 121.761 334.114 122.159 334.478C122.558 334.842 123.113 335.024 123.823 335.024ZM137.834 337.26C136.76 337.26 135.754 337.13 134.818 336.87C133.882 336.61 133.102 336.237 132.478 335.752L133.31 333.62C133.952 334.053 134.671 334.391 135.468 334.634C136.266 334.859 137.063 334.972 137.86 334.972C138.692 334.972 139.308 334.833 139.706 334.556C140.122 334.261 140.33 333.88 140.33 333.412C140.33 332.684 139.793 332.216 138.718 332.008L136.118 331.514C133.917 331.098 132.816 329.954 132.816 328.082C132.816 327.25 133.042 326.531 133.492 325.924C133.96 325.317 134.602 324.849 135.416 324.52C136.231 324.191 137.167 324.026 138.224 324.026C139.126 324.026 139.992 324.156 140.824 324.416C141.656 324.659 142.367 325.031 142.956 325.534L142.072 327.666C141.57 327.25 140.963 326.921 140.252 326.678C139.559 326.435 138.892 326.314 138.25 326.314C137.401 326.314 136.768 326.461 136.352 326.756C135.954 327.051 135.754 327.441 135.754 327.926C135.754 328.689 136.248 329.157 137.236 329.33L139.836 329.824C140.963 330.032 141.812 330.413 142.384 330.968C142.974 331.523 143.268 332.268 143.268 333.204C143.268 334.469 142.774 335.466 141.786 336.194C140.798 336.905 139.481 337.26 137.834 337.26ZM153.195 337V318.67H155.691L165.545 331.462V318.67H168.639V337H166.169L156.289 324.156V337H153.195ZM172.645 337V318.67H184.631V321.322H175.973V326.496H184.085V329.148H175.973V337H172.645ZM187.244 337V318.67H190.572V334.166H199.36V337H187.244ZM199.178 337L206.172 327.666L199.438 318.67H203.312L208.07 325.248L212.828 318.67H216.728L209.994 327.666L216.962 337H213.062L208.07 330.136L203.104 337H199.178ZM225.501 337V324.286H228.673V326.522C229.297 325.014 230.631 324.182 232.677 324.026L233.665 323.948L233.873 326.704L232.001 326.886C229.869 327.094 228.803 328.186 228.803 330.162V337H225.501ZM241.745 337.26C240.306 337.26 239.067 336.991 238.027 336.454C236.987 335.917 236.181 335.154 235.609 334.166C235.054 333.178 234.777 332.008 234.777 330.656C234.777 329.339 235.046 328.186 235.583 327.198C236.138 326.21 236.892 325.439 237.845 324.884C238.816 324.312 239.916 324.026 241.147 324.026C242.95 324.026 244.371 324.598 245.411 325.742C246.468 326.886 246.997 328.446 246.997 330.422V331.384H237.897C238.14 333.655 239.44 334.79 241.797 334.79C242.508 334.79 243.218 334.686 243.929 334.478C244.64 334.253 245.29 333.906 245.879 333.438L246.789 335.622C246.182 336.125 245.42 336.523 244.501 336.818C243.582 337.113 242.664 337.26 241.745 337.26ZM241.277 326.236C240.324 326.236 239.552 326.531 238.963 327.12C238.374 327.709 238.018 328.507 237.897 329.512H244.293C244.224 328.455 243.929 327.649 243.409 327.094C242.906 326.522 242.196 326.236 241.277 326.236ZM253.112 337L247.6 324.286H251.058L254.594 333.178L258.26 324.286H261.51L255.92 337H253.112ZM269.091 337.26C267.652 337.26 266.413 336.991 265.373 336.454C264.333 335.917 263.527 335.154 262.955 334.166C262.4 333.178 262.123 332.008 262.123 330.656C262.123 329.339 262.391 328.186 262.929 327.198C263.483 326.21 264.237 325.439 265.191 324.884C266.161 324.312 267.262 324.026 268.493 324.026C270.295 324.026 271.717 324.598 272.757 325.742C273.814 326.886 274.343 328.446 274.343 330.422V331.384H265.243C265.485 333.655 266.785 334.79 269.143 334.79C269.853 334.79 270.564 334.686 271.275 334.478C271.985 334.253 272.635 333.906 273.225 333.438L274.135 335.622C273.528 336.125 272.765 336.523 271.847 336.818C270.928 337.113 270.009 337.26 269.091 337.26ZM268.623 326.236C267.669 326.236 266.898 326.531 266.309 327.12C265.719 327.709 265.364 328.507 265.243 329.512H271.639C271.569 328.455 271.275 327.649 270.755 327.094C270.252 326.522 269.541 326.236 268.623 326.236ZM276.917 337V324.286H280.089V326.262C280.522 325.534 281.103 324.979 281.831 324.598C282.576 324.217 283.408 324.026 284.327 324.026C287.325 324.026 288.825 325.768 288.825 329.252V337H285.575V329.408C285.575 328.42 285.384 327.701 285.003 327.25C284.639 326.799 284.067 326.574 283.287 326.574C282.333 326.574 281.571 326.877 280.999 327.484C280.444 328.073 280.167 328.862 280.167 329.85V337H276.917ZM296.728 337.26C293.608 337.26 292.048 335.509 292.048 332.008V324.286H295.298V332.06C295.298 332.961 295.48 333.629 295.844 334.062C296.208 334.495 296.788 334.712 297.586 334.712C298.452 334.712 299.163 334.417 299.718 333.828C300.272 333.221 300.55 332.424 300.55 331.436V324.286H303.8V337H300.628V335.102C299.778 336.541 298.478 337.26 296.728 337.26ZM313.448 337.26C312.01 337.26 310.77 336.991 309.73 336.454C308.69 335.917 307.884 335.154 307.312 334.166C306.758 333.178 306.48 332.008 306.48 330.656C306.48 329.339 306.749 328.186 307.286 327.198C307.841 326.21 308.595 325.439 309.548 324.884C310.519 324.312 311.62 324.026 312.85 324.026C314.653 324.026 316.074 324.598 317.114 325.742C318.172 326.886 318.7 328.446 318.7 330.422V331.384H309.6C309.843 333.655 311.143 334.79 313.5 334.79C314.211 334.79 314.922 334.686 315.632 334.478C316.343 334.253 316.993 333.906 317.582 333.438L318.492 335.622C317.886 336.125 317.123 336.523 316.204 336.818C315.286 337.113 314.367 337.26 313.448 337.26ZM312.98 326.236C312.027 326.236 311.256 326.531 310.666 327.12C310.077 327.709 309.722 328.507 309.6 329.512H315.996C315.927 328.455 315.632 327.649 315.112 327.094C314.61 326.522 313.899 326.236 312.98 326.236ZM328.074 321.556V318.384H331.714V321.556H328.074ZM328.282 337V324.286H331.532V337H328.282ZM334.909 337V324.286H338.081V326.262C338.514 325.534 339.095 324.979 339.823 324.598C340.568 324.217 341.4 324.026 342.319 324.026C345.317 324.026 346.817 325.768 346.817 329.252V337H343.567V329.408C343.567 328.42 343.376 327.701 342.995 327.25C342.631 326.799 342.059 326.574 341.279 326.574C340.325 326.574 339.563 326.877 338.991 327.484C338.436 328.073 338.159 328.862 338.159 329.85V337H334.909ZM22.08 363V360.53L28.008 354.212C28.8053 353.345 29.3773 352.583 29.724 351.924C30.0707 351.248 30.244 350.563 30.244 349.87C30.244 348.102 29.178 347.218 27.046 347.218C25.382 347.218 23.848 347.842 22.444 349.09L21.326 346.594C22.054 345.935 22.964 345.407 24.056 345.008C25.148 344.609 26.2833 344.41 27.462 344.41C29.4207 344.41 30.92 344.852 31.96 345.736C33.0173 346.62 33.546 347.885 33.546 349.532C33.546 350.641 33.2773 351.707 32.74 352.73C32.22 353.753 31.3967 354.853 30.27 356.032L26.24 360.244H34.248V363H22.08ZM43.3898 363.26C41.2232 363.26 39.5678 362.445 38.4238 360.816C37.2798 359.169 36.7078 356.829 36.7078 353.796C36.7078 350.728 37.2798 348.397 38.4238 346.802C39.5678 345.207 41.2232 344.41 43.3898 344.41C45.5738 344.41 47.2292 345.207 48.3558 346.802C49.4998 348.397 50.0718 350.719 50.0718 353.77C50.0718 356.821 49.4998 359.169 48.3558 360.816C47.2118 362.445 45.5565 363.26 43.3898 363.26ZM43.3898 360.53C44.5685 360.53 45.4352 359.993 45.9898 358.918C46.5618 357.826 46.8478 356.11 46.8478 353.77C46.8478 351.447 46.5618 349.766 45.9898 348.726C45.4352 347.669 44.5685 347.14 43.3898 347.14C42.2285 347.14 41.3618 347.669 40.7898 348.726C40.2178 349.766 39.9318 351.447 39.9318 353.77C39.9318 356.11 40.2178 357.826 40.7898 358.918C41.3618 359.993 42.2285 360.53 43.3898 360.53ZM53.2597 363V360.53L59.1877 354.212C59.985 353.345 60.557 352.583 60.9037 351.924C61.2504 351.248 61.4237 350.563 61.4237 349.87C61.4237 348.102 60.3577 347.218 58.2257 347.218C56.5617 347.218 55.0277 347.842 53.6237 349.09L52.5057 346.594C53.2337 345.935 54.1437 345.407 55.2357 345.008C56.3277 344.609 57.463 344.41 58.6417 344.41C60.6004 344.41 62.0997 344.852 63.1397 345.736C64.197 346.62 64.7257 347.885 64.7257 349.532C64.7257 350.641 64.457 351.707 63.9197 352.73C63.3997 353.753 62.5764 354.853 61.4497 356.032L57.4197 360.244H65.4277V363H53.2597ZM68.8495 363V360.53L74.7775 354.212C75.5749 353.345 76.1469 352.583 76.4935 351.924C76.8402 351.248 77.0135 350.563 77.0135 349.87C77.0135 348.102 75.9475 347.218 73.8155 347.218C72.1515 347.218 70.6175 347.842 69.2135 349.09L68.0955 346.594C68.8235 345.935 69.7335 345.407 70.8255 345.008C71.9175 344.609 73.0529 344.41 74.2315 344.41C76.1902 344.41 77.6895 344.852 78.7295 345.736C79.7869 346.62 80.3155 347.885 80.3155 349.532C80.3155 350.641 80.0469 351.707 79.5095 352.73C78.9895 353.753 78.1662 354.853 77.0395 356.032L73.0095 360.244H81.0175V363H68.8495ZM87.1174 357.566V356.526C87.1174 355.711 87.2647 354.957 87.5594 354.264C87.8714 353.571 88.3914 352.817 89.1194 352.002C89.674 351.395 90.0554 350.875 90.2634 350.442C90.4887 350.009 90.6014 349.549 90.6014 349.064C90.6014 348.492 90.3934 348.041 89.9774 347.712C89.5614 347.383 88.972 347.218 88.2094 347.218C86.5107 347.218 84.942 347.842 83.5034 349.09L82.4114 346.594C83.1394 345.935 84.0407 345.407 85.1154 345.008C86.2074 344.609 87.308 344.41 88.4174 344.41C89.5094 344.41 90.4627 344.592 91.2774 344.956C92.1094 345.32 92.7507 345.823 93.2014 346.464C93.6694 347.105 93.9034 347.859 93.9034 348.726C93.9034 349.523 93.7214 350.269 93.3574 350.962C93.0107 351.655 92.3867 352.409 91.4854 353.224C90.6707 353.969 90.1074 354.619 89.7954 355.174C89.4834 355.729 89.284 356.283 89.1974 356.838L89.0934 357.566H87.1174ZM86.2854 363V359.386H89.9254V363H86.2854Z" fill="#9F9EB0"/>
<path d="M406 272H1V363C1 373.493 9.50659 382 20 382H406C416.493 382 425 373.493 425 363V291C425 280.507 416.493 272 406 272Z" stroke="#E9E9ED" stroke-width="2"/>
<path d="M406 398H1V489C1 499.493 9.50659 508 20 508H406C416.493 508 425 499.493 425 489V417C425 406.507 416.493 398 406 398Z" fill="white"/>
<path d="M28.19 435.234C26.7513 435.234 25.4513 435.052 24.29 434.688C23.1287 434.307 22.1233 433.761 21.274 433.05L22.028 431.334C22.912 432.01 23.8393 432.513 24.81 432.842C25.7807 433.171 26.9073 433.336 28.19 433.336C29.75 433.336 30.9027 433.05 31.648 432.478C32.4107 431.889 32.792 431.117 32.792 430.164C32.792 429.401 32.5147 428.795 31.96 428.344C31.4227 427.893 30.5127 427.538 29.23 427.278L26.526 426.732C24.8967 426.385 23.6747 425.822 22.86 425.042C22.0627 424.245 21.664 423.187 21.664 421.87C21.664 420.778 21.9413 419.825 22.496 419.01C23.068 418.195 23.8567 417.563 24.862 417.112C25.8673 416.661 27.0287 416.436 28.346 416.436C29.5767 416.436 30.7207 416.635 31.778 417.034C32.8353 417.415 33.728 417.97 34.456 418.698L33.702 420.362C32.922 419.651 32.0987 419.14 31.232 418.828C30.3653 418.499 29.3947 418.334 28.32 418.334C26.9507 418.334 25.8587 418.655 25.044 419.296C24.2293 419.92 23.822 420.752 23.822 421.792C23.822 422.624 24.0733 423.283 24.576 423.768C25.096 424.253 25.9367 424.609 27.098 424.834L29.802 425.406C31.5527 425.77 32.844 426.325 33.676 427.07C34.5253 427.798 34.95 428.795 34.95 430.06C34.95 431.083 34.6727 431.984 34.118 432.764C33.5807 433.544 32.8007 434.151 31.778 434.584C30.7727 435.017 29.5767 435.234 28.19 435.234ZM42.4441 435.234C39.4108 435.234 37.8941 433.561 37.8941 430.216V422.364H40.0001V430.19C40.0001 431.317 40.2254 432.149 40.6761 432.686C41.1441 433.223 41.8721 433.492 42.8601 433.492C43.9348 433.492 44.8101 433.137 45.4861 432.426C46.1621 431.698 46.5001 430.736 46.5001 429.54V422.364H48.6061V435H46.5521V432.868C46.1534 433.631 45.5901 434.22 44.8621 434.636C44.1514 435.035 43.3454 435.234 42.4441 435.234ZM58.9423 435.234C57.937 435.234 57.053 435.009 56.2903 434.558C55.545 434.107 54.9816 433.492 54.6003 432.712V435H52.5463V416.67H54.6523V424.548C55.0163 423.803 55.5796 423.213 56.3423 422.78C57.105 422.347 57.9716 422.13 58.9423 422.13C60.069 422.13 61.0483 422.399 61.8803 422.936C62.7296 423.456 63.3796 424.21 63.8303 425.198C64.2983 426.169 64.5323 427.33 64.5323 428.682C64.5323 430.017 64.2983 431.178 63.8303 432.166C63.3796 433.137 62.7296 433.891 61.8803 434.428C61.0483 434.965 60.069 435.234 58.9423 435.234ZM58.5003 433.544C59.679 433.544 60.6236 433.128 61.3343 432.296C62.045 431.447 62.4003 430.242 62.4003 428.682C62.4003 427.105 62.045 425.9 61.3343 425.068C60.6236 424.236 59.679 423.82 58.5003 423.82C57.3216 423.82 56.377 424.236 55.6663 425.068C54.9556 425.9 54.6003 427.105 54.6003 428.682C54.6003 430.242 54.9556 431.447 55.6663 432.296C56.377 433.128 57.3216 433.544 58.5003 433.544ZM67.9814 428.942V427.2H75.2614V428.942H67.9814ZM92.1569 440.226L89.9729 436.716C89.3836 435.728 88.4216 435.234 87.0869 435.234C85.3882 435.234 83.9062 434.853 82.6409 434.09C81.3929 433.31 80.4222 432.218 79.7289 430.814C79.0529 429.41 78.7149 427.746 78.7149 425.822C78.7149 423.898 79.0529 422.234 79.7289 420.83C80.4049 419.426 81.3669 418.343 82.6149 417.58C83.8802 416.817 85.3709 416.436 87.0869 416.436C88.8202 416.436 90.3109 416.817 91.5589 417.58C92.8242 418.343 93.7949 419.426 94.4709 420.83C95.1642 422.217 95.5109 423.872 95.5109 425.796C95.5109 428.032 95.0516 429.921 94.1329 431.464C93.2142 432.989 91.9402 434.064 90.3109 434.688C91.0042 434.913 91.6369 435.511 92.2089 436.482L93.9509 439.29L92.1569 440.226ZM87.0869 433.336C89.0456 433.336 90.5622 432.677 91.6369 431.36C92.7116 430.043 93.2489 428.197 93.2489 425.822C93.2489 423.447 92.7116 421.61 91.6369 420.31C90.5622 418.993 89.0456 418.334 87.0869 418.334C85.1629 418.334 83.6636 418.993 82.5889 420.31C81.5142 421.61 80.9769 423.447 80.9769 425.822C80.9769 428.179 81.5142 430.025 82.5889 431.36C83.6636 432.677 85.1629 433.336 87.0869 433.336ZM103.509 435.234C100.475 435.234 98.9585 433.561 98.9585 430.216V422.364H101.065V430.19C101.065 431.317 101.29 432.149 101.741 432.686C102.209 433.223 102.937 433.492 103.925 433.492C104.999 433.492 105.875 433.137 106.551 432.426C107.227 431.698 107.565 430.736 107.565 429.54V422.364H109.671V435H107.617V432.868C107.218 433.631 106.655 434.22 105.927 434.636C105.216 435.035 104.41 435.234 103.509 435.234ZM119.305 435.234C117.311 435.234 115.734 434.653 114.573 433.492C113.411 432.313 112.831 430.719 112.831 428.708C112.831 427.408 113.091 426.264 113.611 425.276C114.131 424.271 114.841 423.499 115.743 422.962C116.661 422.407 117.719 422.13 118.915 422.13C120.631 422.13 121.974 422.685 122.945 423.794C123.915 424.886 124.401 426.394 124.401 428.318V429.124H114.885C114.954 430.563 115.37 431.663 116.133 432.426C116.895 433.171 117.953 433.544 119.305 433.544C120.067 433.544 120.795 433.431 121.489 433.206C122.182 432.963 122.841 432.573 123.465 432.036L124.193 433.518C123.621 434.055 122.893 434.48 122.009 434.792C121.125 435.087 120.223 435.234 119.305 435.234ZM118.967 423.69C117.771 423.69 116.826 424.063 116.133 424.808C115.439 425.553 115.032 426.533 114.911 427.746H122.581C122.529 426.463 122.191 425.467 121.567 424.756C120.96 424.045 120.093 423.69 118.967 423.69ZM127.449 435V422.364H129.503V424.626C130.179 423.101 131.565 422.26 133.663 422.104L134.417 422.026L134.573 423.846L133.247 424.002C132.051 424.106 131.141 424.487 130.517 425.146C129.893 425.787 129.581 426.671 129.581 427.798V435H127.449ZM139.01 439.68L141.168 434.792L135.838 422.364H138.126L142.312 432.608L146.524 422.364H148.734L141.22 439.68H139.01ZM157.899 435L158.835 430.268H156.521V428.734H159.121L160.291 422.728H157.041V421.194H160.551L161.461 416.67H163.099L162.215 421.194H166.349L167.233 416.67H168.897L168.013 421.194H170.301V422.728H167.701L166.531 428.734H169.781V430.268H166.271L165.335 435H163.671L164.581 430.268H160.473L159.563 435H157.899ZM160.759 428.734H164.867L166.063 422.728H161.929L160.759 428.734ZM173.541 435V433.388L179.807 426.628C180.691 425.657 181.324 424.773 181.705 423.976C182.104 423.179 182.303 422.364 182.303 421.532C182.303 419.4 181.064 418.334 178.585 418.334C176.731 418.334 175.093 419.027 173.671 420.414L172.865 418.75C173.541 418.057 174.399 417.502 175.439 417.086C176.497 416.653 177.606 416.436 178.767 416.436C180.605 416.436 182.009 416.869 182.979 417.736C183.967 418.585 184.461 419.799 184.461 421.376C184.461 422.468 184.193 423.543 183.655 424.6C183.118 425.64 182.295 426.749 181.185 427.928L176.271 433.18H185.215V435H173.541Z" fill="#9F9EB0"/>
<path d="M27.046 463L20.572 444.67H24.004L28.554 458.19L33.338 444.67H35.808L40.488 458.372L45.168 444.67H48.418L41.892 463H39.136L34.482 449.766L29.802 463H27.046ZM50.6353 463V444.67H53.8853V452.132C54.3186 451.439 54.8993 450.919 55.6273 450.572C56.3553 450.208 57.1613 450.026 58.0453 450.026C61.044 450.026 62.5433 451.768 62.5433 455.252V463H59.2933V455.408C59.2933 454.42 59.1026 453.701 58.7213 453.25C58.3573 452.799 57.7853 452.574 57.0053 452.574C56.052 452.574 55.2893 452.877 54.7173 453.484C54.1626 454.073 53.8853 454.862 53.8853 455.85V463H50.6353ZM70.0303 463.26C69.1116 463.26 68.2883 463.087 67.5603 462.74C66.8496 462.376 66.2863 461.891 65.8703 461.284C65.4716 460.677 65.2723 459.993 65.2723 459.23C65.2723 458.294 65.515 457.557 66.0003 457.02C66.4856 456.465 67.2743 456.067 68.3663 455.824C69.4583 455.581 70.923 455.46 72.7603 455.46H73.6703V454.914C73.6703 454.047 73.4796 453.423 73.0983 453.042C72.717 452.661 72.0756 452.47 71.1743 452.47C70.4636 452.47 69.7356 452.583 68.9903 452.808C68.245 453.016 67.491 453.345 66.7283 453.796L65.7923 451.586C66.243 451.274 66.7716 451.005 67.3783 450.78C68.0023 450.537 68.6523 450.355 69.3283 450.234C70.0216 450.095 70.6716 450.026 71.2783 450.026C73.133 450.026 74.511 450.459 75.4123 451.326C76.3136 452.175 76.7643 453.501 76.7643 455.304V463H73.7223V460.972C73.4276 461.683 72.9596 462.246 72.3183 462.662C71.677 463.061 70.9143 463.26 70.0303 463.26ZM70.7063 461.024C71.5556 461.024 72.2576 460.729 72.8123 460.14C73.3843 459.551 73.6703 458.805 73.6703 457.904V457.332H72.7863C71.157 457.332 70.0216 457.462 69.3803 457.722C68.7563 457.965 68.4443 458.415 68.4443 459.074C68.4443 459.646 68.6436 460.114 69.0423 460.478C69.441 460.842 69.9956 461.024 70.7063 461.024ZM85.887 463.26C82.5244 463.26 80.843 461.596 80.843 458.268V452.73H78.399V450.286H80.843V446.49H84.093V450.286H87.941V452.73H84.093V458.086C84.093 458.918 84.275 459.542 84.639 459.958C85.003 460.374 85.5924 460.582 86.407 460.582C86.6497 460.582 86.901 460.556 87.161 460.504C87.421 460.435 87.6897 460.365 87.967 460.296L88.461 462.688C88.149 462.861 87.7504 463 87.265 463.104C86.797 463.208 86.3377 463.26 85.887 463.26ZM100.559 463L95.5414 450.286H98.8694L102.119 459.23L105.395 450.286H107.683L110.959 459.282L114.209 450.286H117.355L112.363 463H109.529L106.435 454.81L103.393 463H100.559ZM123.147 463.26C122.229 463.26 121.405 463.087 120.677 462.74C119.967 462.376 119.403 461.891 118.987 461.284C118.589 460.677 118.389 459.993 118.389 459.23C118.389 458.294 118.632 457.557 119.117 457.02C119.603 456.465 120.391 456.067 121.483 455.824C122.575 455.581 124.04 455.46 125.877 455.46H126.787V454.914C126.787 454.047 126.597 453.423 126.215 453.042C125.834 452.661 125.193 452.47 124.291 452.47C123.581 452.47 122.853 452.583 122.107 452.808C121.362 453.016 120.608 453.345 119.845 453.796L118.909 451.586C119.36 451.274 119.889 451.005 120.495 450.78C121.119 450.537 121.769 450.355 122.445 450.234C123.139 450.095 123.789 450.026 124.395 450.026C126.25 450.026 127.628 450.459 128.529 451.326C129.431 452.175 129.881 453.501 129.881 455.304V463H126.839V460.972C126.545 461.683 126.077 462.246 125.435 462.662C124.794 463.061 124.031 463.26 123.147 463.26ZM123.823 461.024C124.673 461.024 125.375 460.729 125.929 460.14C126.501 459.551 126.787 458.805 126.787 457.904V457.332H125.903C124.274 457.332 123.139 457.462 122.497 457.722C121.873 457.965 121.561 458.415 121.561 459.074C121.561 459.646 121.761 460.114 122.159 460.478C122.558 460.842 123.113 461.024 123.823 461.024ZM137.834 463.26C136.76 463.26 135.754 463.13 134.818 462.87C133.882 462.61 133.102 462.237 132.478 461.752L133.31 459.62C133.952 460.053 134.671 460.391 135.468 460.634C136.266 460.859 137.063 460.972 137.86 460.972C138.692 460.972 139.308 460.833 139.706 460.556C140.122 460.261 140.33 459.88 140.33 459.412C140.33 458.684 139.793 458.216 138.718 458.008L136.118 457.514C133.917 457.098 132.816 455.954 132.816 454.082C132.816 453.25 133.042 452.531 133.492 451.924C133.96 451.317 134.602 450.849 135.416 450.52C136.231 450.191 137.167 450.026 138.224 450.026C139.126 450.026 139.992 450.156 140.824 450.416C141.656 450.659 142.367 451.031 142.956 451.534L142.072 453.666C141.57 453.25 140.963 452.921 140.252 452.678C139.559 452.435 138.892 452.314 138.25 452.314C137.401 452.314 136.768 452.461 136.352 452.756C135.954 453.051 135.754 453.441 135.754 453.926C135.754 454.689 136.248 455.157 137.236 455.33L139.836 455.824C140.963 456.032 141.812 456.413 142.384 456.968C142.974 457.523 143.268 458.268 143.268 459.204C143.268 460.469 142.774 461.466 141.786 462.194C140.798 462.905 139.481 463.26 137.834 463.26ZM162.009 463.26C159.981 463.26 158.265 462.879 156.861 462.116C155.475 461.353 154.417 460.27 153.689 458.866C152.961 457.462 152.597 455.798 152.597 453.874C152.597 451.933 152.97 450.26 153.715 448.856C154.461 447.435 155.535 446.343 156.939 445.58C158.343 444.8 160.025 444.41 161.983 444.41C163.266 444.41 164.471 444.601 165.597 444.982C166.724 445.346 167.66 445.857 168.405 446.516L167.287 449.116C166.473 448.475 165.641 448.015 164.791 447.738C163.942 447.461 163.006 447.322 161.983 447.322C160.042 447.322 158.569 447.885 157.563 449.012C156.575 450.139 156.081 451.759 156.081 453.874C156.081 456.006 156.593 457.627 157.615 458.736C158.638 459.845 160.155 460.4 162.165 460.4C162.737 460.4 163.318 460.357 163.907 460.27C164.514 460.166 165.112 460.019 165.701 459.828V455.564H161.489V453.094H168.483V461.908C167.634 462.324 166.629 462.653 165.467 462.896C164.306 463.139 163.153 463.26 162.009 463.26ZM180.556 463.26C178.788 463.26 177.237 462.87 175.902 462.09C174.585 461.31 173.562 460.218 172.834 458.814C172.106 457.393 171.742 455.729 171.742 453.822C171.742 451.898 172.106 450.234 172.834 448.83C173.562 447.426 174.585 446.343 175.902 445.58C177.219 444.8 178.771 444.41 180.556 444.41C182.341 444.41 183.893 444.8 185.21 445.58C186.527 446.343 187.55 447.426 188.278 448.83C189.006 450.234 189.37 451.889 189.37 453.796C189.37 455.72 189.006 457.393 188.278 458.814C187.55 460.218 186.527 461.31 185.21 462.09C183.893 462.87 182.341 463.26 180.556 463.26ZM180.556 460.4C182.237 460.4 183.546 459.819 184.482 458.658C185.418 457.497 185.886 455.885 185.886 453.822C185.886 451.742 185.418 450.13 184.482 448.986C183.563 447.842 182.255 447.27 180.556 447.27C178.875 447.27 177.566 447.842 176.63 448.986C175.694 450.13 175.226 451.742 175.226 453.822C175.226 455.885 175.694 457.497 176.63 458.658C177.566 459.819 178.875 460.4 180.556 460.4ZM200.97 463.26C199.202 463.26 197.651 462.87 196.316 462.09C194.999 461.31 193.976 460.218 193.248 458.814C192.52 457.393 192.156 455.729 192.156 453.822C192.156 451.898 192.52 450.234 193.248 448.83C193.976 447.426 194.999 446.343 196.316 445.58C197.633 444.8 199.185 444.41 200.97 444.41C202.755 444.41 204.307 444.8 205.624 445.58C206.941 446.343 207.964 447.426 208.692 448.83C209.42 450.234 209.784 451.889 209.784 453.796C209.784 455.72 209.42 457.393 208.692 458.814C207.964 460.218 206.941 461.31 205.624 462.09C204.307 462.87 202.755 463.26 200.97 463.26ZM200.97 460.4C202.651 460.4 203.96 459.819 204.896 458.658C205.832 457.497 206.3 455.885 206.3 453.822C206.3 451.742 205.832 450.13 204.896 448.986C203.977 447.842 202.669 447.27 200.97 447.27C199.289 447.27 197.98 447.842 197.044 448.986C196.108 450.13 195.64 451.742 195.64 453.822C195.64 455.885 196.108 457.497 197.044 458.658C197.98 459.819 199.289 460.4 200.97 460.4ZM221.982 463.26C219.954 463.26 218.238 462.879 216.834 462.116C215.447 461.353 214.39 460.27 213.662 458.866C212.934 457.462 212.57 455.798 212.57 453.874C212.57 451.933 212.943 450.26 213.688 448.856C214.433 447.435 215.508 446.343 216.912 445.58C218.316 444.8 219.997 444.41 221.956 444.41C223.239 444.41 224.443 444.601 225.57 444.982C226.697 445.346 227.633 445.857 228.378 446.516L227.26 449.116C226.445 448.475 225.613 448.015 224.764 447.738C223.915 447.461 222.979 447.322 221.956 447.322C220.015 447.322 218.541 447.885 217.536 449.012C216.548 450.139 216.054 451.759 216.054 453.874C216.054 456.006 216.565 457.627 217.588 458.736C218.611 459.845 220.127 460.4 222.138 460.4C222.71 460.4 223.291 460.357 223.88 460.27C224.487 460.166 225.085 460.019 225.674 459.828V455.564H221.462V453.094H228.456V461.908C227.607 462.324 226.601 462.653 225.44 462.896C224.279 463.139 223.126 463.26 221.982 463.26ZM232.313 463V444.67H235.641V460.166H244.429V463H232.313ZM253.608 463V450.286H256.78V452.522C257.404 451.014 258.739 450.182 260.784 450.026L261.772 449.948L261.98 452.704L260.108 452.886C257.976 453.094 256.91 454.186 256.91 456.162V463H253.608ZM269.852 463.26C268.414 463.26 267.174 462.991 266.134 462.454C265.094 461.917 264.288 461.154 263.716 460.166C263.162 459.178 262.884 458.008 262.884 456.656C262.884 455.339 263.153 454.186 263.69 453.198C264.245 452.21 264.999 451.439 265.952 450.884C266.923 450.312 268.024 450.026 269.254 450.026C271.057 450.026 272.478 450.598 273.518 451.742C274.576 452.886 275.104 454.446 275.104 456.422V457.384H266.004C266.247 459.655 267.547 460.79 269.904 460.79C270.615 460.79 271.326 460.686 272.036 460.478C272.747 460.253 273.397 459.906 273.986 459.438L274.896 461.622C274.29 462.125 273.527 462.523 272.608 462.818C271.69 463.113 270.771 463.26 269.852 463.26ZM269.384 452.236C268.431 452.236 267.66 452.531 267.07 453.12C266.481 453.709 266.126 454.507 266.004 455.512H272.4C272.331 454.455 272.036 453.649 271.516 453.094C271.014 452.522 270.303 452.236 269.384 452.236ZM281.219 463L275.707 450.286H279.165L282.701 459.178L286.367 450.286H289.617L284.027 463H281.219ZM297.198 463.26C295.76 463.26 294.52 462.991 293.48 462.454C292.44 461.917 291.634 461.154 291.062 460.166C290.508 459.178 290.23 458.008 290.23 456.656C290.23 455.339 290.499 454.186 291.036 453.198C291.591 452.21 292.345 451.439 293.298 450.884C294.269 450.312 295.37 450.026 296.6 450.026C298.403 450.026 299.824 450.598 300.864 451.742C301.922 452.886 302.45 454.446 302.45 456.422V457.384H293.35C293.593 459.655 294.893 460.79 297.25 460.79C297.961 460.79 298.672 460.686 299.382 460.478C300.093 460.253 300.743 459.906 301.332 459.438L302.242 461.622C301.636 462.125 300.873 462.523 299.954 462.818C299.036 463.113 298.117 463.26 297.198 463.26ZM296.73 452.236C295.777 452.236 295.006 452.531 294.416 453.12C293.827 453.709 293.472 454.507 293.35 455.512H299.746C299.677 454.455 299.382 453.649 298.862 453.094C298.36 452.522 297.649 452.236 296.73 452.236ZM305.024 463V450.286H308.196V452.262C308.629 451.534 309.21 450.979 309.938 450.598C310.683 450.217 311.515 450.026 312.434 450.026C315.433 450.026 316.932 451.768 316.932 455.252V463H313.682V455.408C313.682 454.42 313.491 453.701 313.11 453.25C312.746 452.799 312.174 452.574 311.394 452.574C310.441 452.574 309.678 452.877 309.106 453.484C308.551 454.073 308.274 454.862 308.274 455.85V463H305.024ZM324.835 463.26C321.715 463.26 320.155 461.509 320.155 458.008V450.286H323.405V458.06C323.405 458.961 323.587 459.629 323.951 460.062C324.315 460.495 324.896 460.712 325.693 460.712C326.56 460.712 327.27 460.417 327.825 459.828C328.38 459.221 328.657 458.424 328.657 457.436V450.286H331.907V463H328.735V461.102C327.886 462.541 326.586 463.26 324.835 463.26ZM341.556 463.26C340.117 463.26 338.878 462.991 337.838 462.454C336.798 461.917 335.992 461.154 335.42 460.166C334.865 459.178 334.588 458.008 334.588 456.656C334.588 455.339 334.856 454.186 335.394 453.198C335.948 452.21 336.702 451.439 337.656 450.884C338.626 450.312 339.727 450.026 340.958 450.026C342.76 450.026 344.182 450.598 345.222 451.742C346.279 452.886 346.808 454.446 346.808 456.422V457.384H337.708C337.95 459.655 339.25 460.79 341.608 460.79C342.318 460.79 343.029 460.686 343.74 460.478C344.45 460.253 345.1 459.906 345.69 459.438L346.6 461.622C345.993 462.125 345.23 462.523 344.312 462.818C343.393 463.113 342.474 463.26 341.556 463.26ZM341.088 452.236C340.134 452.236 339.363 452.531 338.774 453.12C338.184 453.709 337.829 454.507 337.708 455.512H344.104C344.034 454.455 343.74 453.649 343.22 453.094C342.717 452.522 342.006 452.236 341.088 452.236ZM356.181 447.556V444.384H359.821V447.556H356.181ZM356.389 463V450.286H359.639V463H356.389ZM363.016 463V450.286H366.188V452.262C366.622 451.534 367.202 450.979 367.93 450.598C368.676 450.217 369.508 450.026 370.426 450.026C373.425 450.026 374.924 451.768 374.924 455.252V463H371.674V455.408C371.674 454.42 371.484 453.701 371.102 453.25C370.738 452.799 370.166 452.574 369.386 452.574C368.433 452.574 367.67 452.877 367.098 453.484C366.544 454.073 366.266 454.862 366.266 455.85V463H363.016ZM22.08 489V486.53L28.008 480.212C28.8053 479.345 29.3773 478.583 29.724 477.924C30.0707 477.248 30.244 476.563 30.244 475.87C30.244 474.102 29.178 473.218 27.046 473.218C25.382 473.218 23.848 473.842 22.444 475.09L21.326 472.594C22.054 471.935 22.964 471.407 24.056 471.008C25.148 470.609 26.2833 470.41 27.462 470.41C29.4207 470.41 30.92 470.852 31.96 471.736C33.0173 472.62 33.546 473.885 33.546 475.532C33.546 476.641 33.2773 477.707 32.74 478.73C32.22 479.753 31.3967 480.853 30.27 482.032L26.24 486.244H34.248V489H22.08ZM43.3898 489.26C41.2232 489.26 39.5678 488.445 38.4238 486.816C37.2798 485.169 36.7078 482.829 36.7078 479.796C36.7078 476.728 37.2798 474.397 38.4238 472.802C39.5678 471.207 41.2232 470.41 43.3898 470.41C45.5738 470.41 47.2292 471.207 48.3558 472.802C49.4998 474.397 50.0718 476.719 50.0718 479.77C50.0718 482.821 49.4998 485.169 48.3558 486.816C47.2118 488.445 45.5565 489.26 43.3898 489.26ZM43.3898 486.53C44.5685 486.53 45.4352 485.993 45.9898 484.918C46.5618 483.826 46.8478 482.11 46.8478 479.77C46.8478 477.447 46.5618 475.766 45.9898 474.726C45.4352 473.669 44.5685 473.14 43.3898 473.14C42.2285 473.14 41.3618 473.669 40.7898 474.726C40.2178 475.766 39.9318 477.447 39.9318 479.77C39.9318 482.11 40.2178 483.826 40.7898 484.918C41.3618 485.993 42.2285 486.53 43.3898 486.53ZM53.2597 489V486.53L59.1877 480.212C59.985 479.345 60.557 478.583 60.9037 477.924C61.2504 477.248 61.4237 476.563 61.4237 475.87C61.4237 474.102 60.3577 473.218 58.2257 473.218C56.5617 473.218 55.0277 473.842 53.6237 475.09L52.5057 472.594C53.2337 471.935 54.1437 471.407 55.2357 471.008C56.3277 470.609 57.463 470.41 58.6417 470.41C60.6004 470.41 62.0997 470.852 63.1397 471.736C64.197 472.62 64.7257 473.885 64.7257 475.532C64.7257 476.641 64.457 477.707 63.9197 478.73C63.3997 479.753 62.5764 480.853 61.4497 482.032L57.4197 486.244H65.4277V489H53.2597ZM68.8495 489V486.53L74.7775 480.212C75.5749 479.345 76.1469 478.583 76.4935 477.924C76.8402 477.248 77.0135 476.563 77.0135 475.87C77.0135 474.102 75.9475 473.218 73.8155 473.218C72.1515 473.218 70.6175 473.842 69.2135 475.09L68.0955 472.594C68.8235 471.935 69.7335 471.407 70.8255 471.008C71.9175 470.609 73.0529 470.41 74.2315 470.41C76.1902 470.41 77.6895 470.852 78.7295 471.736C79.7869 472.62 80.3155 473.885 80.3155 475.532C80.3155 476.641 80.0469 477.707 79.5095 478.73C78.9895 479.753 78.1662 480.853 77.0395 482.032L73.0095 486.244H81.0175V489H68.8495ZM87.1174 483.566V482.526C87.1174 481.711 87.2647 480.957 87.5594 480.264C87.8714 479.571 88.3914 478.817 89.1194 478.002C89.674 477.395 90.0554 476.875 90.2634 476.442C90.4887 476.009 90.6014 475.549 90.6014 475.064C90.6014 474.492 90.3934 474.041 89.9774 473.712C89.5614 473.383 88.972 473.218 88.2094 473.218C86.5107 473.218 84.942 473.842 83.5034 475.09L82.4114 472.594C83.1394 471.935 84.0407 471.407 85.1154 471.008C86.2074 470.609 87.308 470.41 88.4174 470.41C89.5094 470.41 90.4627 470.592 91.2774 470.956C92.1094 471.32 92.7507 471.823 93.2014 472.464C93.6694 473.105 93.9034 473.859 93.9034 474.726C93.9034 475.523 93.7214 476.269 93.3574 476.962C93.0107 477.655 92.3867 478.409 91.4854 479.224C90.6707 479.969 90.1074 480.619 89.7954 481.174C89.4834 481.729 89.284 482.283 89.1974 482.838L89.0934 483.566H87.1174ZM86.2854 489V485.386H89.9254V489H86.2854Z" fill="#9F9EB0"/>
<path d="M406 398H1V489C1 499.493 9.50659 508 20 508H406C416.493 508 425 499.493 425 489V417C425 406.507 416.493 398 406 398Z" stroke="#E9E9ED" stroke-width="2"/>
<path d="M406 524H1V587C1 597.493 9.50659 606 20 606H406C416.493 606 425 597.493 425 587V543C425 532.507 416.493 524 406 524Z" fill="white"/>
<path d="M30.816 561.26C28.788 561.26 27.072 560.879 25.668 560.116C24.2813 559.353 23.224 558.27 22.496 556.866C21.768 555.462 21.404 553.798 21.404 551.874C21.404 549.933 21.7767 548.26 22.522 546.856C23.2673 545.435 24.342 544.343 25.746 543.58C27.15 542.8 28.8313 542.41 30.79 542.41C32.0727 542.41 33.2773 542.601 34.404 542.982C35.5307 543.346 36.4667 543.857 37.212 544.516L36.094 547.116C35.2793 546.475 34.4473 546.015 33.598 545.738C32.7487 545.461 31.8127 545.322 30.79 545.322C28.8487 545.322 27.3753 545.885 26.37 547.012C25.382 548.139 24.888 549.759 24.888 551.874C24.888 554.006 25.3993 555.627 26.422 556.736C27.4447 557.845 28.9613 558.4 30.972 558.4C31.544 558.4 32.1247 558.357 32.714 558.27C33.3207 558.166 33.9187 558.019 34.508 557.828V553.564H30.296V551.094H37.29V559.908C36.4407 560.324 35.4353 560.653 34.274 560.896C33.1127 561.139 31.96 561.26 30.816 561.26ZM49.3625 561.26C47.5945 561.26 46.0432 560.87 44.7085 560.09C43.3912 559.31 42.3685 558.218 41.6405 556.814C40.9125 555.393 40.5485 553.729 40.5485 551.822C40.5485 549.898 40.9125 548.234 41.6405 546.83C42.3685 545.426 43.3912 544.343 44.7085 543.58C46.0259 542.8 47.5772 542.41 49.3625 542.41C51.1479 542.41 52.6992 542.8 54.0165 543.58C55.3339 544.343 56.3565 545.426 57.0845 546.83C57.8125 548.234 58.1765 549.889 58.1765 551.796C58.1765 553.72 57.8125 555.393 57.0845 556.814C56.3565 558.218 55.3339 559.31 54.0165 560.09C52.6992 560.87 51.1479 561.26 49.3625 561.26ZM49.3625 558.4C51.0439 558.4 52.3525 557.819 53.2885 556.658C54.2245 555.497 54.6925 553.885 54.6925 551.822C54.6925 549.742 54.2245 548.13 53.2885 546.986C52.3699 545.842 51.0612 545.27 49.3625 545.27C47.6812 545.27 46.3725 545.842 45.4365 546.986C44.5005 548.13 44.0325 549.742 44.0325 551.822C44.0325 553.885 44.5005 555.497 45.4365 556.658C46.3725 557.819 47.6812 558.4 49.3625 558.4ZM69.7766 561.26C68.0086 561.26 66.4573 560.87 65.1226 560.09C63.8053 559.31 62.7826 558.218 62.0546 556.814C61.3266 555.393 60.9626 553.729 60.9626 551.822C60.9626 549.898 61.3266 548.234 62.0546 546.83C62.7826 545.426 63.8053 544.343 65.1226 543.58C66.4399 542.8 67.9913 542.41 69.7766 542.41C71.5619 542.41 73.1133 542.8 74.4306 543.58C75.7479 544.343 76.7706 545.426 77.4986 546.83C78.2266 548.234 78.5906 549.889 78.5906 551.796C78.5906 553.72 78.2266 555.393 77.4986 556.814C76.7706 558.218 75.7479 559.31 74.4306 560.09C73.1133 560.87 71.5619 561.26 69.7766 561.26ZM69.7766 558.4C71.4579 558.4 72.7666 557.819 73.7026 556.658C74.6386 555.497 75.1066 553.885 75.1066 551.822C75.1066 549.742 74.6386 548.13 73.7026 546.986C72.7839 545.842 71.4753 545.27 69.7766 545.27C68.0953 545.27 66.7866 545.842 65.8506 546.986C64.9146 548.13 64.4466 549.742 64.4466 551.822C64.4466 553.885 64.9146 555.497 65.8506 556.658C66.7866 557.819 68.0953 558.4 69.7766 558.4ZM90.7887 561.26C88.7607 561.26 87.0447 560.879 85.6407 560.116C84.254 559.353 83.1967 558.27 82.4687 556.866C81.7407 555.462 81.3767 553.798 81.3767 551.874C81.3767 549.933 81.7493 548.26 82.4947 546.856C83.24 545.435 84.3147 544.343 85.7187 543.58C87.1227 542.8 88.804 542.41 90.7627 542.41C92.0453 542.41 93.25 542.601 94.3767 542.982C95.5033 543.346 96.4393 543.857 97.1847 544.516L96.0667 547.116C95.252 546.475 94.42 546.015 93.5707 545.738C92.7213 545.461 91.7853 545.322 90.7627 545.322C88.8213 545.322 87.348 545.885 86.3427 547.012C85.3547 548.139 84.8607 549.759 84.8607 551.874C84.8607 554.006 85.372 555.627 86.3947 556.736C87.4173 557.845 88.934 558.4 90.9447 558.4C91.5167 558.4 92.0973 558.357 92.6867 558.27C93.2933 558.166 93.8913 558.019 94.4807 557.828V553.564H90.2687V551.094H97.2627V559.908C96.4133 560.324 95.408 560.653 94.2467 560.896C93.0853 561.139 91.9327 561.26 90.7887 561.26ZM101.119 561V542.67H104.447V558.166H113.235V561H101.119ZM122.415 561V542.67H125.665V550.132C126.098 549.439 126.679 548.919 127.407 548.572C128.135 548.208 128.941 548.026 129.825 548.026C132.823 548.026 134.323 549.768 134.323 553.252V561H131.073V553.408C131.073 552.42 130.882 551.701 130.501 551.25C130.137 550.799 129.565 550.574 128.785 550.574C127.831 550.574 127.069 550.877 126.497 551.484C125.942 552.073 125.665 552.862 125.665 553.85V561H122.415ZM141.81 561.26C140.891 561.26 140.068 561.087 139.34 560.74C138.629 560.376 138.066 559.891 137.65 559.284C137.251 558.677 137.052 557.993 137.052 557.23C137.052 556.294 137.294 555.557 137.78 555.02C138.265 554.465 139.054 554.067 140.146 553.824C141.238 553.581 142.702 553.46 144.54 553.46H145.45V552.914C145.45 552.047 145.259 551.423 144.878 551.042C144.496 550.661 143.855 550.47 142.954 550.47C142.243 550.47 141.515 550.583 140.77 550.808C140.024 551.016 139.27 551.345 138.508 551.796L137.572 549.586C138.022 549.274 138.551 549.005 139.158 548.78C139.782 548.537 140.432 548.355 141.108 548.234C141.801 548.095 142.451 548.026 143.058 548.026C144.912 548.026 146.29 548.459 147.192 549.326C148.093 550.175 148.544 551.501 148.544 553.304V561H145.502V558.972C145.207 559.683 144.739 560.246 144.098 560.662C143.456 561.061 142.694 561.26 141.81 561.26ZM142.486 559.024C143.335 559.024 144.037 558.729 144.592 558.14C145.164 557.551 145.45 556.805 145.45 555.904V555.332H144.566C142.936 555.332 141.801 555.462 141.16 555.722C140.536 555.965 140.224 556.415 140.224 557.074C140.224 557.646 140.423 558.114 140.822 558.478C141.22 558.842 141.775 559.024 142.486 559.024ZM156.73 561.26C155.621 561.26 154.642 560.991 153.792 560.454C152.96 559.917 152.31 559.154 151.842 558.166C151.374 557.161 151.14 555.982 151.14 554.63C151.14 553.261 151.374 552.091 151.842 551.12C152.31 550.132 152.96 549.369 153.792 548.832C154.642 548.295 155.621 548.026 156.73 548.026C157.632 548.026 158.446 548.225 159.174 548.624C159.902 549.023 160.448 549.551 160.812 550.21V542.67H164.062V561H160.89V558.894C160.544 559.622 159.998 560.203 159.252 560.636C158.507 561.052 157.666 561.26 156.73 561.26ZM157.64 558.79C158.611 558.79 159.391 558.443 159.98 557.75C160.57 557.039 160.864 555.999 160.864 554.63C160.864 553.243 160.57 552.212 159.98 551.536C159.391 550.843 158.611 550.496 157.64 550.496C156.67 550.496 155.89 550.843 155.3 551.536C154.711 552.212 154.416 553.243 154.416 554.63C154.416 555.999 154.711 557.039 155.3 557.75C155.89 558.443 156.67 558.79 157.64 558.79ZM180.264 561.26C176.901 561.26 175.22 559.596 175.22 556.268V550.73H172.776V548.286H175.22V544.49H178.47V548.286H182.318V550.73H178.47V556.086C178.47 556.918 178.652 557.542 179.016 557.958C179.38 558.374 179.969 558.582 180.784 558.582C181.027 558.582 181.278 558.556 181.538 558.504C181.798 558.435 182.067 558.365 182.344 558.296L182.838 560.688C182.526 560.861 182.127 561 181.642 561.104C181.174 561.208 180.715 561.26 180.264 561.26ZM184.419 561V542.67H187.669V550.132C188.102 549.439 188.683 548.919 189.411 548.572C190.139 548.208 190.945 548.026 191.829 548.026C194.827 548.026 196.327 549.768 196.327 553.252V561H193.077V553.408C193.077 552.42 192.886 551.701 192.505 551.25C192.141 550.799 191.569 550.574 190.789 550.574C189.835 550.574 189.073 550.877 188.501 551.484C187.946 552.073 187.669 552.862 187.669 553.85V561H184.419ZM205.894 561.26C204.455 561.26 203.216 560.991 202.176 560.454C201.136 559.917 200.33 559.154 199.758 558.166C199.203 557.178 198.926 556.008 198.926 554.656C198.926 553.339 199.194 552.186 199.732 551.198C200.286 550.21 201.04 549.439 201.994 548.884C202.964 548.312 204.065 548.026 205.296 548.026C207.098 548.026 208.52 548.598 209.56 549.742C210.617 550.886 211.146 552.446 211.146 554.422V555.384H202.046C202.288 557.655 203.588 558.79 205.946 558.79C206.656 558.79 207.367 558.686 208.078 558.478C208.788 558.253 209.438 557.906 210.028 557.438L210.938 559.622C210.331 560.125 209.568 560.523 208.65 560.818C207.731 561.113 206.812 561.26 205.894 561.26ZM205.426 550.236C204.472 550.236 203.701 550.531 203.112 551.12C202.522 551.709 202.167 552.507 202.046 553.512H208.442C208.372 552.455 208.078 551.649 207.558 551.094C207.055 550.522 206.344 550.236 205.426 550.236ZM220.727 561V542.67H223.977V550.132C224.41 549.439 224.991 548.919 225.719 548.572C226.447 548.208 227.253 548.026 228.137 548.026C231.136 548.026 232.635 549.768 232.635 553.252V561H229.385V553.408C229.385 552.42 229.194 551.701 228.813 551.25C228.449 550.799 227.877 550.574 227.097 550.574C226.144 550.574 225.381 550.877 224.809 551.484C224.254 552.073 223.977 552.862 223.977 553.85V561H220.727ZM235.728 545.556V542.384H239.368V545.556H235.728ZM235.936 561V548.286H239.186V561H235.936ZM248.491 565.94C247.312 565.94 246.203 565.801 245.163 565.524C244.14 565.264 243.239 564.857 242.459 564.302L243.395 562.04C244.123 562.525 244.903 562.881 245.735 563.106C246.567 563.349 247.399 563.47 248.231 563.47C250.554 563.47 251.715 562.352 251.715 560.116V558.374C251.351 559.085 250.788 559.648 250.025 560.064C249.28 560.48 248.448 560.688 247.529 560.688C246.385 560.688 245.388 560.428 244.539 559.908C243.69 559.371 243.031 558.625 242.563 557.672C242.095 556.719 241.861 555.609 241.861 554.344C241.861 553.079 242.095 551.978 242.563 551.042C243.031 550.089 243.69 549.352 244.539 548.832C245.388 548.295 246.385 548.026 247.529 548.026C248.482 548.026 249.332 548.243 250.077 548.676C250.822 549.092 251.368 549.655 251.715 550.366V548.286H254.887V559.726C254.887 561.789 254.341 563.34 253.249 564.38C252.157 565.42 250.571 565.94 248.491 565.94ZM248.413 558.218C249.418 558.218 250.216 557.871 250.805 557.178C251.394 556.485 251.689 555.54 251.689 554.344C251.689 553.148 251.394 552.212 250.805 551.536C250.216 550.843 249.418 550.496 248.413 550.496C247.408 550.496 246.61 550.843 246.021 551.536C245.432 552.212 245.137 553.148 245.137 554.344C245.137 555.54 245.432 556.485 246.021 557.178C246.61 557.871 247.408 558.218 248.413 558.218ZM258.254 561V542.67H261.504V550.132C261.938 549.439 262.518 548.919 263.246 548.572C263.974 548.208 264.78 548.026 265.664 548.026C268.663 548.026 270.162 549.768 270.162 553.252V561H266.912V553.408C266.912 552.42 266.722 551.701 266.34 551.25C265.976 550.799 265.404 550.574 264.624 550.574C263.671 550.574 262.908 550.877 262.336 551.484C261.782 552.073 261.504 552.862 261.504 553.85V561H258.254ZM279.729 561.26C278.291 561.26 277.051 560.991 276.011 560.454C274.971 559.917 274.165 559.154 273.593 558.166C273.039 557.178 272.761 556.008 272.761 554.656C272.761 553.339 273.03 552.186 273.567 551.198C274.122 550.21 274.876 549.439 275.829 548.884C276.8 548.312 277.901 548.026 279.131 548.026C280.934 548.026 282.355 548.598 283.395 549.742C284.453 550.886 284.981 552.446 284.981 554.422V555.384H275.881C276.124 557.655 277.424 558.79 279.781 558.79C280.492 558.79 281.203 558.686 281.913 558.478C282.624 558.253 283.274 557.906 283.863 557.438L284.773 559.622C284.167 560.125 283.404 560.523 282.485 560.818C281.567 561.113 280.648 561.26 279.729 561.26ZM279.261 550.236C278.308 550.236 277.537 550.531 276.947 551.12C276.358 551.709 276.003 552.507 275.881 553.512H282.277C282.208 552.455 281.913 551.649 281.393 551.094C280.891 550.522 280.18 550.236 279.261 550.236ZM292.209 561.26C291.135 561.26 290.129 561.13 289.193 560.87C288.257 560.61 287.477 560.237 286.853 559.752L287.685 557.62C288.327 558.053 289.046 558.391 289.843 558.634C290.641 558.859 291.438 558.972 292.235 558.972C293.067 558.972 293.683 558.833 294.081 558.556C294.497 558.261 294.705 557.88 294.705 557.412C294.705 556.684 294.168 556.216 293.093 556.008L290.493 555.514C288.292 555.098 287.191 553.954 287.191 552.082C287.191 551.25 287.417 550.531 287.867 549.924C288.335 549.317 288.977 548.849 289.791 548.52C290.606 548.191 291.542 548.026 292.599 548.026C293.501 548.026 294.367 548.156 295.199 548.416C296.031 548.659 296.742 549.031 297.331 549.534L296.447 551.666C295.945 551.25 295.338 550.921 294.627 550.678C293.934 550.435 293.267 550.314 292.625 550.314C291.776 550.314 291.143 550.461 290.727 550.756C290.329 551.051 290.129 551.441 290.129 551.926C290.129 552.689 290.623 553.157 291.611 553.33L294.211 553.824C295.338 554.032 296.187 554.413 296.759 554.968C297.349 555.523 297.643 556.268 297.643 557.204C297.643 558.469 297.149 559.466 296.161 560.194C295.173 560.905 293.856 561.26 292.209 561.26ZM305.948 561.26C302.585 561.26 300.904 559.596 300.904 556.268V550.73H298.46V548.286H300.904V544.49H304.154V548.286H308.002V550.73H304.154V556.086C304.154 556.918 304.336 557.542 304.7 557.958C305.064 558.374 305.653 558.582 306.468 558.582C306.71 558.582 306.962 558.556 307.222 558.504C307.482 558.435 307.75 558.365 308.028 558.296L308.522 560.688C308.21 560.861 307.811 561 307.326 561.104C306.858 561.208 306.398 561.26 305.948 561.26ZM21.69 587V574.286H24.862V576.522C25.486 575.014 26.8207 574.182 28.866 574.026L29.854 573.948L30.062 576.704L28.19 576.886C26.058 577.094 24.992 578.186 24.992 580.162V587H21.69ZM37.9345 587.26C36.4958 587.26 35.2565 586.991 34.2165 586.454C33.1765 585.917 32.3705 585.154 31.7985 584.166C31.2438 583.178 30.9665 582.008 30.9665 580.656C30.9665 579.339 31.2352 578.186 31.7725 577.198C32.3272 576.21 33.0812 575.439 34.0345 574.884C35.0052 574.312 36.1058 574.026 37.3365 574.026C39.1392 574.026 40.5605 574.598 41.6005 575.742C42.6578 576.886 43.1865 578.446 43.1865 580.422V581.384H34.0865C34.3292 583.655 35.6292 584.79 37.9865 584.79C38.6972 584.79 39.4078 584.686 40.1185 584.478C40.8292 584.253 41.4792 583.906 42.0685 583.438L42.9785 585.622C42.3718 586.125 41.6092 586.523 40.6905 586.818C39.7718 587.113 38.8532 587.26 37.9345 587.26ZM37.4665 576.236C36.5132 576.236 35.7418 576.531 35.1525 577.12C34.5632 577.709 34.2078 578.507 34.0865 579.512H40.4825C40.4132 578.455 40.1185 577.649 39.5985 577.094C39.0958 576.522 38.3852 576.236 37.4665 576.236ZM49.3012 587L43.7892 574.286H47.2472L50.7832 583.178L54.4492 574.286H57.6992L52.1092 587H49.3012ZM65.2802 587.26C63.8416 587.26 62.6022 586.991 61.5622 586.454C60.5222 585.917 59.7162 585.154 59.1442 584.166C58.5896 583.178 58.3122 582.008 58.3122 580.656C58.3122 579.339 58.5809 578.186 59.1182 577.198C59.6729 576.21 60.4269 575.439 61.3802 574.884C62.3509 574.312 63.4516 574.026 64.6822 574.026C66.4849 574.026 67.9062 574.598 68.9462 575.742C70.0036 576.886 70.5322 578.446 70.5322 580.422V581.384H61.4322C61.6749 583.655 62.9749 584.79 65.3322 584.79C66.0429 584.79 66.7536 584.686 67.4642 584.478C68.1749 584.253 68.8249 583.906 69.4142 583.438L70.3242 585.622C69.7176 586.125 68.9549 586.523 68.0362 586.818C67.1176 587.113 66.1989 587.26 65.2802 587.26ZM64.8122 576.236C63.8589 576.236 63.0876 576.531 62.4982 577.12C61.9089 577.709 61.5536 578.507 61.4322 579.512H67.8282C67.7589 578.455 67.4642 577.649 66.9442 577.094C66.4416 576.522 65.7309 576.236 64.8122 576.236ZM73.106 587V574.286H76.278V576.262C76.7113 575.534 77.292 574.979 78.02 574.598C78.7653 574.217 79.5973 574.026 80.516 574.026C83.5147 574.026 85.014 575.768 85.014 579.252V587H81.764V579.408C81.764 578.42 81.5733 577.701 81.192 577.25C80.828 576.799 80.256 576.574 79.476 576.574C78.5227 576.574 77.76 576.877 77.188 577.484C76.6333 578.073 76.356 578.862 76.356 579.85V587H73.106ZM92.917 587.26C89.797 587.26 88.237 585.509 88.237 582.008V574.286H91.487V582.06C91.487 582.961 91.669 583.629 92.033 584.062C92.397 584.495 92.9777 584.712 93.775 584.712C94.6417 584.712 95.3523 584.417 95.907 583.828C96.4617 583.221 96.739 582.424 96.739 581.436V574.286H99.989V587H96.817V585.102C95.9677 586.541 94.6677 587.26 92.917 587.26ZM109.638 587.26C108.199 587.26 106.96 586.991 105.92 586.454C104.88 585.917 104.074 585.154 103.502 584.166C102.947 583.178 102.67 582.008 102.67 580.656C102.67 579.339 102.938 578.186 103.476 577.198C104.03 576.21 104.784 575.439 105.738 574.884C106.708 574.312 107.809 574.026 109.04 574.026C110.842 574.026 112.264 574.598 113.304 575.742C114.361 576.886 114.89 578.446 114.89 580.422V581.384H105.79C106.032 583.655 107.332 584.79 109.69 584.79C110.4 584.79 111.111 584.686 111.822 584.478C112.532 584.253 113.182 583.906 113.772 583.438L114.682 585.622C114.075 586.125 113.312 586.523 112.394 586.818C111.475 587.113 110.556 587.26 109.638 587.26ZM109.17 576.236C108.216 576.236 107.445 576.531 106.856 577.12C106.266 577.709 105.911 578.507 105.79 579.512H112.186C112.116 578.455 111.822 577.649 111.302 577.094C110.799 576.522 110.088 576.236 109.17 576.236ZM124.263 571.556V568.384H127.903V571.556H124.263ZM124.471 587V574.286H127.721V587H124.471ZM131.098 587V574.286H134.27V576.262C134.704 575.534 135.284 574.979 136.012 574.598C136.758 574.217 137.59 574.026 138.508 574.026C141.507 574.026 143.006 575.768 143.006 579.252V587H139.756V579.408C139.756 578.42 139.566 577.701 139.184 577.25C138.82 576.799 138.248 576.574 137.468 576.574C136.515 576.574 135.752 576.877 135.18 577.484C134.626 578.073 134.348 578.862 134.348 579.85V587H131.098ZM153.705 587V584.53L159.633 578.212C160.43 577.345 161.002 576.583 161.349 575.924C161.696 575.248 161.869 574.563 161.869 573.87C161.869 572.102 160.803 571.218 158.671 571.218C157.007 571.218 155.473 571.842 154.069 573.09L152.951 570.594C153.679 569.935 154.589 569.407 155.681 569.008C156.773 568.609 157.908 568.41 159.087 568.41C161.046 568.41 162.545 568.852 163.585 569.736C164.642 570.62 165.171 571.885 165.171 573.532C165.171 574.641 164.902 575.707 164.365 576.73C163.845 577.753 163.022 578.853 161.895 580.032L157.865 584.244H165.873V587H153.705ZM175.015 587.26C172.848 587.26 171.193 586.445 170.049 584.816C168.905 583.169 168.333 580.829 168.333 577.796C168.333 574.728 168.905 572.397 170.049 570.802C171.193 569.207 172.848 568.41 175.015 568.41C177.199 568.41 178.854 569.207 179.981 570.802C181.125 572.397 181.697 574.719 181.697 577.77C181.697 580.821 181.125 583.169 179.981 584.816C178.837 586.445 177.182 587.26 175.015 587.26ZM175.015 584.53C176.194 584.53 177.06 583.993 177.615 582.918C178.187 581.826 178.473 580.11 178.473 577.77C178.473 575.447 178.187 573.766 177.615 572.726C177.06 571.669 176.194 571.14 175.015 571.14C173.854 571.14 172.987 571.669 172.415 572.726C171.843 573.766 171.557 575.447 171.557 577.77C171.557 580.11 171.843 581.826 172.415 582.918C172.987 583.993 173.854 584.53 175.015 584.53ZM184.885 587V584.53L190.813 578.212C191.61 577.345 192.182 576.583 192.529 575.924C192.875 575.248 193.049 574.563 193.049 573.87C193.049 572.102 191.983 571.218 189.851 571.218C188.187 571.218 186.653 571.842 185.249 573.09L184.131 570.594C184.859 569.935 185.769 569.407 186.861 569.008C187.953 568.609 189.088 568.41 190.267 568.41C192.225 568.41 193.725 568.852 194.765 569.736C195.822 570.62 196.351 571.885 196.351 573.532C196.351 574.641 196.082 575.707 195.545 576.73C195.025 577.753 194.201 578.853 193.075 580.032L189.045 584.244H197.053V587H184.885ZM200.475 587V584.53L206.403 578.212C207.2 577.345 207.772 576.583 208.119 575.924C208.465 575.248 208.639 574.563 208.639 573.87C208.639 572.102 207.573 571.218 205.441 571.218C203.777 571.218 202.243 571.842 200.839 573.09L199.721 570.594C200.449 569.935 201.359 569.407 202.451 569.008C203.543 568.609 204.678 568.41 205.857 568.41C207.815 568.41 209.315 568.852 210.355 569.736C211.412 570.62 211.941 571.885 211.941 573.532C211.941 574.641 211.672 575.707 211.135 576.73C210.615 577.753 209.791 578.853 208.665 580.032L204.635 584.244H212.643V587H200.475Z" fill="#3F3F46"/>
<path d="M406 524H1V587C1 597.493 9.50659 606 20 606H406C416.493 606 425 597.493 425 587V543C425 532.507 416.493 524 406 524Z" stroke="#9F9EB0" stroke-width="2"/>
</svg>
