<svg width="526" height="37" viewBox="0 0 526 37" fill="none" xmlns="http://www.w3.org/2000/svg">
<mask id="path-1-inside-1_931_3600" fill="white">
<path d="M0 2.7264C0 1.22065 1.22065 0 2.7264 0H135.405C136.911 0 138.132 1.22065 138.132 2.7264V33.632C138.132 35.1377 136.911 36.3584 135.405 36.3584H2.7264C1.22065 36.3584 0 35.1377 0 33.632V2.7264Z"/>
</mask>
<path d="M0 2.7264C0 1.22065 1.22065 0 2.7264 0H135.405C136.911 0 138.132 1.22065 138.132 2.7264V33.632C138.132 35.1377 136.911 36.3584 135.405 36.3584H2.7264C1.22065 36.3584 0 35.1377 0 33.632V2.7264Z" fill="#E5FAD2"/>
<path d="M16.2112 24.1791L21.315 12.7283H23.9323L29.0525 24.1791H26.2716L22.0838 14.0697H23.1308L18.9267 24.1791H16.2112ZM18.7631 21.7254L19.4665 19.7133H25.3555L26.0753 21.7254H18.7631ZM28.923 24.1791L34.0269 12.7283H36.6442L41.7644 24.1791H38.9834L34.7957 14.0697H35.8426L31.6385 24.1791H28.923ZM31.4749 21.7254L32.1784 19.7133H38.0674L38.7871 21.7254H31.4749ZM42.7725 24.1791V12.7283H47.729C48.7542 12.7283 49.6375 12.8973 50.3791 13.2354C51.1207 13.5625 51.6932 14.0369 52.0967 14.6586C52.5002 15.2802 52.702 16.0218 52.702 16.8833C52.702 17.7339 52.5002 18.4701 52.0967 19.0917C51.6932 19.7133 51.1207 20.1931 50.3791 20.5312C49.6375 20.8584 48.7542 21.022 47.729 21.022H44.2447L45.4225 19.8278V24.1791H42.7725ZM45.4225 20.1223L44.2447 18.8627H47.5818C48.3997 18.8627 49.0105 18.6882 49.414 18.3392C49.8175 17.9902 50.0192 17.5049 50.0192 16.8833C50.0192 16.2508 49.8175 15.76 49.414 15.411C49.0105 15.0621 48.3997 14.8876 47.5818 14.8876H44.2447L45.4225 13.628V20.1223ZM54.414 24.1791V12.7283H57.0641V22.0198H62.8059V24.1791H54.414ZM70.7023 27.3527C70.0807 26.3603 69.6009 25.2152 69.2628 23.9174C68.9247 22.6087 68.7557 21.2019 68.7557 19.6969C68.7557 18.192 68.9247 16.7851 69.2628 15.4765C69.6009 14.1569 70.0807 13.0118 70.7023 12.0412H72.191C71.5366 13.1972 71.0568 14.4077 70.7514 15.6728C70.4461 16.9269 70.2934 18.2683 70.2934 19.6969C70.2934 21.1256 70.4461 22.4724 70.7514 23.7375C71.0568 24.9916 71.5366 26.1967 72.191 27.3527H70.7023ZM73.1383 24.1791V23.0668L77.8005 18.5682C78.2149 18.1756 78.5202 17.8321 78.7165 17.5376C78.9238 17.2323 79.0601 16.9542 79.1255 16.7034C79.2018 16.4416 79.24 16.1908 79.24 15.9509C79.24 15.362 79.0328 14.8985 78.6184 14.5604C78.204 14.2223 77.5987 14.0533 76.8026 14.0533C76.1919 14.0533 75.6412 14.1569 75.1504 14.3641C74.6597 14.5604 74.2344 14.8712 73.8745 15.2965L72.7621 14.3314C73.1983 13.7752 73.7818 13.3499 74.5124 13.0554C75.254 12.7501 76.0665 12.5974 76.9498 12.5974C77.746 12.5974 78.4385 12.7283 79.0274 12.99C79.6163 13.2408 80.0688 13.6062 80.3851 14.086C80.7123 14.5659 80.8759 15.133 80.8759 15.7873C80.8759 16.1581 80.8268 16.5234 80.7286 16.8833C80.6305 17.2432 80.4451 17.6249 80.1724 18.0284C79.8998 18.4319 79.5072 18.8845 78.9946 19.3861L74.8396 23.3939L74.447 22.756H81.3666V24.1791H73.1383ZM87.1942 24.31C86.2999 24.31 85.4983 24.081 84.7895 23.623C84.0915 23.1649 83.5353 22.4997 83.1209 21.6272C82.7174 20.7548 82.5157 19.6969 82.5157 18.4537C82.5157 17.2105 82.7174 16.1526 83.1209 15.2802C83.5353 14.4077 84.0915 13.7425 84.7895 13.2845C85.4983 12.8264 86.2999 12.5974 87.1942 12.5974C88.0775 12.5974 88.8736 12.8264 89.5825 13.2845C90.2913 13.7425 90.8475 14.4077 91.251 15.2802C91.6545 16.1526 91.8563 17.2105 91.8563 18.4537C91.8563 19.6969 91.6545 20.7548 91.251 21.6272C90.8475 22.4997 90.2913 23.1649 89.5825 23.623C88.8736 24.081 88.0775 24.31 87.1942 24.31ZM87.1942 22.8541C87.794 22.8541 88.3174 22.6905 88.7646 22.3634C89.2226 22.0362 89.577 21.5454 89.8279 20.8911C90.0896 20.2368 90.2205 19.4243 90.2205 18.4537C90.2205 17.4831 90.0896 16.6706 89.8279 16.0163C89.577 15.362 89.2226 14.8712 88.7646 14.5441C88.3174 14.2169 87.794 14.0533 87.1942 14.0533C86.5943 14.0533 86.0654 14.2169 85.6074 14.5441C85.1494 14.8712 84.7895 15.362 84.5277 16.0163C84.2769 16.6706 84.1515 17.4831 84.1515 18.4537C84.1515 19.4243 84.2769 20.2368 84.5277 20.8911C84.7895 21.5454 85.1494 22.0362 85.6074 22.3634C86.0654 22.6905 86.5943 22.8541 87.1942 22.8541ZM93.0667 24.1791V23.0668L97.7288 18.5682C98.1432 18.1756 98.4486 17.8321 98.6449 17.5376C98.8521 17.2323 98.9884 16.9542 99.0539 16.7034C99.1302 16.4416 99.1684 16.1908 99.1684 15.9509C99.1684 15.362 98.9612 14.8985 98.5467 14.5604C98.1323 14.2223 97.5271 14.0533 96.731 14.0533C96.1203 14.0533 95.5695 14.1569 95.0788 14.3641C94.588 14.5604 94.1627 14.8712 93.8028 15.2965L92.6904 14.3314C93.1267 13.7752 93.7101 13.3499 94.4408 13.0554C95.1824 12.7501 95.9948 12.5974 96.8782 12.5974C97.6743 12.5974 98.3668 12.7283 98.9557 12.99C99.5446 13.2408 99.9972 13.6062 100.313 14.086C100.641 14.5659 100.804 15.133 100.804 15.7873C100.804 16.1581 100.755 16.5234 100.657 16.8833C100.559 17.2432 100.373 17.6249 100.101 18.0284C99.8282 18.4319 99.4355 18.8845 98.923 19.3861L94.768 23.3939L94.3754 22.756H101.295V24.1791H93.0667ZM102.28 24.1791V23.0668L106.942 18.5682C107.357 18.1756 107.662 17.8321 107.858 17.5376C108.065 17.2323 108.202 16.9542 108.267 16.7034C108.344 16.4416 108.382 16.1908 108.382 15.9509C108.382 15.362 108.174 14.8985 107.76 14.5604C107.346 14.2223 106.74 14.0533 105.944 14.0533C105.334 14.0533 104.783 14.1569 104.292 14.3641C103.801 14.5604 103.376 14.8712 103.016 15.2965L101.904 14.3314C102.34 13.7752 102.923 13.3499 103.654 13.0554C104.396 12.7501 105.208 12.5974 106.092 12.5974C106.888 12.5974 107.58 12.7283 108.169 12.99C108.758 13.2408 109.211 13.6062 109.527 14.086C109.854 14.5659 110.018 15.133 110.018 15.7873C110.018 16.1581 109.968 16.5234 109.87 16.8833C109.772 17.2432 109.587 17.6249 109.314 18.0284C109.041 18.4319 108.649 18.8845 108.136 19.3861L103.981 23.3939L103.589 22.756H110.508V24.1791H102.28ZM112.9 27.3527H111.412C112.077 26.1967 112.562 24.9916 112.867 23.7375C113.173 22.4724 113.326 21.1256 113.326 19.6969C113.326 18.2683 113.173 16.9269 112.867 15.6728C112.562 14.4077 112.077 13.1972 111.412 12.0412H112.9C113.544 13.0118 114.029 14.1569 114.356 15.4765C114.694 16.7851 114.863 18.192 114.863 19.6969C114.863 21.2019 114.694 22.6087 114.356 23.9174C114.029 25.2152 113.544 26.3603 112.9 27.3527Z" fill="#0D0D0D" fill-opacity="0.9"/>
<path d="M0 0H138.132H0ZM138.132 36.3584H0H138.132ZM2.7264 36.3584C-3.29659 36.3584 -8.17919 31.4758 -8.17919 25.4528V10.9056C-8.17919 4.8826 -3.29659 0 2.7264 0H8.17919C8.17919 0 8.17919 1.22065 8.17919 2.7264V33.632C8.17919 35.1377 8.17919 36.3584 8.17919 36.3584H2.7264ZM138.132 0V36.3584V0Z" fill="#A1E66D" mask="url(#path-1-inside-1_931_3600)"/>
<mask id="path-4-inside-2_931_3600" fill="white">
<path d="M149.167 2.7264C149.167 1.22065 150.388 0 151.894 0H284.573C286.078 0 287.299 1.22065 287.299 2.7264V33.632C287.299 35.1377 286.078 36.3584 284.573 36.3584H151.894C150.388 36.3584 149.167 35.1377 149.167 33.632V2.7264Z"/>
</mask>
<path d="M149.167 2.7264C149.167 1.22065 150.388 0 151.894 0H284.573C286.078 0 287.299 1.22065 287.299 2.7264V33.632C287.299 35.1377 286.078 36.3584 284.573 36.3584H151.894C150.388 36.3584 149.167 35.1377 149.167 33.632V2.7264Z" fill="#F7F7F8"/>
<path d="M169.256 24.1791V14.8876H165.591V12.7283H175.57V14.8876H171.906V24.1791H169.256ZM180.498 24.3754C179.582 24.3754 178.704 24.2555 177.865 24.0156C177.025 23.7647 176.349 23.443 175.836 23.0504L176.736 21.0547C177.227 21.4037 177.805 21.6927 178.47 21.9217C179.146 22.1398 179.828 22.2488 180.515 22.2488C181.038 22.2488 181.458 22.1998 181.774 22.1016C182.102 21.9926 182.341 21.8453 182.494 21.6599C182.647 21.4746 182.723 21.2619 182.723 21.022C182.723 20.7166 182.603 20.4767 182.363 20.3022C182.123 20.1168 181.807 19.9696 181.414 19.8605C181.022 19.7406 180.586 19.6315 180.106 19.5334C179.637 19.4243 179.162 19.2934 178.683 19.1408C178.214 18.9881 177.783 18.7918 177.39 18.5519C176.998 18.3119 176.676 17.9957 176.425 17.6031C176.185 17.2105 176.065 16.7088 176.065 16.0981C176.065 15.4438 176.24 14.8494 176.589 14.315C176.949 13.7698 177.483 13.339 178.192 13.0227C178.912 12.6956 179.811 12.532 180.891 12.532C181.611 12.532 182.32 12.6192 183.018 12.7937C183.716 12.9573 184.332 13.2081 184.866 13.5462L184.048 15.5583C183.514 15.2529 182.979 15.0294 182.445 14.8876C181.911 14.7349 181.387 14.6586 180.875 14.6586C180.362 14.6586 179.942 14.7185 179.615 14.8385C179.288 14.9585 179.053 15.1166 178.912 15.3129C178.77 15.4983 178.699 15.7164 178.699 15.9672C178.699 16.2617 178.819 16.5016 179.059 16.687C179.299 16.8615 179.615 17.0033 180.008 17.1123C180.4 17.2214 180.831 17.3304 181.3 17.4395C181.78 17.5485 182.254 17.674 182.723 17.8157C183.203 17.9575 183.639 18.1483 184.032 18.3883C184.424 18.6282 184.741 18.9445 184.981 19.3371C185.231 19.7297 185.357 20.2259 185.357 20.8257C185.357 21.4691 185.177 22.058 184.817 22.5924C184.457 23.1267 183.917 23.5575 183.198 23.8847C182.489 24.2119 181.589 24.3754 180.498 24.3754ZM186.988 24.1791V12.7283H189.638V22.0198H195.38V24.1791H186.988ZM195.239 24.1791L200.343 12.7283H202.96L208.081 24.1791H205.3L201.112 14.0697H202.159L197.955 24.1791H195.239ZM197.791 21.7254L198.495 19.7133H204.384L205.103 21.7254H197.791ZM215.684 27.3527C215.063 26.3603 214.583 25.2152 214.245 23.9174C213.907 22.6087 213.738 21.2019 213.738 19.6969C213.738 18.192 213.907 16.7851 214.245 15.4765C214.583 14.1569 215.063 13.0118 215.684 12.0412H217.173C216.519 13.1972 216.039 14.4077 215.733 15.6728C215.428 16.9269 215.275 18.2683 215.275 19.6969C215.275 21.1256 215.428 22.4724 215.733 23.7375C216.039 24.9916 216.519 26.1967 217.173 27.3527H215.684ZM218.12 24.1791V23.0668L222.783 18.5682C223.197 18.1756 223.502 17.8321 223.699 17.5376C223.906 17.2323 224.042 16.9542 224.108 16.7034C224.184 16.4416 224.222 16.1908 224.222 15.9509C224.222 15.362 224.015 14.8985 223.6 14.5604C223.186 14.2223 222.581 14.0533 221.785 14.0533C221.174 14.0533 220.623 14.1569 220.132 14.3641C219.642 14.5604 219.216 14.8712 218.857 15.2965L217.744 14.3314C218.18 13.7752 218.764 13.3499 219.494 13.0554C220.236 12.7501 221.049 12.5974 221.932 12.5974C222.728 12.5974 223.42 12.7283 224.009 12.99C224.598 13.2408 225.051 13.6062 225.367 14.086C225.694 14.5659 225.858 15.133 225.858 15.7873C225.858 16.1581 225.809 16.5234 225.711 16.8833C225.613 17.2432 225.427 17.6249 225.154 18.0284C224.882 18.4319 224.489 18.8845 223.977 19.3861L219.822 23.3939L219.429 22.756H226.349V24.1791H218.12ZM232.176 24.31C231.282 24.31 230.48 24.081 229.772 23.623C229.074 23.1649 228.517 22.4997 228.103 21.6272C227.699 20.7548 227.498 19.6969 227.498 18.4537C227.498 17.2105 227.699 16.1526 228.103 15.2802C228.517 14.4077 229.074 13.7425 229.772 13.2845C230.48 12.8264 231.282 12.5974 232.176 12.5974C233.06 12.5974 233.856 12.8264 234.565 13.2845C235.273 13.7425 235.83 14.4077 236.233 15.2802C236.637 16.1526 236.838 17.2105 236.838 18.4537C236.838 19.6969 236.637 20.7548 236.233 21.6272C235.83 22.4997 235.273 23.1649 234.565 23.623C233.856 24.081 233.06 24.31 232.176 24.31ZM232.176 22.8541C232.776 22.8541 233.299 22.6905 233.747 22.3634C234.205 22.0362 234.559 21.5454 234.81 20.8911C235.072 20.2368 235.202 19.4243 235.202 18.4537C235.202 17.4831 235.072 16.6706 234.81 16.0163C234.559 15.362 234.205 14.8712 233.747 14.5441C233.299 14.2169 232.776 14.0533 232.176 14.0533C231.576 14.0533 231.047 14.2169 230.589 14.5441C230.131 14.8712 229.772 15.362 229.51 16.0163C229.259 16.6706 229.134 17.4831 229.134 18.4537C229.134 19.4243 229.259 20.2368 229.51 20.8911C229.772 21.5454 230.131 22.0362 230.589 22.3634C231.047 22.6905 231.576 22.8541 232.176 22.8541ZM238.049 24.1791V23.0668L242.711 18.5682C243.125 18.1756 243.431 17.8321 243.627 17.5376C243.834 17.2323 243.97 16.9542 244.036 16.7034C244.112 16.4416 244.15 16.1908 244.15 15.9509C244.15 15.362 243.943 14.8985 243.529 14.5604C243.114 14.2223 242.509 14.0533 241.713 14.0533C241.102 14.0533 240.552 14.1569 240.061 14.3641C239.57 14.5604 239.145 14.8712 238.785 15.2965L237.672 14.3314C238.109 13.7752 238.692 13.3499 239.423 13.0554C240.164 12.7501 240.977 12.5974 241.86 12.5974C242.656 12.5974 243.349 12.7283 243.938 12.99C244.527 13.2408 244.979 13.6062 245.295 14.086C245.623 14.5659 245.786 15.133 245.786 15.7873C245.786 16.1581 245.737 16.5234 245.639 16.8833C245.541 17.2432 245.355 17.6249 245.083 18.0284C244.81 18.4319 244.418 18.8845 243.905 19.3861L239.75 23.3939L239.357 22.756H246.277V24.1791H238.049ZM247.262 24.1791V23.0668L251.924 18.5682C252.339 18.1756 252.644 17.8321 252.84 17.5376C253.047 17.2323 253.184 16.9542 253.249 16.7034C253.326 16.4416 253.364 16.1908 253.364 15.9509C253.364 15.362 253.157 14.8985 252.742 14.5604C252.328 14.2223 251.722 14.0533 250.926 14.0533C250.316 14.0533 249.765 14.1569 249.274 14.3641C248.783 14.5604 248.358 14.8712 247.998 15.2965L246.886 14.3314C247.322 13.7752 247.905 13.3499 248.636 13.0554C249.378 12.7501 250.19 12.5974 251.074 12.5974C251.87 12.5974 252.562 12.7283 253.151 12.99C253.74 13.2408 254.193 13.6062 254.509 14.086C254.836 14.5659 255 15.133 255 15.7873C255 16.1581 254.951 16.5234 254.852 16.8833C254.754 17.2432 254.569 17.6249 254.296 18.0284C254.024 18.4319 253.631 18.8845 253.118 19.3861L248.963 23.3939L248.571 22.756H255.49V24.1791H247.262ZM257.882 27.3527H256.394C257.059 26.1967 257.544 24.9916 257.85 23.7375C258.155 22.4724 258.308 21.1256 258.308 19.6969C258.308 18.2683 258.155 16.9269 257.85 15.6728C257.544 14.4077 257.059 13.1972 256.394 12.0412H257.882C258.526 13.0118 259.011 14.1569 259.338 15.4765C259.676 16.7851 259.845 18.192 259.845 19.6969C259.845 21.2019 259.676 22.6087 259.338 23.9174C259.011 25.2152 258.526 26.3603 257.882 27.3527Z" fill="#0D0D0D" fill-opacity="0.9"/>
<path d="M149.167 0H287.299H149.167ZM287.299 36.3584H149.167H287.299ZM151.894 36.3584C145.871 36.3584 140.988 31.4758 140.988 25.4528V10.9056C140.988 4.8826 145.871 0 151.894 0H157.347C157.347 0 157.347 1.22065 157.347 2.7264V33.632C157.347 35.1377 157.347 36.3584 157.347 36.3584H151.894ZM287.299 0V36.3584V0Z" fill="#70E4EC" mask="url(#path-4-inside-2_931_3600)"/>
<mask id="path-7-inside-3_931_3600" fill="white">
<path d="M297.868 2.7264C297.868 1.22065 299.089 0 300.595 0H433.274C434.779 0 436 1.22065 436 2.7264V33.632C436 35.1377 434.779 36.3584 433.274 36.3584H300.595C299.089 36.3584 297.868 35.1377 297.868 33.632V2.7264Z"/>
</mask>
<path d="M297.868 2.7264C297.868 1.22065 299.089 0 300.595 0H433.274C434.779 0 436 1.22065 436 2.7264V33.632C436 35.1377 434.779 36.3584 433.274 36.3584H300.595C299.089 36.3584 297.868 35.1377 297.868 33.632V2.7264Z" fill="#F7F7F8"/>
<path d="M315.585 24.1791V12.7283H317.777L322.651 20.8093H321.49L326.283 12.7283H328.459L328.491 24.1791H326.005L325.988 16.5398H326.447L322.619 22.9686H321.424L317.515 16.5398H318.071V24.1791H315.585ZM333.466 17.3413H338.978V19.4025H333.466V17.3413ZM333.662 22.0525H339.894V24.1791H331.028V12.7283H339.682V14.8549H333.662V22.0525ZM344.195 24.1791V14.8876H340.531V12.7283H350.509V14.8876H346.845V24.1791H344.195ZM349.675 24.1791L354.779 12.7283H357.396L362.516 24.1791H359.736L355.548 14.0697H356.595L352.391 24.1791H349.675ZM352.227 21.7254L352.93 19.7133H358.819L359.539 21.7254H352.227ZM370.12 27.3527C369.499 26.3603 369.019 25.2152 368.681 23.9174C368.343 22.6087 368.174 21.2019 368.174 19.6969C368.174 18.192 368.343 16.7851 368.681 15.4765C369.019 14.1569 369.499 13.0118 370.12 12.0412H371.609C370.955 13.1972 370.475 14.4077 370.169 15.6728C369.864 16.9269 369.711 18.2683 369.711 19.6969C369.711 21.1256 369.864 22.4724 370.169 23.7375C370.475 24.9916 370.955 26.1967 371.609 27.3527H370.12ZM372.556 24.1791V23.0668L377.218 18.5682C377.633 18.1756 377.938 17.8321 378.135 17.5376C378.342 17.2323 378.478 16.9542 378.543 16.7034C378.62 16.4416 378.658 16.1908 378.658 15.9509C378.658 15.362 378.451 14.8985 378.036 14.5604C377.622 14.2223 377.017 14.0533 376.221 14.0533C375.61 14.0533 375.059 14.1569 374.568 14.3641C374.078 14.5604 373.652 14.8712 373.292 15.2965L372.18 14.3314C372.616 13.7752 373.2 13.3499 373.93 13.0554C374.672 12.7501 375.484 12.5974 376.368 12.5974C377.164 12.5974 377.856 12.7283 378.445 12.99C379.034 13.2408 379.487 13.6062 379.803 14.086C380.13 14.5659 380.294 15.133 380.294 15.7873C380.294 16.1581 380.245 16.5234 380.147 16.8833C380.048 17.2432 379.863 17.6249 379.59 18.0284C379.318 18.4319 378.925 18.8845 378.413 19.3861L374.258 23.3939L373.865 22.756H380.785V24.1791H372.556ZM386.612 24.31C385.718 24.31 384.916 24.081 384.207 23.623C383.509 23.1649 382.953 22.4997 382.539 21.6272C382.135 20.7548 381.934 19.6969 381.934 18.4537C381.934 17.2105 382.135 16.1526 382.539 15.2802C382.953 14.4077 383.509 13.7425 384.207 13.2845C384.916 12.8264 385.718 12.5974 386.612 12.5974C387.495 12.5974 388.292 12.8264 389 13.2845C389.709 13.7425 390.266 14.4077 390.669 15.2802C391.073 16.1526 391.274 17.2105 391.274 18.4537C391.274 19.6969 391.073 20.7548 390.669 21.6272C390.266 22.4997 389.709 23.1649 389 23.623C388.292 24.081 387.495 24.31 386.612 24.31ZM386.612 22.8541C387.212 22.8541 387.735 22.6905 388.183 22.3634C388.641 22.0362 388.995 21.5454 389.246 20.8911C389.508 20.2368 389.638 19.4243 389.638 18.4537C389.638 17.4831 389.508 16.6706 389.246 16.0163C388.995 15.362 388.641 14.8712 388.183 14.5441C387.735 14.2169 387.212 14.0533 386.612 14.0533C386.012 14.0533 385.483 14.2169 385.025 14.5441C384.567 14.8712 384.207 15.362 383.946 16.0163C383.695 16.6706 383.569 17.4831 383.569 18.4537C383.569 19.4243 383.695 20.2368 383.946 20.8911C384.207 21.5454 384.567 22.0362 385.025 22.3634C385.483 22.6905 386.012 22.8541 386.612 22.8541ZM392.485 24.1791V23.0668L397.147 18.5682C397.561 18.1756 397.867 17.8321 398.063 17.5376C398.27 17.2323 398.406 16.9542 398.472 16.7034C398.548 16.4416 398.586 16.1908 398.586 15.9509C398.586 15.362 398.379 14.8985 397.965 14.5604C397.55 14.2223 396.945 14.0533 396.149 14.0533C395.538 14.0533 394.987 14.1569 394.497 14.3641C394.006 14.5604 393.581 14.8712 393.221 15.2965L392.108 14.3314C392.545 13.7752 393.128 13.3499 393.859 13.0554C394.6 12.7501 395.413 12.5974 396.296 12.5974C397.092 12.5974 397.785 12.7283 398.374 12.99C398.963 13.2408 399.415 13.6062 399.731 14.086C400.059 14.5659 400.222 15.133 400.222 15.7873C400.222 16.1581 400.173 16.5234 400.075 16.8833C399.977 17.2432 399.791 17.6249 399.519 18.0284C399.246 18.4319 398.854 18.8845 398.341 19.3861L394.186 23.3939L393.793 22.756H400.713V24.1791H392.485ZM401.698 24.1791V23.0668L406.36 18.5682C406.775 18.1756 407.08 17.8321 407.276 17.5376C407.483 17.2323 407.62 16.9542 407.685 16.7034C407.762 16.4416 407.8 16.1908 407.8 15.9509C407.8 15.362 407.592 14.8985 407.178 14.5604C406.764 14.2223 406.158 14.0533 405.362 14.0533C404.752 14.0533 404.201 14.1569 403.71 14.3641C403.219 14.5604 402.794 14.8712 402.434 15.2965L401.322 14.3314C401.758 13.7752 402.341 13.3499 403.072 13.0554C403.814 12.7501 404.626 12.5974 405.51 12.5974C406.306 12.5974 406.998 12.7283 407.587 12.99C408.176 13.2408 408.629 13.6062 408.945 14.086C409.272 14.5659 409.436 15.133 409.436 15.7873C409.436 16.1581 409.386 16.5234 409.288 16.8833C409.19 17.2432 409.005 17.6249 408.732 18.0284C408.459 18.4319 408.067 18.8845 407.554 19.3861L403.399 23.3939L403.007 22.756H409.926V24.1791H401.698ZM412.318 27.3527H410.83C411.495 26.1967 411.98 24.9916 412.285 23.7375C412.591 22.4724 412.743 21.1256 412.743 19.6969C412.743 18.2683 412.591 16.9269 412.285 15.6728C411.98 14.4077 411.495 13.1972 410.83 12.0412H412.318C412.962 13.0118 413.447 14.1569 413.774 15.4765C414.112 16.7851 414.281 18.192 414.281 19.6969C414.281 21.2019 414.112 22.6087 413.774 23.9174C413.447 25.2152 412.962 26.3603 412.318 27.3527Z" fill="#0D0D0D" fill-opacity="0.9"/>
<path d="M297.868 0H436H297.868ZM436 36.3584H297.868H436ZM300.595 36.3584C294.572 36.3584 289.689 31.4758 289.689 25.4528V10.9056C289.689 4.8826 294.572 0 300.595 0H306.048C306.048 0 306.048 1.22065 306.048 2.7264V33.632C306.048 35.1377 306.048 36.3584 306.048 36.3584H300.595ZM436 0V36.3584V0Z" fill="#D09FF6" mask="url(#path-7-inside-3_931_3600)"/>
</svg>
