<svg width="501" height="502" viewBox="0 0 501 502" fill="none" xmlns="http://www.w3.org/2000/svg">
<path d="M460 1H480C491.046 1 500 9.95431 500 21V167.667H460V1Z" fill="#F7F7F8"/>
<path d="M460 0H480C491.598 0 501 9.40202 501 21H499C499 10.5066 490.493 2 480 2H460V0ZM501 168.667H460V166.667H499L501 168.667ZM460 167.667V1V167.667ZM480 0C491.598 0 501 9.40202 501 21V168.667L499 166.667V21C499 10.5066 490.493 2 480 2V0Z" fill="#D2D2DC"/>
<path d="M460 334H500V480.667C500 491.712 491.046 500.667 480 500.667H460V334Z" fill="#F7F7F8"/>
<path d="M460 333H501L499 335H460V333ZM501 480.667C501 492.265 491.598 501.667 480 501.667H460V499.667H480C490.493 499.667 499 491.16 499 480.667H501ZM460 500.667V334V500.667ZM501 333V480.667C501 492.265 491.598 501.667 480 501.667V499.667C490.493 499.667 499 491.16 499 480.667V335L501 333Z" fill="#D2D2DC"/>
<g clip-path="url(#clip0_903_3554)">
<path d="M1 21C1 9.95432 9.95431 1 21 1H461V501H21C9.9543 501 1 492.046 1 481V21Z" fill="#E9E9ED"/>
<rect x="31" y="75" width="400" height="456" fill="white"/>
<rect x="137" y="178" width="189" height="25" rx="12.5" fill="#D2D2DC"/>
<rect x="147" y="160" width="169" height="13" rx="6.5" fill="#D2D2DC"/>
<rect x="118" y="141" width="226" height="13" rx="6.5" fill="#D2D2DC"/>
<rect x="63" y="243" width="175" height="8" rx="4" fill="#E9E9ED"/>
<rect x="63" y="315" width="315" height="8" rx="4" fill="#E9E9ED"/>
<rect x="63" y="385" width="263" height="8" rx="4" fill="#E9E9ED"/>
<rect x="63" y="457" width="263" height="8" rx="4" fill="#E9E9ED"/>
<rect x="63" y="257" width="236" height="8" rx="4" fill="#E9E9ED"/>
<rect x="63" y="328" width="301" height="8" rx="4" fill="#E9E9ED"/>
<rect x="63" y="399" width="314" height="8" rx="4" fill="#E9E9ED"/>
<rect x="63" y="471" width="314" height="8" rx="4" fill="#E9E9ED"/>
<rect x="63" y="270" width="273" height="8" rx="4" fill="#E9E9ED"/>
<rect x="63" y="341" width="319" height="8" rx="4" fill="#E9E9ED"/>
<rect x="63" y="412" width="292" height="8" rx="4" fill="#E9E9ED"/>
<rect x="63" y="484" width="292" height="8" rx="4" fill="#E9E9ED"/>
<rect x="63" y="283" width="194" height="8" rx="4" fill="#E9E9ED"/>
<rect x="63" y="353" width="144" height="8" rx="4" fill="#E9E9ED"/>
<rect x="63" y="425" width="150" height="8" rx="4" fill="#E9E9ED"/>
<rect x="63" y="497" width="150" height="8" rx="4" fill="#E9E9ED"/>
<path d="M36.434 49V35.844H31.11V33.49H44.574V35.844H39.25V49H36.434ZM49.6773 49.22C48.46 49.22 47.4113 48.9927 46.5313 48.538C45.6513 48.0833 44.9693 47.438 44.4853 46.602C44.016 45.766 43.7813 44.776 43.7813 43.632C43.7813 42.5173 44.0086 41.542 44.4633 40.706C44.9326 39.87 45.5706 39.2173 46.3773 38.748C47.1986 38.264 48.13 38.022 49.1713 38.022C50.6966 38.022 51.8993 38.506 52.7793 39.474C53.674 40.442 54.1213 41.762 54.1213 43.434V44.248H46.4213C46.6266 46.1693 47.7266 47.13 49.7213 47.13C50.3226 47.13 50.924 47.042 51.5253 46.866C52.1266 46.6753 52.6766 46.382 53.1753 45.986L53.9453 47.834C53.432 48.2593 52.7866 48.5967 52.0093 48.846C51.232 49.0953 50.4546 49.22 49.6773 49.22ZM49.2813 39.892C48.4746 39.892 47.822 40.1413 47.3233 40.64C46.8246 41.1387 46.524 41.8133 46.4213 42.664H51.8333C51.7746 41.7693 51.5253 41.0873 51.0853 40.618C50.66 40.134 50.0586 39.892 49.2813 39.892ZM60.2371 49.22C59.3278 49.22 58.4771 49.11 57.6851 48.89C56.8931 48.67 56.2331 48.3547 55.7051 47.944L56.4091 46.14C56.9518 46.5067 57.5605 46.7927 58.2351 46.998C58.9098 47.1887 59.5845 47.284 60.2591 47.284C60.9631 47.284 61.4838 47.1667 61.8211 46.932C62.1731 46.6827 62.3491 46.36 62.3491 45.964C62.3491 45.348 61.8945 44.952 60.9851 44.776L58.7851 44.358C56.9225 44.006 55.9911 43.038 55.9911 41.454C55.9911 40.75 56.1818 40.1413 56.5631 39.628C56.9591 39.1147 57.5018 38.7187 58.1911 38.44C58.8805 38.1613 59.6725 38.022 60.5671 38.022C61.3298 38.022 62.0631 38.132 62.7671 38.352C63.4711 38.5573 64.0725 38.8727 64.5711 39.298L63.8231 41.102C63.3978 40.75 62.8845 40.4713 62.2831 40.266C61.6965 40.0607 61.1318 39.958 60.5891 39.958C59.8705 39.958 59.3351 40.0827 58.9831 40.332C58.6458 40.5813 58.4771 40.9113 58.4771 41.322C58.4771 41.9673 58.8951 42.3633 59.7311 42.51L61.9311 42.928C62.8845 43.104 63.6031 43.4267 64.0871 43.896C64.5858 44.3653 64.8351 44.996 64.8351 45.788C64.8351 46.8587 64.4171 47.702 63.5811 48.318C62.7451 48.9193 61.6305 49.22 60.2371 49.22ZM70.7813 49.22C69.5053 49.22 68.5593 48.8753 67.9433 48.186C67.342 47.482 67.0413 46.4553 67.0413 45.106V33.49H69.7913V44.974C69.7913 46.294 70.3487 46.954 71.4633 46.954C71.6247 46.954 71.786 46.9467 71.9473 46.932C72.1087 46.9173 72.2627 46.888 72.4093 46.844L72.3653 49.022C71.8373 49.154 71.3093 49.22 70.7813 49.22ZM77.6087 49.22C76.8314 49.22 76.1347 49.0733 75.5187 48.78C74.9174 48.472 74.4407 48.0613 74.0887 47.548C73.7514 47.0347 73.5827 46.4553 73.5827 45.81C73.5827 45.018 73.7881 44.3947 74.1987 43.94C74.6094 43.4707 75.2767 43.1333 76.2007 42.928C77.1247 42.7227 78.3641 42.62 79.9187 42.62H80.6887V42.158C80.6887 41.4247 80.5274 40.8967 80.2047 40.574C79.8821 40.2513 79.3394 40.09 78.5767 40.09C77.9754 40.09 77.3594 40.1853 76.7287 40.376C76.0981 40.552 75.4601 40.8307 74.8147 41.212L74.0227 39.342C74.4041 39.078 74.8514 38.8507 75.3647 38.66C75.8927 38.4547 76.4427 38.3007 77.0147 38.198C77.6014 38.0807 78.1514 38.022 78.6647 38.022C80.2341 38.022 81.4001 38.3887 82.1627 39.122C82.9254 39.8407 83.3067 40.9627 83.3067 42.488V49H80.7327V47.284C80.4834 47.8853 80.0874 48.362 79.5447 48.714C79.0021 49.0513 78.3567 49.22 77.6087 49.22ZM78.1807 47.328C78.8994 47.328 79.4934 47.0787 79.9627 46.58C80.4467 46.0813 80.6887 45.4507 80.6887 44.688V44.204H79.9407C78.5621 44.204 77.6014 44.314 77.0587 44.534C76.5307 44.7393 76.2667 45.1207 76.2667 45.678C76.2667 46.162 76.4354 46.558 76.7727 46.866C77.1101 47.174 77.5794 47.328 78.1807 47.328ZM87.198 51.926L86.076 51.046C86.4426 50.6793 86.714 50.3273 86.89 49.99C87.0806 49.6673 87.2126 49.3373 87.286 49H85.856V45.942H88.936V47.966C88.936 48.714 88.804 49.396 88.54 50.012C88.2906 50.6427 87.8433 51.2807 87.198 51.926ZM97.7487 49V33.49H100.565V49H97.7487ZM103.672 49V38.242H106.356V39.914C106.723 39.298 107.214 38.8287 107.83 38.506C108.461 38.1833 109.165 38.022 109.942 38.022C112.48 38.022 113.748 39.496 113.748 42.444V49H110.998V42.576C110.998 41.74 110.837 41.1313 110.514 40.75C110.206 40.3687 109.722 40.178 109.062 40.178C108.256 40.178 107.61 40.4347 107.126 40.948C106.657 41.4467 106.422 42.114 106.422 42.95V49H103.672ZM121.513 49.22C120.384 49.22 119.401 48.9927 118.565 48.538C117.729 48.0687 117.084 47.4087 116.629 46.558C116.175 45.7073 115.947 44.71 115.947 43.566C115.947 42.422 116.175 41.4393 116.629 40.618C117.084 39.782 117.729 39.144 118.565 38.704C119.401 38.2493 120.384 38.022 121.513 38.022C122.203 38.022 122.885 38.132 123.559 38.352C124.234 38.572 124.791 38.88 125.231 39.276L124.417 41.19C124.036 40.8527 123.603 40.596 123.119 40.42C122.65 40.244 122.195 40.156 121.755 40.156C120.802 40.156 120.061 40.4567 119.533 41.058C119.02 41.6447 118.763 42.488 118.763 43.588C118.763 44.6733 119.02 45.5313 119.533 46.162C120.061 46.778 120.802 47.086 121.755 47.086C122.181 47.086 122.635 46.998 123.119 46.822C123.603 46.646 124.036 46.382 124.417 46.03L125.231 47.966C124.791 48.3473 124.227 48.6553 123.537 48.89C122.863 49.11 122.188 49.22 121.513 49.22ZM131.418 43.94V42.29H153.418V43.94H131.418ZM165.068 49V35.052H159.436V33.49H172.526V35.052H166.894V49H165.068ZM178.975 49.198C177.758 49.198 176.658 49.044 175.675 48.736C174.692 48.4133 173.842 47.9513 173.123 47.35L173.761 45.898C174.509 46.47 175.294 46.8953 176.115 47.174C176.936 47.4527 177.89 47.592 178.975 47.592C180.295 47.592 181.27 47.35 181.901 46.866C182.546 46.3673 182.869 45.7147 182.869 44.908C182.869 44.2627 182.634 43.7493 182.165 43.368C181.71 42.9867 180.94 42.686 179.855 42.466L177.567 42.004C176.188 41.7107 175.154 41.234 174.465 40.574C173.79 39.8993 173.453 39.0047 173.453 37.89C173.453 36.966 173.688 36.1593 174.157 35.47C174.641 34.7807 175.308 34.2453 176.159 33.864C177.01 33.4827 177.992 33.292 179.107 33.292C180.148 33.292 181.116 33.4607 182.011 33.798C182.906 34.1207 183.661 34.59 184.277 35.206L183.639 36.614C182.979 36.0127 182.282 35.58 181.549 35.316C180.816 35.0373 179.994 34.898 179.085 34.898C177.926 34.898 177.002 35.1693 176.313 35.712C175.624 36.24 175.279 36.944 175.279 37.824C175.279 38.528 175.492 39.0853 175.917 39.496C176.357 39.9067 177.068 40.2073 178.051 40.398L180.339 40.882C181.82 41.19 182.913 41.6593 183.617 42.29C184.336 42.906 184.695 43.7493 184.695 44.82C184.695 45.6853 184.46 46.448 183.991 47.108C183.536 47.768 182.876 48.2813 182.011 48.648C181.16 49.0147 180.148 49.198 178.975 49.198ZM187.494 49V33.49H189.298V47.416H197.196V49H187.494ZM197.514 49L204.356 33.49H205.896L212.738 49H210.868L209.152 45.04H201.078L199.384 49H197.514ZM205.104 35.602L201.738 43.522H208.514L205.148 35.602H205.104ZM220.753 49V47.636L226.055 41.916C226.803 41.0947 227.339 40.3467 227.661 39.672C227.999 38.9973 228.167 38.308 228.167 37.604C228.167 35.8 227.119 34.898 225.021 34.898C223.452 34.898 222.066 35.4847 220.863 36.658L220.181 35.25C220.753 34.6633 221.479 34.194 222.359 33.842C223.254 33.4753 224.193 33.292 225.175 33.292C226.73 33.292 227.918 33.6587 228.739 34.392C229.575 35.1107 229.993 36.1373 229.993 37.472C229.993 38.396 229.766 39.3053 229.311 40.2C228.857 41.08 228.16 42.0187 227.221 43.016L223.063 47.46H230.631V49H220.753ZM238.565 49.198C236.79 49.198 235.441 48.516 234.517 47.152C233.593 45.788 233.131 43.8153 233.131 41.234C233.131 38.638 233.593 36.6653 234.517 35.316C235.441 33.9667 236.79 33.292 238.565 33.292C240.354 33.292 241.704 33.9667 242.613 35.316C243.537 36.6507 243.999 38.616 243.999 41.212C243.999 43.808 243.53 45.788 242.591 47.152C241.667 48.516 240.325 49.198 238.565 49.198ZM238.565 47.636C239.797 47.636 240.706 47.1153 241.293 46.074C241.894 45.0327 242.195 43.412 242.195 41.212C242.195 39.012 241.902 37.406 241.315 36.394C240.728 35.3673 239.812 34.854 238.565 34.854C237.333 34.854 236.416 35.3673 235.815 36.394C235.228 37.4207 234.935 39.0267 234.935 41.212C234.935 43.412 235.228 45.0327 235.815 46.074C236.416 47.1153 237.333 47.636 238.565 47.636ZM247.136 49V47.636L252.438 41.916C253.186 41.0947 253.722 40.3467 254.044 39.672C254.382 38.9973 254.55 38.308 254.55 37.604C254.55 35.8 253.502 34.898 251.404 34.898C249.835 34.898 248.449 35.4847 247.246 36.658L246.564 35.25C247.136 34.6633 247.862 34.194 248.742 33.842C249.637 33.4753 250.576 33.292 251.558 33.292C253.113 33.292 254.301 33.6587 255.122 34.392C255.958 35.1107 256.376 36.1373 256.376 37.472C256.376 38.396 256.149 39.3053 255.694 40.2C255.24 41.08 254.543 42.0187 253.604 43.016L249.446 47.46H257.014V49H247.136ZM260.328 49V47.636L265.63 41.916C266.378 41.0947 266.913 40.3467 267.236 39.672C267.573 38.9973 267.742 38.308 267.742 37.604C267.742 35.8 266.693 34.898 264.596 34.898C263.026 34.898 261.64 35.4847 260.438 36.658L259.756 35.25C260.328 34.6633 261.054 34.194 261.934 33.842C262.828 33.4753 263.767 33.292 264.75 33.292C266.304 33.292 267.492 33.6587 268.314 34.392C269.15 35.1107 269.568 36.1373 269.568 37.472C269.568 38.396 269.34 39.3053 268.886 40.2C268.431 41.08 267.734 42.0187 266.796 43.016L262.638 47.46H270.206V49H260.328Z" fill="#9F9EB0"/>
</g>
<path d="M1 21C1 9.95432 9.95431 1 21 1H461V501H21C9.9543 501 1 492.046 1 481V21Z" stroke="#70E4EC" stroke-width="2"/>
<path d="M460 167H500V333.667H460V167Z" fill="#E9E9ED"/>
<path d="M500 167H501V166H500V167ZM500 333.667V334.667H501V333.667H500ZM460 168H500V166H460V168ZM499 167V333.667H501V167H499ZM500 332.667H460V334.667H500V332.667Z" fill="#70E4EC"/>
<defs>
<clipPath id="clip0_903_3554">
<path d="M1 21C1 9.95432 9.95431 1 21 1H461V501H21C9.9543 501 1 492.046 1 481V21Z" fill="white"/>
</clipPath>
</defs>
</svg>
