<svg width="501" height="502" viewBox="0 0 501 502" fill="none" xmlns="http://www.w3.org/2000/svg">
<path d="M460 167H500V333.667H460V167Z" fill="#F7F7F8"/>
<path d="M500 167H501V166H500V167ZM500 333.667V334.667H501V333.667H500ZM460 168H500V166H460V168ZM499 167V333.667H501V167H499ZM500 332.667H460V334.667H500V332.667Z" fill="#D2D2DC"/>
<path d="M460 1H480C491.046 1 500 9.95431 500 21V167.667H460V1Z" fill="#F7F7F8"/>
<path d="M460 0H480C491.598 0 501 9.40202 501 21H499C499 10.5066 490.493 2 480 2H460V0ZM501 168.667H460V166.667H499L501 168.667ZM460 167.667V1V167.667ZM480 0C491.598 0 501 9.40202 501 21V168.667L499 166.667V21C499 10.5066 490.493 2 480 2V0Z" fill="#D2D2DC"/>
<g clip-path="url(#clip0_920_3472)">
<path d="M1 21C1 9.95432 9.95431 1 21 1H461V501H21C9.9543 501 1 492.046 1 481V21Z" fill="#E9E9ED"/>
<rect x="31" y="75" width="400" height="456" fill="white"/>
<rect x="137" y="114" width="189" height="25" rx="12.5" fill="#D2D2DC"/>
<rect x="147" y="164" width="169" height="13" rx="6.5" fill="#D2D2DC"/>
<rect x="118" y="145" width="226" height="13" rx="6.5" fill="#D2D2DC"/>
<rect x="63" y="354" width="175" height="8" rx="4" fill="#E9E9ED"/>
<rect x="63" y="368" width="236" height="8" rx="4" fill="#E9E9ED"/>
<rect x="63" y="381" width="273" height="8" rx="4" fill="#E9E9ED"/>
<rect x="63" y="394" width="194" height="8" rx="4" fill="#E9E9ED"/>
<rect x="63" y="284" width="315" height="8" rx="4" fill="#D09FF6"/>
<rect x="63" y="297" width="301" height="8" rx="4" fill="#D09FF6"/>
<rect x="63" y="310" width="319" height="8" rx="4" fill="#D09FF6"/>
<rect x="63" y="322" width="144" height="8" rx="4" fill="#D09FF6"/>
<rect x="63" y="212" width="263" height="8" rx="4" fill="#E9E9ED"/>
<rect x="63" y="226" width="314" height="8" rx="4" fill="#E9E9ED"/>
<rect x="63" y="239" width="292" height="8" rx="4" fill="#E9E9ED"/>
<rect x="63" y="252" width="150" height="8" rx="4" fill="#E9E9ED"/>
<rect x="63" y="426" width="263" height="8" rx="4" fill="#E9E9ED"/>
<rect x="63" y="440" width="314" height="8" rx="4" fill="#E9E9ED"/>
<rect x="63" y="453" width="292" height="8" rx="4" fill="#E9E9ED"/>
<rect x="63" y="466" width="150" height="8" rx="4" fill="#E9E9ED"/>
<path d="M32.738 49V33.49H35.092L40.592 43.632L46.07 33.49H48.38V49H45.828V38.55L41.384 46.646H39.734L35.29 38.594V49H32.738ZM56.8316 49.22C55.6143 49.22 54.5656 48.9927 53.6856 48.538C52.8056 48.0833 52.1236 47.438 51.6396 46.602C51.1703 45.766 50.9356 44.776 50.9356 43.632C50.9356 42.5173 51.1629 41.542 51.6176 40.706C52.0869 39.87 52.7249 39.2173 53.5316 38.748C54.3529 38.264 55.2843 38.022 56.3256 38.022C57.8509 38.022 59.0536 38.506 59.9336 39.474C60.8283 40.442 61.2756 41.762 61.2756 43.434V44.248H53.5756C53.7809 46.1693 54.8809 47.13 56.8756 47.13C57.4769 47.13 58.0783 47.042 58.6796 46.866C59.2809 46.6753 59.8309 46.382 60.3296 45.986L61.0996 47.834C60.5863 48.2593 59.9409 48.5967 59.1636 48.846C58.3863 49.0953 57.6089 49.22 56.8316 49.22ZM56.4356 39.892C55.6289 39.892 54.9763 40.1413 54.4776 40.64C53.9789 41.1387 53.6783 41.8133 53.5756 42.664H58.9876C58.9289 41.7693 58.6796 41.0873 58.2396 40.618C57.8143 40.134 57.2129 39.892 56.4356 39.892ZM68.3385 49.22C65.4931 49.22 64.0705 47.812 64.0705 44.996V40.31H62.0025V38.242H64.0705V35.03H66.8205V38.242H70.0765V40.31H66.8205V44.842C66.8205 45.546 66.9745 46.074 67.2825 46.426C67.5905 46.778 68.0891 46.954 68.7785 46.954C68.9838 46.954 69.1965 46.932 69.4165 46.888C69.6365 46.8293 69.8638 46.7707 70.0985 46.712L70.5165 48.736C70.2525 48.8827 69.9151 49 69.5045 49.088C69.1085 49.176 68.7198 49.22 68.3385 49.22ZM75.3958 49.22C74.6185 49.22 73.9218 49.0733 73.3058 48.78C72.7045 48.472 72.2278 48.0613 71.8758 47.548C71.5385 47.0347 71.3698 46.4553 71.3698 45.81C71.3698 45.018 71.5752 44.3947 71.9858 43.94C72.3965 43.4707 73.0638 43.1333 73.9878 42.928C74.9118 42.7227 76.1512 42.62 77.7058 42.62H78.4758V42.158C78.4758 41.4247 78.3145 40.8967 77.9918 40.574C77.6692 40.2513 77.1265 40.09 76.3638 40.09C75.7625 40.09 75.1465 40.1853 74.5158 40.376C73.8852 40.552 73.2472 40.8307 72.6018 41.212L71.8098 39.342C72.1912 39.078 72.6385 38.8507 73.1518 38.66C73.6798 38.4547 74.2298 38.3007 74.8018 38.198C75.3885 38.0807 75.9385 38.022 76.4518 38.022C78.0212 38.022 79.1872 38.3887 79.9498 39.122C80.7125 39.8407 81.0938 40.9627 81.0938 42.488V49H78.5198V47.284C78.2705 47.8853 77.8745 48.362 77.3318 48.714C76.7892 49.0513 76.1438 49.22 75.3958 49.22ZM75.9678 47.328C76.6865 47.328 77.2805 47.0787 77.7498 46.58C78.2338 46.0813 78.4758 45.4507 78.4758 44.688V44.204H77.7278C76.3492 44.204 75.3885 44.314 74.8458 44.534C74.3178 44.7393 74.0538 45.1207 74.0538 45.678C74.0538 46.162 74.2225 46.558 74.5598 46.866C74.8972 47.174 75.3665 47.328 75.9678 47.328ZM90.0788 49V33.49H96.8108C98.5121 33.49 99.8248 33.9153 100.749 34.766C101.673 35.6167 102.135 36.8047 102.135 38.33C102.135 39.8553 101.673 41.0507 100.749 41.916C99.8248 42.7667 98.5121 43.192 96.8108 43.192H92.8948V49H90.0788ZM92.8948 40.97H96.3708C98.3948 40.97 99.4068 40.09 99.4068 38.33C99.4068 36.5847 98.3948 35.712 96.3708 35.712H92.8948V40.97ZM107.906 49.22C106.63 49.22 105.684 48.8753 105.068 48.186C104.467 47.482 104.166 46.4553 104.166 45.106V33.49H106.916V44.974C106.916 46.294 107.474 46.954 108.588 46.954C108.75 46.954 108.911 46.9467 109.072 46.932C109.234 46.9173 109.388 46.888 109.534 46.844L109.49 49.022C108.962 49.154 108.434 49.22 107.906 49.22ZM114.734 49.22C113.956 49.22 113.26 49.0733 112.644 48.78C112.042 48.472 111.566 48.0613 111.214 47.548C110.876 47.0347 110.708 46.4553 110.708 45.81C110.708 45.018 110.913 44.3947 111.324 43.94C111.734 43.4707 112.402 43.1333 113.326 42.928C114.25 42.7227 115.489 42.62 117.044 42.62H117.814V42.158C117.814 41.4247 117.652 40.8967 117.33 40.574C117.007 40.2513 116.464 40.09 115.702 40.09C115.1 40.09 114.484 40.1853 113.854 40.376C113.223 40.552 112.585 40.8307 111.94 41.212L111.148 39.342C111.529 39.078 111.976 38.8507 112.49 38.66C113.018 38.4547 113.568 38.3007 114.14 38.198C114.726 38.0807 115.276 38.022 115.79 38.022C117.359 38.022 118.525 38.3887 119.288 39.122C120.05 39.8407 120.432 40.9627 120.432 42.488V49H117.858V47.284C117.608 47.8853 117.212 48.362 116.67 48.714C116.127 49.0513 115.482 49.22 114.734 49.22ZM115.306 47.328C116.024 47.328 116.618 47.0787 117.088 46.58C117.572 46.0813 117.814 45.4507 117.814 44.688V44.204H117.066C115.687 44.204 114.726 44.314 114.184 44.534C113.656 44.7393 113.392 45.1207 113.392 45.678C113.392 46.162 113.56 46.558 113.898 46.866C114.235 47.174 114.704 47.328 115.306 47.328ZM128.151 49.22C125.306 49.22 123.883 47.812 123.883 44.996V40.31H121.815V38.242H123.883V35.03H126.633V38.242H129.889V40.31H126.633V44.842C126.633 45.546 126.787 46.074 127.095 46.426C127.403 46.778 127.902 46.954 128.591 46.954C128.796 46.954 129.009 46.932 129.229 46.888C129.449 46.8293 129.676 46.7707 129.911 46.712L130.329 48.736C130.065 48.8827 129.728 49 129.317 49.088C128.921 49.176 128.532 49.22 128.151 49.22ZM132.349 49V40.31H130.281V38.242H132.349V38.22C132.349 36.6947 132.745 35.5433 133.537 34.766C134.344 33.9887 135.591 33.5487 137.277 33.446L138.355 33.38L138.531 35.404L137.519 35.47C136.639 35.5287 136.016 35.7487 135.649 36.13C135.283 36.4967 135.099 37.0467 135.099 37.78V38.242H138.025V40.31H135.099V49H132.349ZM144.264 49.22C143.149 49.22 142.181 48.9927 141.36 48.538C140.538 48.0833 139.9 47.438 139.446 46.602C138.991 45.7513 138.764 44.754 138.764 43.61C138.764 42.466 138.991 41.476 139.446 40.64C139.9 39.804 140.538 39.1587 141.36 38.704C142.181 38.2493 143.149 38.022 144.264 38.022C145.378 38.022 146.346 38.2493 147.168 38.704C147.989 39.1587 148.627 39.804 149.082 40.64C149.536 41.476 149.764 42.466 149.764 43.61C149.764 44.754 149.536 45.7513 149.082 46.602C148.627 47.438 147.989 48.0833 147.168 48.538C146.346 48.9927 145.378 49.22 144.264 49.22ZM144.264 47.13C145.085 47.13 145.745 46.8367 146.244 46.25C146.742 45.6487 146.992 44.7687 146.992 43.61C146.992 42.4367 146.742 41.564 146.244 40.992C145.745 40.4053 145.085 40.112 144.264 40.112C143.442 40.112 142.782 40.4053 142.284 40.992C141.785 41.564 141.536 42.4367 141.536 43.61C141.536 44.7687 141.785 45.6487 142.284 46.25C142.782 46.8367 143.442 47.13 144.264 47.13ZM152.034 49V38.242H154.718V40.134C155.246 38.858 156.375 38.154 158.106 38.022L158.942 37.956L159.118 40.288L157.534 40.442C155.73 40.618 154.828 41.542 154.828 43.214V49H152.034ZM160.693 49V38.242H163.377V39.892C163.699 39.3053 164.147 38.8507 164.719 38.528C165.291 38.1907 165.951 38.022 166.699 38.022C168.312 38.022 169.368 38.726 169.867 40.134C170.204 39.474 170.688 38.9607 171.319 38.594C171.949 38.2127 172.668 38.022 173.475 38.022C175.895 38.022 177.105 39.496 177.105 42.444V49H174.355V42.554C174.355 41.7327 174.215 41.1313 173.937 40.75C173.673 40.3687 173.218 40.178 172.573 40.178C171.854 40.178 171.289 40.4347 170.879 40.948C170.468 41.4467 170.263 42.1433 170.263 43.038V49H167.513V42.554C167.513 41.7327 167.373 41.1313 167.095 40.75C166.831 40.3687 166.383 40.178 165.753 40.178C165.034 40.178 164.469 40.4347 164.059 40.948C163.648 41.4467 163.443 42.1433 163.443 43.038V49H160.693ZM183.88 49.22C182.97 49.22 182.12 49.11 181.328 48.89C180.536 48.67 179.876 48.3547 179.348 47.944L180.052 46.14C180.594 46.5067 181.203 46.7927 181.878 46.998C182.552 47.1887 183.227 47.284 183.902 47.284C184.606 47.284 185.126 47.1667 185.464 46.932C185.816 46.6827 185.992 46.36 185.992 45.964C185.992 45.348 185.537 44.952 184.628 44.776L182.428 44.358C180.565 44.006 179.634 43.038 179.634 41.454C179.634 40.75 179.824 40.1413 180.206 39.628C180.602 39.1147 181.144 38.7187 181.834 38.44C182.523 38.1613 183.315 38.022 184.21 38.022C184.972 38.022 185.706 38.132 186.41 38.352C187.114 38.5573 187.715 38.8727 188.214 39.298L187.466 41.102C187.04 40.75 186.527 40.4713 185.926 40.266C185.339 40.0607 184.774 39.958 184.232 39.958C183.513 39.958 182.978 40.0827 182.626 40.332C182.288 40.5813 182.12 40.9113 182.12 41.322C182.12 41.9673 182.538 42.3633 183.374 42.51L185.574 42.928C186.527 43.104 187.246 43.4267 187.73 43.896C188.228 44.3653 188.478 44.996 188.478 45.788C188.478 46.8587 188.06 47.702 187.224 48.318C186.388 48.9193 185.273 49.22 183.88 49.22ZM191.676 51.926L190.554 51.046C190.921 50.6793 191.192 50.3273 191.368 49.99C191.559 49.6673 191.691 49.3373 191.764 49H190.334V45.942H193.414V47.966C193.414 48.714 193.282 49.396 193.018 50.012C192.769 50.6427 192.322 51.2807 191.676 51.926ZM202.227 49V33.49H205.043V49H202.227ZM208.151 49V38.242H210.835V39.914C211.201 39.298 211.693 38.8287 212.309 38.506C212.939 38.1833 213.643 38.022 214.421 38.022C216.958 38.022 218.227 39.496 218.227 42.444V49H215.477V42.576C215.477 41.74 215.315 41.1313 214.993 40.75C214.685 40.3687 214.201 40.178 213.541 40.178C212.734 40.178 212.089 40.4347 211.605 40.948C211.135 41.4467 210.901 42.114 210.901 42.95V49H208.151ZM225.992 49.22C224.863 49.22 223.88 48.9927 223.044 48.538C222.208 48.0687 221.563 47.4087 221.108 46.558C220.653 45.7073 220.426 44.71 220.426 43.566C220.426 42.422 220.653 41.4393 221.108 40.618C221.563 39.782 222.208 39.144 223.044 38.704C223.88 38.2493 224.863 38.022 225.992 38.022C226.681 38.022 227.363 38.132 228.038 38.352C228.713 38.572 229.27 38.88 229.71 39.276L228.896 41.19C228.515 40.8527 228.082 40.596 227.598 40.42C227.129 40.244 226.674 40.156 226.234 40.156C225.281 40.156 224.54 40.4567 224.012 41.058C223.499 41.6447 223.242 42.488 223.242 43.588C223.242 44.6733 223.499 45.5313 224.012 46.162C224.54 46.778 225.281 47.086 226.234 47.086C226.659 47.086 227.114 46.998 227.598 46.822C228.082 46.646 228.515 46.382 228.896 46.03L229.71 47.966C229.27 48.3473 228.705 48.6553 228.016 48.89C227.341 49.11 226.667 49.22 225.992 49.22ZM235.896 43.94V42.29H257.896V43.94H235.896ZM265.784 49V33.49H267.302L273.264 44.688L279.182 33.49H280.7V49H279.028V36.878L273.858 46.602H272.67L267.434 36.9V49H265.784ZM284.56 49V33.49H294.35V35.008H286.32V40.376H293.888V41.894H286.32V47.482H294.35V49H284.56ZM300.913 49V35.052H295.281V33.49H308.371V35.052H302.739V49H300.913ZM307.17 49L314.012 33.49H315.552L322.394 49H320.524L318.808 45.04H310.734L309.04 49H307.17ZM314.76 35.602L311.394 43.522H318.17L314.804 35.602H314.76ZM330.41 49V47.636L335.712 41.916C336.46 41.0947 336.995 40.3467 337.318 39.672C337.655 38.9973 337.824 38.308 337.824 37.604C337.824 35.8 336.775 34.898 334.678 34.898C333.108 34.898 331.722 35.4847 330.52 36.658L329.838 35.25C330.41 34.6633 331.136 34.194 332.016 33.842C332.91 33.4753 333.849 33.292 334.832 33.292C336.386 33.292 337.574 33.6587 338.396 34.392C339.232 35.1107 339.65 36.1373 339.65 37.472C339.65 38.396 339.422 39.3053 338.968 40.2C338.513 41.08 337.816 42.0187 336.878 43.016L332.72 47.46H340.288V49H330.41ZM348.221 49.198C346.446 49.198 345.097 48.516 344.173 47.152C343.249 45.788 342.787 43.8153 342.787 41.234C342.787 38.638 343.249 36.6653 344.173 35.316C345.097 33.9667 346.446 33.292 348.221 33.292C350.01 33.292 351.36 33.9667 352.269 35.316C353.193 36.6507 353.655 38.616 353.655 41.212C353.655 43.808 353.186 45.788 352.247 47.152C351.323 48.516 349.981 49.198 348.221 49.198ZM348.221 47.636C349.453 47.636 350.362 47.1153 350.949 46.074C351.55 45.0327 351.851 43.412 351.851 41.212C351.851 39.012 351.558 37.406 350.971 36.394C350.384 35.3673 349.468 34.854 348.221 34.854C346.989 34.854 346.072 35.3673 345.471 36.394C344.884 37.4207 344.591 39.0267 344.591 41.212C344.591 43.412 344.884 45.0327 345.471 46.074C346.072 47.1153 346.989 47.636 348.221 47.636ZM356.793 49V47.636L362.095 41.916C362.843 41.0947 363.378 40.3467 363.701 39.672C364.038 38.9973 364.207 38.308 364.207 37.604C364.207 35.8 363.158 34.898 361.061 34.898C359.491 34.898 358.105 35.4847 356.903 36.658L356.221 35.25C356.793 34.6633 357.519 34.194 358.399 33.842C359.293 33.4753 360.232 33.292 361.215 33.292C362.769 33.292 363.957 33.6587 364.779 34.392C365.615 35.1107 366.033 36.1373 366.033 37.472C366.033 38.396 365.805 39.3053 365.351 40.2C364.896 41.08 364.199 42.0187 363.261 43.016L359.103 47.46H366.671V49H356.793ZM369.984 49V47.636L375.286 41.916C376.034 41.0947 376.569 40.3467 376.892 39.672C377.229 38.9973 377.398 38.308 377.398 37.604C377.398 35.8 376.349 34.898 374.252 34.898C372.683 34.898 371.297 35.4847 370.094 36.658L369.412 35.25C369.984 34.6633 370.71 34.194 371.59 33.842C372.485 33.4753 373.423 33.292 374.406 33.292C375.961 33.292 377.149 33.6587 377.97 34.392C378.806 35.1107 379.224 36.1373 379.224 37.472C379.224 38.396 378.997 39.3053 378.542 40.2C378.087 41.08 377.391 42.0187 376.452 43.016L372.294 47.46H379.862V49H369.984Z" fill="#9F9EB0"/>
</g>
<path d="M1 21C1 9.95432 9.95431 1 21 1H461V501H21C9.9543 501 1 492.046 1 481V21Z" stroke="#D09FF6" stroke-width="2"/>
<path d="M460 334H500V480.667C500 491.712 491.046 500.667 480 500.667H460V334Z" fill="#E9E9ED"/>
<path d="M460 333H501L499 335H460V333ZM501 480.667C501 492.265 491.598 501.667 480 501.667H460V499.667H480C490.493 499.667 499 491.16 499 480.667H501ZM460 500.667V334V500.667ZM501 333V480.667C501 492.265 491.598 501.667 480 501.667V499.667C490.493 499.667 499 491.16 499 480.667V335L501 333Z" fill="#D09FF6"/>
<defs>
<clipPath id="clip0_920_3472">
<path d="M1 21C1 9.95432 9.95431 1 21 1H461V501H21C9.9543 501 1 492.046 1 481V21Z" fill="white"/>
</clipPath>
</defs>
</svg>
