<svg width="501" height="502" viewBox="0 0 501 502" fill="none" xmlns="http://www.w3.org/2000/svg">
<path d="M460 167H500V333.667H460V167Z" fill="#F7F7F8"/>
<path d="M500 167H501V166H500V167ZM500 333.667V334.667H501V333.667H500ZM460 168H500V166H460V168ZM499 167V333.667H501V167H499ZM500 332.667H460V334.667H500V332.667Z" fill="#D2D2DC"/>
<path d="M460 334H500V480.667C500 491.712 491.046 500.667 480 500.667H460V334Z" fill="#F7F7F8"/>
<path d="M460 333H501L499 335H460V333ZM501 480.667C501 492.265 491.598 501.667 480 501.667H460V499.667H480C490.493 499.667 499 491.16 499 480.667H501ZM460 500.667V334V500.667ZM501 333V480.667C501 492.265 491.598 501.667 480 501.667V499.667C490.493 499.667 499 491.16 499 480.667V335L501 333Z" fill="#D2D2DC"/>
<g clip-path="url(#clip0_920_3363)">
<path d="M1 21C1 9.95432 9.95431 1 21 1H461V501H21C9.9543 501 1 492.046 1 481V21Z" fill="#E9E9ED"/>
<rect x="31" y="75" width="400" height="456" fill="white"/>
<rect x="99" y="140" width="264" height="25" rx="12.5" fill="#D2D2DC"/>
<rect x="147" y="122" width="169" height="13" rx="6.5" fill="#D2D2DC"/>
<rect x="147" y="170" width="169" height="13" rx="6.5" fill="#D2D2DC"/>
<rect x="63" y="229" width="337" height="8" rx="4" fill="#E9E9ED"/>
<rect x="63" y="303" width="300" height="8" rx="4" fill="#E9E9ED"/>
<rect x="63" y="370" width="329" height="8" rx="4" fill="#E9E9ED"/>
<rect x="63" y="450" width="329" height="8" rx="4" fill="#E9E9ED"/>
<rect x="63" y="243" width="323" height="8" rx="4" fill="#E9E9ED"/>
<rect x="63" y="317" width="314" height="8" rx="4" fill="#E9E9ED"/>
<rect x="63" y="384" width="314" height="8" rx="4" fill="#E9E9ED"/>
<rect x="63" y="464" width="314" height="8" rx="4" fill="#E9E9ED"/>
<rect x="63" y="256" width="333" height="8" rx="4" fill="#E9E9ED"/>
<rect x="63" y="330" width="333" height="8" rx="4" fill="#E9E9ED"/>
<rect x="63" y="397" width="333" height="8" rx="4" fill="#E9E9ED"/>
<rect x="63" y="477" width="333" height="8" rx="4" fill="#E9E9ED"/>
<rect x="63" y="269" width="194" height="8" rx="4" fill="#E9E9ED"/>
<rect x="63" y="343" width="150" height="8" rx="4" fill="#E9E9ED"/>
<rect x="63" y="410" width="150" height="8" rx="4" fill="#E9E9ED"/>
<rect x="63" y="490" width="150" height="8" rx="4" fill="#E9E9ED"/>
<path d="M31.022 49L38.04 33.49H40.35L47.368 49H44.508L42.968 45.414H35.4L33.882 49H31.022ZM39.162 36.548L36.368 43.17H42L39.206 36.548H39.162ZM48.8011 52.96V38.242H51.4851V39.958C51.7931 39.3713 52.2551 38.902 52.8711 38.55C53.5018 38.198 54.2131 38.022 55.0051 38.022C55.9438 38.022 56.7651 38.2493 57.4691 38.704C58.1878 39.1587 58.7451 39.804 59.1411 40.64C59.5371 41.4613 59.7351 42.4513 59.7351 43.61C59.7351 44.754 59.5371 45.7513 59.1411 46.602C58.7451 47.438 58.1951 48.0833 57.4911 48.538C56.7871 48.9927 55.9584 49.22 55.0051 49.22C54.2424 49.22 53.5531 49.0587 52.9371 48.736C52.3358 48.3987 51.8738 47.9513 51.5511 47.394V52.96H48.8011ZM54.2351 47.13C55.0564 47.13 55.7164 46.8367 56.2151 46.25C56.7138 45.6487 56.9631 44.7687 56.9631 43.61C56.9631 42.4367 56.7138 41.564 56.2151 40.992C55.7164 40.4053 55.0564 40.112 54.2351 40.112C53.4138 40.112 52.7538 40.4053 52.2551 40.992C51.7564 41.564 51.5071 42.4367 51.5071 43.61C51.5071 44.7687 51.7564 45.6487 52.2551 46.25C52.7538 46.8367 53.4138 47.13 54.2351 47.13ZM61.9925 52.96V38.242H64.6765V39.958C64.9845 39.3713 65.4465 38.902 66.0625 38.55C66.6932 38.198 67.4045 38.022 68.1965 38.022C69.1352 38.022 69.9565 38.2493 70.6605 38.704C71.3792 39.1587 71.9365 39.804 72.3325 40.64C72.7285 41.4613 72.9265 42.4513 72.9265 43.61C72.9265 44.754 72.7285 45.7513 72.3325 46.602C71.9365 47.438 71.3865 48.0833 70.6825 48.538C69.9785 48.9927 69.1498 49.22 68.1965 49.22C67.4338 49.22 66.7445 49.0587 66.1285 48.736C65.5272 48.3987 65.0652 47.9513 64.7425 47.394V52.96H61.9925ZM67.4265 47.13C68.2478 47.13 68.9078 46.8367 69.4065 46.25C69.9052 45.6487 70.1545 44.7687 70.1545 43.61C70.1545 42.4367 69.9052 41.564 69.4065 40.992C68.9078 40.4053 68.2478 40.112 67.4265 40.112C66.6052 40.112 65.9452 40.4053 65.4465 40.992C64.9478 41.564 64.6985 42.4367 64.6985 43.61C64.6985 44.7687 64.9478 45.6487 65.4465 46.25C65.9452 46.8367 66.6052 47.13 67.4265 47.13ZM78.9239 49.22C77.6479 49.22 76.7019 48.8753 76.0859 48.186C75.4846 47.482 75.1839 46.4553 75.1839 45.106V33.49H77.9339V44.974C77.9339 46.294 78.4912 46.954 79.6059 46.954C79.7672 46.954 79.9286 46.9467 80.0899 46.932C80.2512 46.9173 80.4052 46.888 80.5519 46.844L80.5079 49.022C79.9799 49.154 79.4519 49.22 78.9239 49.22ZM87.4039 49.22C86.1865 49.22 85.1379 48.9927 84.2579 48.538C83.3779 48.0833 82.6959 47.438 82.2119 46.602C81.7425 45.766 81.5079 44.776 81.5079 43.632C81.5079 42.5173 81.7352 41.542 82.1899 40.706C82.6592 39.87 83.2972 39.2173 84.1039 38.748C84.9252 38.264 85.8565 38.022 86.8979 38.022C88.4232 38.022 89.6259 38.506 90.5059 39.474C91.4005 40.442 91.8479 41.762 91.8479 43.434V44.248H84.1479C84.3532 46.1693 85.4532 47.13 87.4479 47.13C88.0492 47.13 88.6505 47.042 89.2519 46.866C89.8532 46.6753 90.4032 46.382 90.9019 45.986L91.6719 47.834C91.1585 48.2593 90.5132 48.5967 89.7359 48.846C88.9585 49.0953 88.1812 49.22 87.4039 49.22ZM87.0079 39.892C86.2012 39.892 85.5485 40.1413 85.0499 40.64C84.5512 41.1387 84.2505 41.8133 84.1479 42.664H89.5599C89.5012 41.7693 89.2519 41.0873 88.8119 40.618C88.3865 40.134 87.7852 39.892 87.0079 39.892ZM95.1257 51.926L94.0037 51.046C94.3704 50.6793 94.6417 50.3273 94.8177 49.99C95.0084 49.6673 95.1404 49.3373 95.2137 49H93.7837V45.942H96.8637V47.966C96.8637 48.714 96.7317 49.396 96.4677 50.012C96.2184 50.6427 95.771 51.2807 95.1257 51.926ZM105.676 49V33.49H108.492V49H105.676ZM111.6 49V38.242H114.284V39.914C114.651 39.298 115.142 38.8287 115.758 38.506C116.389 38.1833 117.093 38.022 117.87 38.022C120.407 38.022 121.676 39.496 121.676 42.444V49H118.926V42.576C118.926 41.74 118.765 41.1313 118.442 40.75C118.134 40.3687 117.65 40.178 116.99 40.178C116.183 40.178 115.538 40.4347 115.054 40.948C114.585 41.4467 114.35 42.114 114.35 42.95V49H111.6ZM129.441 49.22C128.312 49.22 127.329 48.9927 126.493 48.538C125.657 48.0687 125.012 47.4087 124.557 46.558C124.102 45.7073 123.875 44.71 123.875 43.566C123.875 42.422 124.102 41.4393 124.557 40.618C125.012 39.782 125.657 39.144 126.493 38.704C127.329 38.2493 128.312 38.022 129.441 38.022C130.13 38.022 130.812 38.132 131.487 38.352C132.162 38.572 132.719 38.88 133.159 39.276L132.345 41.19C131.964 40.8527 131.531 40.596 131.047 40.42C130.578 40.244 130.123 40.156 129.683 40.156C128.73 40.156 127.989 40.4567 127.461 41.058C126.948 41.6447 126.691 42.488 126.691 43.588C126.691 44.6733 126.948 45.5313 127.461 46.162C127.989 46.778 128.73 47.086 129.683 47.086C130.108 47.086 130.563 46.998 131.047 46.822C131.531 46.646 131.964 46.382 132.345 46.03L133.159 47.966C132.719 48.3473 132.154 48.6553 131.465 48.89C130.79 49.11 130.116 49.22 129.441 49.22ZM139.346 43.94V42.29H161.346V43.94H139.346ZM167.693 49L174.535 33.49H176.075L182.917 49H181.047L179.331 45.04H171.257L169.563 49H167.693ZM175.283 35.602L171.917 43.522H178.693L175.327 35.602H175.283ZM185.217 49V33.49H191.355C193.027 33.49 194.303 33.8933 195.183 34.7C196.077 35.5067 196.525 36.658 196.525 38.154C196.525 39.6353 196.077 40.7867 195.183 41.608C194.303 42.4147 193.027 42.818 191.355 42.818H187.021V49H185.217ZM187.021 41.3H191.135C193.54 41.3 194.743 40.2513 194.743 38.154C194.743 36.042 193.54 34.986 191.135 34.986H187.021V41.3ZM199.139 49V33.49H205.277C206.949 33.49 208.225 33.8933 209.105 34.7C209.999 35.5067 210.447 36.658 210.447 38.154C210.447 39.6353 209.999 40.7867 209.105 41.608C208.225 42.4147 206.949 42.818 205.277 42.818H200.943V49H199.139ZM200.943 41.3H205.057C207.462 41.3 208.665 40.2513 208.665 38.154C208.665 36.042 207.462 34.986 205.057 34.986H200.943V41.3ZM213.06 49V33.49H214.864V47.416H222.762V49H213.06ZM230.722 49V47.636L236.024 41.916C236.772 41.0947 237.308 40.3467 237.63 39.672C237.968 38.9973 238.136 38.308 238.136 37.604C238.136 35.8 237.088 34.898 234.99 34.898C233.421 34.898 232.035 35.4847 230.832 36.658L230.15 35.25C230.722 34.6633 231.448 34.194 232.328 33.842C233.223 33.4753 234.162 33.292 235.144 33.292C236.699 33.292 237.887 33.6587 238.708 34.392C239.544 35.1107 239.962 36.1373 239.962 37.472C239.962 38.396 239.735 39.3053 239.28 40.2C238.826 41.08 238.129 42.0187 237.19 43.016L233.032 47.46H240.6V49H230.722ZM248.534 49.198C246.759 49.198 245.41 48.516 244.486 47.152C243.562 45.788 243.1 43.8153 243.1 41.234C243.1 38.638 243.562 36.6653 244.486 35.316C245.41 33.9667 246.759 33.292 248.534 33.292C250.323 33.292 251.672 33.9667 252.582 35.316C253.506 36.6507 253.968 38.616 253.968 41.212C253.968 43.808 253.498 45.788 252.56 47.152C251.636 48.516 250.294 49.198 248.534 49.198ZM248.534 47.636C249.766 47.636 250.675 47.1153 251.262 46.074C251.863 45.0327 252.164 43.412 252.164 41.212C252.164 39.012 251.87 37.406 251.284 36.394C250.697 35.3673 249.78 34.854 248.534 34.854C247.302 34.854 246.385 35.3673 245.784 36.394C245.197 37.4207 244.904 39.0267 244.904 41.212C244.904 43.412 245.197 45.0327 245.784 46.074C246.385 47.1153 247.302 47.636 248.534 47.636ZM257.105 49V47.636L262.407 41.916C263.155 41.0947 263.69 40.3467 264.013 39.672C264.35 38.9973 264.519 38.308 264.519 37.604C264.519 35.8 263.47 34.898 261.373 34.898C259.804 34.898 258.418 35.4847 257.215 36.658L256.533 35.25C257.105 34.6633 257.831 34.194 258.711 33.842C259.606 33.4753 260.544 33.292 261.527 33.292C263.082 33.292 264.27 33.6587 265.091 34.392C265.927 35.1107 266.345 36.1373 266.345 37.472C266.345 38.396 266.118 39.3053 265.663 40.2C265.208 41.08 264.512 42.0187 263.573 43.016L259.415 47.46H266.983V49H257.105ZM270.296 49V47.636L275.598 41.916C276.346 41.0947 276.882 40.3467 277.204 39.672C277.542 38.9973 277.71 38.308 277.71 37.604C277.71 35.8 276.662 34.898 274.564 34.898C272.995 34.898 271.609 35.4847 270.406 36.658L269.724 35.25C270.296 34.6633 271.022 34.194 271.902 33.842C272.797 33.4753 273.736 33.292 274.718 33.292C276.273 33.292 277.461 33.6587 278.282 34.392C279.118 35.1107 279.536 36.1373 279.536 37.472C279.536 38.396 279.309 39.3053 278.854 40.2C278.4 41.08 277.703 42.0187 276.764 43.016L272.606 47.46H280.174V49H270.296Z" fill="#9F9EB0"/>
</g>
<path d="M1 21C1 9.95432 9.95431 1 21 1H461V501H21C9.9543 501 1 492.046 1 481V21Z" stroke="#A1E66D" stroke-width="2"/>
<path d="M460 1H480C491.046 1 500 9.95431 500 21V167.667H460V1Z" fill="#E9E9ED"/>
<path d="M460 0H480C491.598 0 501 9.40202 501 21H499C499 10.5066 490.493 2 480 2H460V0ZM501 168.667H460V166.667H499L501 168.667ZM460 167.667V1V167.667ZM480 0C491.598 0 501 9.40202 501 21V168.667L499 166.667V21C499 10.5066 490.493 2 480 2V0Z" fill="#A1E66D"/>
<defs>
<clipPath id="clip0_920_3363">
<path d="M1 21C1 9.95432 9.95431 1 21 1H461V501H21C9.9543 501 1 492.046 1 481V21Z" fill="white"/>
</clipPath>
</defs>
</svg>
